<svg width="24" height="24" viewBox="0 0 24 24" fill="none" xmlns="http://www.w3.org/2000/svg">
<path d="M21.49 8.66975C21.2684 8.16813 20.9242 7.73029 20.4891 7.39653C20.054 7.06276 19.5419 6.84379 19 6.75975C18.6225 6.08555 18.0727 5.52378 17.4067 5.13194C16.7408 4.74011 15.9827 4.53228 15.21 4.52975C14.4364 4.52485 13.6748 4.72128 13 5.09975C12.8857 5.16541 12.7856 5.25293 12.7051 5.35731C12.6247 5.4617 12.5656 5.5809 12.5313 5.70812C12.4969 5.83533 12.4879 5.96807 12.5049 6.09875C12.5218 6.22943 12.5643 6.3555 12.63 6.46975C12.6957 6.584 12.7832 6.68419 12.8876 6.76462C12.992 6.84505 13.1112 6.90412 13.2384 6.93848C13.3656 6.97284 13.4983 6.9818 13.629 6.96486C13.7597 6.94792 13.8857 6.90541 14 6.83975C14.3583 6.63207 14.7659 6.52497 15.18 6.52975C15.662 6.53392 16.1314 6.68435 16.526 6.96113C16.9206 7.23791 17.2219 7.62798 17.39 8.07975C17.4648 8.28112 17.6024 8.45308 17.7825 8.57015C17.9626 8.68721 18.1756 8.74318 18.39 8.72975H18.46C18.7515 8.72767 19.0348 8.82593 19.2624 9.00801C19.49 9.19009 19.648 9.44493 19.71 9.72975C19.7547 9.96086 19.8795 10.1688 20.0624 10.317C20.2453 10.4651 20.4746 10.544 20.71 10.5397C20.8802 10.5397 21.0488 10.5734 21.206 10.6389C21.3631 10.7043 21.5058 10.8003 21.6257 10.9211C21.7456 11.042 21.8405 11.1853 21.9047 11.343C21.9689 11.5007 22.0013 11.6695 22 11.8397C22.0013 12.0676 21.9426 12.2917 21.83 12.4897C21.7611 12.6025 21.7151 12.7278 21.6949 12.8584C21.6747 12.989 21.6806 13.1223 21.7122 13.2507C21.7438 13.379 21.8005 13.4998 21.8791 13.606C21.9577 13.7123 22.0566 13.8019 22.17 13.8697C22.3254 13.9588 22.5009 14.0069 22.68 14.0097C22.8535 14.0097 23.0241 13.9645 23.1749 13.8786C23.3257 13.7927 23.4515 13.669 23.54 13.5197C23.8429 13.0118 24.0019 12.4311 24 11.8397C23.9924 11.1078 23.7417 10.3992 23.2874 9.8253C22.833 9.25144 22.2007 8.84494 21.49 8.66975ZM3.17 6.25975C3.78729 6.25186 4.38846 6.0616 4.8979 5.71291C5.40734 5.36422 5.80229 4.87267 6.03307 4.30009C6.26385 3.72751 6.32015 3.09946 6.1949 2.49496C6.06965 1.89046 5.76844 1.3365 5.32915 0.90275C4.88986 0.469004 4.33211 0.174848 3.72607 0.0572828C3.12003 -0.0602824 2.49275 0.00399385 1.92314 0.242026C1.35354 0.480059 0.867042 0.881217 0.524849 1.39504C0.182657 1.90886 5.04237e-05 2.5124 1.04374e-08 3.12975C-3.38323e-05 3.54417 0.0822322 3.95448 0.242025 4.33686C0.401817 4.71924 0.635955 5.06608 0.930852 5.35725C1.22575 5.64843 1.57554 5.87814 1.95991 6.03307C2.34429 6.18799 2.75561 6.26504 3.17 6.25975ZM21 6.00975C21.5933 6.00975 22.1734 5.8338 22.6667 5.50415C23.1601 5.17451 23.5446 4.70597 23.7716 4.1578C23.9987 3.60962 24.0581 3.00642 23.9424 2.42447C23.8266 1.84253 23.5409 1.30798 23.1213 0.888426C22.7018 0.468868 22.1672 0.183146 21.5853 0.06739C21.0033 -0.0483656 20.4001 0.0110444 19.8519 0.238107C19.3038 0.46517 18.8352 0.849688 18.5056 1.34304C18.1759 1.83638 18 2.4164 18 3.00975C18 3.8054 18.3161 4.56846 18.8787 5.13107C19.4413 5.69368 20.2044 6.00975 21 6.00975ZM9.79 3.00975C10.0867 3.00975 10.3767 2.92177 10.6234 2.75695C10.87 2.59213 11.0623 2.35786 11.1758 2.08377C11.2894 1.80968 11.3191 1.50808 11.2612 1.21711C11.2033 0.926139 11.0604 0.658864 10.8507 0.449086C10.6409 0.239307 10.3736 0.0964458 10.0826 0.038568C9.79166 -0.0193099 9.49006 0.0103951 9.21597 0.123927C8.94189 0.237458 8.70762 0.429717 8.5428 0.676391C8.37797 0.923064 8.29 1.21307 8.29 1.50975C8.29 1.90757 8.44804 2.2891 8.72934 2.57041C9.01064 2.85171 9.39218 3.00975 9.79 3.00975Z" fill="#011C40"/>
<path d="M21.7201 14.5098H13.3101C13.1783 14.5072 13.0526 14.4537 12.9594 14.3605C12.8661 14.2673 12.8126 14.1416 12.8101 14.0098C12.8101 13.8772 12.8628 13.75 12.9565 13.6562C13.0503 13.5624 13.1775 13.5098 13.3101 13.5098H18.3101C18.7742 13.5098 19.2193 13.3254 19.5475 12.9972C19.8757 12.669 20.0601 12.2239 20.0601 11.7598C20.0601 11.2956 19.8757 10.8505 19.5475 10.5223C19.2193 10.1941 18.7742 10.0098 18.3101 10.0098H8.31007C8.25638 10.0082 8.20447 9.99011 8.16149 9.95787C8.11852 9.92564 8.08658 9.88089 8.07007 9.82977C8.05457 9.77854 8.05592 9.72369 8.07393 9.67329C8.09193 9.62288 8.12563 9.57959 8.17007 9.54977L11.1701 7.42977C11.5 7.14796 11.7127 6.75305 11.7666 6.3225C11.8204 5.89195 11.7114 5.45683 11.461 5.10249C11.2105 4.74814 10.8368 4.50015 10.4129 4.40714C9.98913 4.31414 9.54585 4.38284 9.17007 4.59977L1.41007 10.0698C0.978544 10.3672 0.625075 10.7642 0.379624 11.2273C0.134174 11.6903 0.00397851 12.2057 7.29729e-05 12.7298V17.7298C-0.00392567 18.5573 0.156446 19.3773 0.471883 20.1424C0.78732 20.9074 1.25154 21.6022 1.83761 22.1864C2.42369 22.7706 3.11994 23.2326 3.88598 23.5456C4.65201 23.8586 5.47258 24.0164 6.30007 24.0098H15.3001C15.5766 24.009 15.849 23.9435 16.0956 23.8184C16.3422 23.6934 16.5561 23.5123 16.7201 23.2898C16.8905 23.0625 17.0046 22.7982 17.0533 22.5184C17.102 22.2386 17.0837 21.9512 17.0001 21.6798C16.9832 21.6297 16.9508 21.5863 16.9077 21.5557C16.8646 21.5252 16.8129 21.5091 16.7601 21.5098H11.8101C11.6783 21.5072 11.5526 21.4537 11.4594 21.3605C11.3661 21.2673 11.3126 21.1416 11.3101 21.0098C11.3101 20.8772 11.3628 20.75 11.4565 20.6562C11.5503 20.5624 11.6775 20.5098 11.8101 20.5098H18.3101C18.5866 20.509 18.859 20.4435 19.1056 20.3184C19.3522 20.1934 19.5661 20.0123 19.7301 19.7898C19.8988 19.5617 20.0112 19.2969 20.0581 19.0171C20.105 18.7373 20.0851 18.4504 20.0001 18.1798C19.9832 18.1297 19.9508 18.0863 19.9077 18.0557C19.8646 18.0252 19.8129 18.0091 19.7601 18.0098H13.3101C13.1783 18.0072 13.0526 17.9537 12.9594 17.8605C12.8661 17.7673 12.8126 17.6416 12.8101 17.5098C12.8101 17.3772 12.8628 17.25 12.9565 17.1562C13.0503 17.0624 13.1775 17.0098 13.3101 17.0098H20.3101C20.7742 17.0098 21.2193 16.8254 21.5475 16.4972C21.8757 16.169 22.0601 15.7239 22.0601 15.2598C22.0619 15.0587 22.028 14.859 21.9601 14.6698C21.9415 14.6216 21.9085 14.5803 21.8655 14.5517C21.8225 14.523 21.7717 14.5084 21.7201 14.5098Z" fill="#011C40"/>
</svg>
