<svg width="24" height="24" viewBox="0 0 24 24" fill="none" xmlns="http://www.w3.org/2000/svg">
<path d="M12 18C12.2652 18 12.5196 18.1054 12.7071 18.2929C12.8946 18.4804 13 18.7348 13 19V21C13 21.2652 12.8946 21.5196 12.7071 21.7071C12.5196 21.8946 12.2652 22 12 22C11.7348 22 11.4804 21.8946 11.2929 21.7071C11.1054 21.5196 11 21.2652 11 21V19C11 18.7348 11.1054 18.4804 11.2929 18.2929C11.4804 18.1054 11.7348 18 12 18ZM16.459 3C17.4059 3.00016 18.3219 3.3362 19.0443 3.94833C19.7667 4.56047 20.2485 5.40901 20.404 6.343L20.981 9.807L21.791 14.672C21.8386 14.9583 21.8233 15.2515 21.7462 15.5313C21.6691 15.8111 21.532 16.0708 21.3445 16.2923C21.1569 16.5138 20.9234 16.6919 20.6602 16.8141C20.3969 16.9363 20.1102 16.9997 19.82 17H3C2.73478 17 2.48043 16.8946 2.29289 16.7071C2.10536 16.5196 2 16.2652 2 16C2 13.8783 2.84285 11.8434 4.34315 10.3431C5.84344 8.84285 7.87827 8 10 8H18.652L18.432 6.671C18.3588 6.23136 18.1409 5.82877 17.8128 5.52712C17.4847 5.22548 17.0652 5.04207 16.621 5.006L16.459 5H9C8.73478 5 8.48043 4.89464 8.29289 4.70711C8.10536 4.51957 8 4.26522 8 4C8 3.73478 8.10536 3.48043 8.29289 3.29289C8.48043 3.10536 8.73478 3 9 3H16.459ZM7.106 18.553C7.22934 18.3243 7.43688 18.1525 7.68465 18.0742C7.93242 17.9958 8.20096 18.017 8.43339 18.1332C8.66582 18.2494 8.84389 18.4516 8.92986 18.6968C9.01584 18.942 9.00298 19.2111 8.894 19.447L7.894 21.447C7.77066 21.6757 7.56312 21.8475 7.31535 21.9258C7.06758 22.0042 6.79904 21.983 6.56661 21.8668C6.33418 21.7506 6.15611 21.5484 6.07014 21.3032C5.98416 21.058 5.99702 20.7889 6.106 20.553L7.106 18.553ZM15.553 18.106C15.7901 17.9876 16.0646 17.9681 16.316 18.052C16.5675 18.1358 16.7754 18.316 16.894 18.553L17.894 20.553C18.003 20.7889 18.0158 21.058 17.9299 21.3032C17.8439 21.5484 17.6658 21.7506 17.4334 21.8668C17.201 21.983 16.9324 22.0042 16.6847 21.9258C16.4369 21.8475 16.2293 21.6757 16.106 21.447L15.106 19.447C14.9876 19.2099 14.9681 18.9354 15.052 18.684C15.1358 18.4325 15.316 18.2246 15.553 18.106Z" fill="#011C40"/>
</svg>
