<svg width="24" height="24" viewBox="0 0 24 24" fill="none" xmlns="http://www.w3.org/2000/svg">
<path d="M14.3599 15L15.3039 14.454C16.3789 13.832 16.9159 13.521 16.9879 13.078C16.9986 13.0089 17.0019 12.9388 16.9979 12.869C16.9619 12.423 16.4519 12.079 15.4329 11.391L10.7259 8.214C8.87695 6.966 8.45195 4.69 9.74995 3M15.9999 5.5C15.9999 5.89782 15.8419 6.27936 15.5606 6.56066C15.2793 6.84196 14.8978 7 14.4999 7C14.1021 7 13.7206 6.84196 13.4393 6.56066C13.158 6.27936 12.9999 5.89782 12.9999 5.5C12.9999 5.10218 13.158 4.72064 13.4393 4.43934C13.7206 4.15804 14.1021 4 14.4999 4C14.8978 4 15.2793 4.15804 15.5606 4.43934C15.8419 4.72064 15.9999 5.10218 15.9999 5.5Z" stroke="#011C40" stroke-width="1.5" stroke-linecap="round" stroke-linejoin="round"/>
<path d="M10.726 8.214C8.226 10.714 7 17.632 7 21M10.726 8.214C8.877 6.966 8.452 4.69 9.75 3M10.726 8.214L13.372 10M14.36 15L15.304 14.454C16.379 13.832 16.916 13.521 16.988 13.078C16.9986 13.0089 17.002 12.9388 16.998 12.869C16.962 12.423 16.452 12.079 15.433 11.391L13.373 10C12.6796 10.8975 12.086 11.8679 11.603 12.894C11.163 13.821 10.944 14.284 10.985 14.814L8 14M15 21C14.027 19.865 13.026 18.3 12.05 16.858C11.367 15.848 11.025 15.342 10.985 14.813" stroke="#011C40" stroke-width="1.5" stroke-linecap="round" stroke-linejoin="round"/>
</svg>
