<svg width="24" height="24" viewBox="0 0 24 24" fill="none" xmlns="http://www.w3.org/2000/svg">
<path d="M5.17116 1.59998L7.5711 7.66592C7.64861 7.84574 7.75599 7.9284 7.90175 7.98004C8.04784 8.03181 8.23775 8.03406 8.40658 7.98769C8.5754 7.94132 8.7129 7.84605 8.77161 7.76641C8.83041 7.68672 8.84621 7.65097 8.79467 7.5305L8.79256 7.52545L6.44559 1.59998H5.17116ZM9.47014 7.00901L9.55596 7.22556L9.55185 7.21552C9.7046 7.57286 9.6353 7.97288 9.43626 8.24292C9.23722 8.51287 8.94445 8.68116 8.62717 8.76832C8.30988 8.85553 7.95823 8.86129 7.62373 8.74266C7.28924 8.62403 6.97753 8.36236 6.81377 7.98076L6.81149 7.97544L6.73128 7.77285C5.30191 8.66446 4.79243 9.66493 5.1167 10.8744C5.17331 11.0851 5.27292 11.431 5.38897 11.8707C8.78412 11.6333 11.7778 10.796 14.5106 9.5476C14.0406 8.92329 13.4835 8.38469 12.7653 7.993C11.8292 7.48246 10.5898 7.0855 9.47018 7.00897L9.47014 7.00901ZM14.9738 10.229C12.1664 11.526 9.0768 12.407 5.58888 12.669C5.68155 13.0599 5.77514 13.4919 5.86051 13.9518C9.95058 13.4978 13.3038 12.7714 15.8015 11.7563C15.5393 11.2286 15.2723 10.7122 14.9738 10.229ZM16.1626 12.4872C13.5562 13.5575 10.137 14.292 5.9945 14.7528C6.40573 17.5117 6.35629 20.9031 4 22.4C4.74276 22.4 5.45594 22.3931 6.14227 22.3797C6.95671 21.2292 7.56982 19.3983 7.6068 18.5013C7.98434 19.2573 7.75731 21.172 7.3621 22.3477C7.48696 22.3435 7.61022 22.339 7.73311 22.3343C8.27291 21.7762 8.26834 21.0452 8.40512 20.2055C8.55686 20.8772 8.72468 21.6897 8.83904 22.2835C9.35368 22.2558 9.85033 22.2232 10.3276 22.1852C11.0754 21.2687 11.3159 19.952 11.1781 18.3368C11.371 19.6469 11.5942 21.1343 11.7201 22.0533C12.1442 22.0067 12.5674 21.9524 12.9896 21.8906C13.2196 21.0448 12.8024 19.7096 12.895 18.7598C13.4028 20.7008 13.9106 21.2562 14.4184 21.6431C14.6587 21.5944 14.8982 21.5415 15.1366 21.4844C14.9221 20.8563 15.2084 20.4715 15.1905 19.6841C15.4483 20.5391 15.8582 20.8978 16.3057 21.1616C16.6027 21.067 16.8836 20.9663 17.1499 20.8601C16.6688 20.5643 16.6882 19.6727 16.5847 18.9275C16.8565 19.9046 17.2427 20.387 17.6841 20.63C19.0137 20.0087 19.907 19.2103 20.4414 18.2143C20.027 18.0423 19.5889 17.6289 19.1601 17.3097C19.7633 17.6463 20.2413 17.7876 20.6378 17.8018C20.6989 17.6563 20.753 17.508 20.8 17.3575C18.2286 16.4783 17.1446 14.4753 16.1627 12.4872L16.1626 12.4872Z" fill="#011C40"/>
</svg>
