<svg width="24" height="20" viewBox="0 0 24 20" fill="none" xmlns="http://www.w3.org/2000/svg">
<g clip-path="url(#clip0_549_4)">
<path d="M10.245 0C10.6695 0.0579537 11.0118 0.378193 11.0596 0.825093L23.5911 0.825691C23.8296 0.825691 23.9448 0.97416 24 1.1652V2.06139C23.9575 2.24496 23.8155 2.39134 23.6065 2.39134H10.4289C10.2267 2.39149 10.0488 2.2584 10.0254 2.06019C10.0156 1.97834 10.0207 1.89291 10.0162 1.80851C9.879 1.78133 9.756 1.73936 9.6405 1.65736L7.7775 3.69201C7.8639 3.77506 7.9488 3.8478 7.99065 3.96341C8.0388 4.09634 8.0487 4.28574 7.94175 4.40254L4.0317 8.66931C3.8901 8.82375 3.71895 8.89754 3.5061 8.80762C3.42405 8.77296 3.342 8.70485 3.2625 8.63331L1.1079 10.9894C0.9369 11.1764 0.6108 11.1444 0.43245 11.0007C0.30585 10.8987 0.21015 10.8102 0.09255 10.705C0.0321 10.6509 0.02895 10.5645 0 10.5453V10.4258L0.05295 10.3228L9.14565 0.388648C9.23745 0.288275 9.3579 0.246901 9.49215 0.311426C9.6504 0.143092 9.8532 0.0389843 10.08 0H10.245ZM10.3386 1.24914C10.5151 1.15325 10.5804 0.951008 10.515 0.782823C10.4484 0.61165 10.2715 0.504406 10.0861 0.546975C9.85935 0.598954 9.73185 0.833159 9.8088 1.04137C9.8862 1.25063 10.1286 1.36311 10.3386 1.24914Z" fill="#011C40"/>
<path d="M12.5999 20H12.2699C11.6228 19.9341 11.0396 19.6414 10.6258 19.1412C10.2928 18.7386 10.0996 18.2541 10.0807 17.7304C10.0657 17.3123 10.1443 16.9178 10.3351 16.5489C10.7099 15.8243 11.4247 15.3285 12.2362 15.2597C13.6613 15.1392 14.8501 16.3041 14.7955 17.7186C14.7505 18.8841 13.8652 19.8554 12.686 19.9861C12.6539 19.9897 12.6239 19.9909 12.5998 20.0002L12.5999 20ZM13.2014 17.6028C13.1929 17.2347 12.9187 16.9111 12.5432 16.8632C12.2986 16.832 12.0797 16.9022 11.9048 17.0709C11.6918 17.2766 11.6143 17.5842 11.7155 17.8798C11.7998 18.1261 12.0284 18.3429 12.3154 18.3836C12.821 18.455 13.2124 18.066 13.2016 17.6028H13.2014Z" fill="#011C40"/>
<path d="M22.8625 10.2609C23.0172 10.262 23.1651 10.3819 23.1652 10.5437L23.166 11.1885C23.1661 11.3383 23.0439 11.4841 22.8922 11.4875L22.624 11.4938L22.5648 12.0291C22.6576 12.0343 22.7407 12.0322 22.828 12.0454C22.9636 12.0656 23.0622 12.2036 23.0617 12.3359L23.0602 12.9794C23.0598 13.1535 22.9065 13.2739 22.7425 13.2741H22.4499L22.0611 17.4375C22.0425 17.637 22.0027 17.7891 21.8866 17.9656C21.6831 18.2043 21.3733 18.4494 21.0202 18.45L15.186 18.4599C15.5128 17.3688 15.1732 16.2089 14.3214 15.4587C13.8637 15.059 13.2897 14.806 12.6772 14.7585C12.3475 14.7373 12.0379 14.7577 11.7142 14.8375L11.3238 10.7226L10.5867 2.73755H13.3969L23.4397 2.738L23.2365 4.91753C23.3773 4.94547 23.4628 5.04718 23.4874 5.19013L23.4879 5.82523C23.4879 6.02582 23.3218 6.16175 23.1223 6.14039L23.0661 6.69005C23.2297 6.702 23.3766 6.81119 23.3812 6.97489C23.3875 7.19655 23.3875 7.41104 23.3818 7.6324C23.377 7.82358 23.1918 7.94815 23.0101 7.91918C22.9938 7.91664 22.9512 7.93142 22.9498 7.94785L22.9075 8.47661C23.118 8.45779 23.2728 8.59595 23.272 8.79774L23.2698 9.40984C23.2692 9.58609 23.119 9.71096 22.9518 9.71007L22.7943 9.70917L22.7359 10.2599L22.8622 10.2608L22.8625 10.2609ZM23.1523 5.80028L23.1495 5.2433L18.6189 5.243L18.6213 5.80043H23.1523V5.80028ZM23.0502 7.5849L23.0475 7.03389H18.5092L18.5122 7.5852L23.0503 7.5849H23.0502ZM22.9338 9.36772L22.93 8.81223L18.4102 8.81313L18.405 9.36802L19.5621 9.36623L22.9336 9.36772H22.9338ZM18.7287 11.1531L20.1763 11.154H22.83L22.8303 10.5985L20.5657 10.6018L18.7968 10.6052L18.3085 10.6081L18.3081 11.1471L18.7287 11.1531ZM22.728 12.9392L22.7229 12.3677H18.201L18.1978 12.939L19.0528 12.9367L22.728 12.9392Z" fill="#011C40"/>
</g>
<defs>
<clipPath id="clip0_549_4">
<rect width="24" height="20" fill="white"/>
</clipPath>
</defs>
</svg>
