<svg width="24" height="24" viewBox="0 0 24 24" fill="none" xmlns="http://www.w3.org/2000/svg">
<path fill-rule="evenodd" clip-rule="evenodd" d="M12.5931 23.2574L12.582 23.2595L12.511 23.2945L12.491 23.2985L12.477 23.2945L12.406 23.2595C12.3954 23.2561 12.3874 23.2578 12.382 23.2644L12.378 23.2745L12.361 23.7024L12.366 23.7224L12.376 23.7355L12.48 23.8094L12.495 23.8134L12.507 23.8094L12.611 23.7355L12.623 23.7194L12.627 23.7024L12.61 23.2754C12.6074 23.2648 12.6017 23.2588 12.5931 23.2574ZM12.858 23.1445L12.845 23.1464L12.66 23.2395L12.65 23.2495L12.647 23.2605L12.665 23.6905L12.67 23.7024L12.6781 23.7094L12.879 23.8024C12.8917 23.8058 12.9014 23.8031 12.908 23.7945L12.912 23.7805L12.878 23.1665C12.8747 23.1545 12.868 23.1471 12.858 23.1445ZM12.143 23.1464C12.1386 23.1438 12.1334 23.1429 12.1283 23.144C12.1233 23.1451 12.1189 23.1482 12.116 23.1525L12.11 23.1665L12.076 23.7805C12.0767 23.7925 12.0824 23.8005 12.0931 23.8045L12.108 23.8024L12.309 23.7094L12.319 23.7015L12.323 23.6905L12.34 23.2605L12.337 23.2485L12.327 23.2385L12.143 23.1464Z" fill="#011C40"/>
<path fill-rule="evenodd" clip-rule="evenodd" d="M9.686 2.51155C9.88147 2.53591 10.0702 2.59853 10.2415 2.69584C10.4128 2.79315 10.5632 2.92324 10.6842 3.07868C10.8052 3.23413 10.8944 3.41189 10.9467 3.6018C10.999 3.79172 11.0134 3.99007 10.989 4.18555L10.637 6.99955H14.613L15.012 3.81355C15.0613 3.41877 15.2655 3.05976 15.5795 2.8155C15.8935 2.57123 16.2917 2.46172 16.6865 2.51105C17.0813 2.56038 17.4403 2.76451 17.6846 3.07854C17.9288 3.39257 18.0383 3.79077 17.989 4.18555L17.637 6.99955H20C20.3978 6.99955 20.7794 7.15758 21.0607 7.43889C21.342 7.72019 21.5 8.10172 21.5 8.49955C21.5 8.89737 21.342 9.2789 21.0607 9.56021C20.7794 9.84151 20.3978 9.99955 20 9.99955H17.262L16.762 13.9995H19.5C19.8978 13.9995 20.2794 14.1576 20.5607 14.4389C20.842 14.7202 21 15.1017 21 15.4995C21 15.8974 20.842 16.2789 20.5607 16.5602C20.2794 16.8415 19.8978 16.9995 19.5 16.9995H16.387L15.989 20.1855C15.9397 20.5803 15.7355 20.9393 15.4215 21.1836C15.1075 21.4279 14.7093 21.5374 14.3145 21.488C13.9197 21.4387 13.5607 21.2346 13.3165 20.9206C13.0722 20.6065 12.9627 20.2083 13.012 19.8135L13.363 16.9995H9.388L8.99 20.1855C8.94067 20.5803 8.73654 20.9393 8.42251 21.1836C8.10848 21.4279 7.71027 21.5374 7.3155 21.488C6.92073 21.4387 6.56172 21.2346 6.31745 20.9206C6.07318 20.6065 5.96367 20.2083 6.013 19.8135L6.363 16.9995H4.5C4.10218 16.9995 3.72064 16.8415 3.43934 16.5602C3.15804 16.2789 3 15.8974 3 15.4995C3 15.1017 3.15804 14.7202 3.43934 14.4389C3.72064 14.1576 4.10218 13.9995 4.5 13.9995H6.738L7.238 9.99955H5C4.60218 9.99955 4.22064 9.84151 3.93934 9.56021C3.65804 9.2789 3.5 8.89737 3.5 8.49955C3.5 8.10172 3.65804 7.72019 3.93934 7.43889C4.22064 7.15758 4.60218 6.99955 5 6.99955H7.613L8.012 3.81355C8.03624 3.61799 8.09877 3.42912 8.19603 3.25773C8.29329 3.08634 8.42336 2.9358 8.57882 2.8147C8.73428 2.69361 8.91207 2.60433 9.10205 2.55197C9.29202 2.49961 9.49045 2.48519 9.686 2.50955V2.51155ZM13.74 13.9995L14.24 9.99955H10.263L9.763 13.9995H13.74Z" fill="#011C40"/>
</svg>
