<?xml version="1.0" encoding="UTF-8"?>
<svg xmlns="http://www.w3.org/2000/svg" version="1.1" viewBox="0 0 1024 1024">
  <path fill="#011c40" d="M865.64,144.43c4.57,7.03,5.84,15.61,1.98,23.56-5.21,10.73-17.66,18.74-30.23,15.38-2.65-.71-5.43.27-7.33,2.45-4.26,4.87-7.48,10.35-10.41,16.14l-11.7,23.13c-4.36,8.62-9.32,16.42-15.31,24.01l-5.03-2.08c-12.34-5.11-26.19-2.62-35.78,6.92-5.38,5.35-9.53,11.4-14.41,17.34l-26.13,31.75-17.45,21.42-29.86,36.45-23.95,29.29-25.1,30.61-29.28,35.66-16.81,20.67-32.52,39.56-12.49,15.64c-8.34,10.43-9.16,24.44-3.24,36.27,11.03,22.06,31.48,23.15,42.08,37.8,5.07,7,4.94,15.77-.34,22.58-3.57,4.6-7.73,8.65-12.68,11.97-7.72,5.18-15.55,9.44-23.62,14.01-16.47,9.33-25.6,15.5-30.01,35.6-2.16,9.86-3.19,19.47-3.97,29.57-.9,11.72-1.72,22.92-3.39,34.58-3.8,26.43-13.22,51.11-27.87,73.43-1.71,2.6-4.44,5.23-3.56,5.47l-13.98,16.58c-.44.09-1.16.7-1.84,1.39-13.15,13.49-28.01,24.65-44.97,32.81-9.77,4.7-19.64,8.39-30.37,10.25-21.77,3.76-43.92.89-64.38-7.45-16-6.52-30.55-14.7-44.48-24.71l-8.78-6.31-5.44-4.04c-.73-.54-1.97-1.13-2.53-1.21l-22.96-19.35c.09,0-.36-.87-.63-1.13l-5.58-5.35c-14.76-14.15-28.02-29.52-38.84-46.87-12.51-20.07-19.17-42.7-18.25-66.31,1.09-28.12,13.6-54.73,29.44-77.56.64-.92,1.38-1.84,1.44-2.46l15.05-17.86c21.35-20.32,48.49-36.89,77.52-44.63l31.95-8.51c13.04-3.47,30.91-8.58,40.78-18.05,7.36-7.07,12.15-21.92,15.61-31.82,3.7-10.59,7.66-20.74,13.04-30.64,11.29-20.76,28.24-33.9,52.19-34.8,20.82-.78,43.81,8.54,60.46,20.42l16.12,11.5,20.78-24.01,18.59-21.31,29.45-33.92,44.97-51.78,22.77-26.1,19.64-22.58,29.78-34.37,24.4-28.01c4.49-5.15,3.55-8.9,2.48-16.26-1.37-9.45,7.67-11.98,14.12-16.95-.66-5.78-5.21-.3-9.13-4.21-1.1-1.1-1.46-3.5-.84-5.24,1.39-3.87,4.89-6.58,9-6.66,2.18-.04,4.37,1.5,5.13,3.61,1.52,4.21-5.33,8.04.11,9.62l13.4-8.83c-.63-5.54-5.01-.72-8.54-3.81-1.04-.91-1.82-3-1.47-4.5,1.17-5,5.75-8.41,10.89-7.52,1.6.28,3.08,2.17,3.38,3.66.99,4.85-5.31,6.85-.19,9.63l13.47-8.97c.54-.45-.53-2.78-1.19-2.76l-2.34.05c-1.68.04-3.69-.07-4.95-1.04-1.13-.87-1.75-3.17-1.38-4.73,1.06-4.4,4.68-7.53,9.15-7.59,2.04-.03,4.11,1.23,5.02,3.25,1.88,4.16-5.35,8.48.22,10.03l13.45-9.09c.64-.43-.58-2.67-1.23-2.62l-2.31.16c-1.74.12-3.61-.09-4.88-1.26-.89-.81-1.61-2.97-1.34-4.32.85-4.27,4.11-7.24,8.28-7.79,2.17-.29,4.52.78,5.54,2.74,2.37,4.59-4.4,7.72.01,10.46l13.55-8.84c.58-.38-.64-2.48-1.3-2.61-2.55-.53-6.25,1.21-8.03-2.84-.76-1.73-.37-4.12.95-5.89,2.46-3.3,5.96-5.57,10.12-4.21,1.37.45,2.73,2.31,2.93,3.74.65,4.63-4.91,6.13-.57,9.21l14.16-9.41c-.11-2.07-2.23-3.01-3.9-2.58-3.13.79-6.56-1.41-6.29-4.79.42-5.3,5.34-9.17,10.62-8.42,1.84.26,3.68,1.84,4.06,3.72.93,4.49-5.11,6.59-.81,9.71,11.46-7.12,14.02-9.14,27.46-5.78l10.63,8.96Z"/>
</svg>