<?xml version="1.0" encoding="UTF-8"?>
<svg xmlns="http://www.w3.org/2000/svg" version="1.1" viewBox="0 0 1024 1024">
  <path fill="#011c40" d="M72.64,868.36c11.45-18.3-18.22-29.54-33.98-75.4-19.13-55.68,22.51-129.94,76.57-149.05,25-8.84,49.43-15.9,75.06-21.85,31.77-7.39,55.98-24.85,71-53.23,10.5-19.83,21.76-39.03,34.26-57.84,17.27-26,55.7-56.62,82.19-45.43l14.41,6.09c1.41.6,5.3,2.99,6.65,3.86,1.7,1.09-3.93,3.98-6.31,5.07l-7.83,12.99-32.26,36.31c-8.01,9.01-20.42,41.17-1.38,46.41,4.39,1.21,11.18-2.1,16.57-6.61l394-329.67-4.14-22.07c-1.24-6.6,9-6.03,17.36-18.96,2.09-3.24-8.4-.63-17.39-7.46-4.59-3.49,4.44-20.83,7.87-21.54,5.89-1.22,20.44-.43,24.12,4.2,1.6,2.02.54,8.09-.17,10.64l-1.74,6.32c-.37,1.35,6.3.54,7.75-.39l21.11-13.64-16.85-5.63c21.16,1.01,39.43-1.69,56.3-17.47l-9.4-5.35,15.52-6.09c3.88-1.52,6.49-9.59,7.82-15.9-.2-.38,2.33,4.3,3.3,6.14.85,1.6-1.97,3.43-5.68,7.04l-.12,7.91,29.62-16.75-13.67-3.97c-2.34-.68-6.15-2.11-7.77-3.07-2.02-1.19-1.87-7.65-.72-9.67l8.22-14.51,20.06,1.19c12.69.75-2.62,25.42,4.65,22.63l16.13-6.17c9.36-3.58,21.34.24,27.57,7.32,6.06,6.88,7.33,17.9,3.94,28.08-2.48,7.43-9.91,14.64-17.28,16.89l-29.8,9.07c-2.56.78-10.01,4.61-9.67,7.05.43,3.05,2.8,7.41,6,13.34-60.57,11.49-36.64,66.13-76.54,63.33-17.81-1.25-37.93,0-52,12.58l-80.12,71.63-54.71,49.52-14.26,12.9-77.42,70.11-14.27,12.97-56.09,51.23-20.72,19.13-25.47,22.04c-15.44,13.35-25.52,28.98-36.67,45.98-6.95,10.6-21.21,19.27-30.89,28.75-8.43,8.25-13.37,23.51-3.96,33.01,9.29,9.39,25.53,9.59,38.05,5.79l27.19-8.25c3.37-1.02,10.67,4.21,11.93,7.48,1.48,3.82,1.64,12.94-.19,17.16-24.01,55.58-98.04,41.01-117.33,90.78l-21.25,54.82c-11.82,30.49-36.52,55.6-67.41,66.72-11.64,4.19-25.44,6.59-37.75,7.5-42.79,3.18-85.21-38.19-111.34-68.08l-10.66,2.11Z"/>
  <path d="M855.61,125.46c-4.19,4.34-11.69,8.54-17.6,9.72,2.65-9.25,5.97-16.17,17.6-9.72Z"/>
</svg>