<?xml version="1.0" encoding="UTF-8"?>
<svg xmlns="http://www.w3.org/2000/svg" version="1.1" viewBox="0 0 1024 1024">
  <path fill="#011c40" d="M309.83,699.17c.23,5.79,1.82,8.74,5.07,10.21,16.32,7.39,5.36,15.86,20.31,25.25,6.17,3.88,12.17,7.55,17.34,12.05,3.93,3.42,5.96,5.03,11.86,8.24l-7.53,9.23c-5.52,6.76-16.56-3.4-23.63,1.01-6.44,4.01-14.57,1.63-18.44-4.44-1.48-2.33-8.63-2.81-10.46-.75-4.32,4.88-12.12,7.2-17.69,1.33l-9.94-2.76c-1.63-.45-5.41-1.6-6.38-1.72-5.35,8.94-17.6,4.37-24.9.94-1.61-.76-4.31-4.18-7.07-6.56l-.9,10.38-27.6.13.64-17.82c.1-2.69,2.33-8.69,2.89-11.18l.22-108.31c-5.67,2.46-5.69,7.9-8.33,11.44l-57.5,77.07-10.37,13.13c.56,2.64,1.72,7.95,1.32,10.38l-2.7,16.49c-5.87,7.88-19.18,8.64-27,1.86l12.52-23.56c1.34-2.51,6.18-5.62,8.5-7.15l4.97-9.87c.41-.81,3.11,1.56,5.14,3.26,4.92-5.94,10.2-12.48,15.04-19.29l42.13-59.29-4.15-6.08,9.94-9.99c10.01-10.07,10.76-6.67,10.64-31.43l-.54-113.72-1.75-9.79c-2.06-11.51-9.9-8.96-5.9-12.95l4.22-4.21c2.33-2.32,1.48-8.85.59-14.49l-17.34,2.72-23.45-11.62,4.43-10.61-11.41-3.2c-4.13-1.16-9.83-7.61-13.79-9.61l-33.82-17.1-21.61-10.63,6.43-22.91,65.73,9.25c3.56.5,6.84,1.09,10.33,1.43l22.57,2.2c-.41,2.39-.89,7.26.22,8.38l44.34,29.82c-.12,3.46-2.22,7.66-4.41,10.2l-3.37,3.92c-1.87,2.18,6.88,4.02,8.05,8.71,1.03,4.12-8.44,4.57-8.44,10.59,0,9.39,19.53,9.4,25.85,9.43l.55-8.58c.08-1.23,1.47-3.69,2.56-4.27,1.36-.73,4.55,2.62,4.32,4.13l-1.25,8.1c-.19,1.26,2.65,3.97,3.92,4.09s2.58-2.86,2.65-4.31c1.51-32.33,6.01-10.29,5.27-59.95l-.41-27.53-4.6-2.7c-.83-.49,1.24-4.34.95-5.26l-5.41-17.25c-1.2-3.84-1.57-10.61-1.39-13.81l.77-13.85c-35.87,5.95-18.41-5.16-36.59-5.91l-24.36-1c-3.29-.14-6.57-1.94-8.41-5.27l47.11-6.03c4.42-.57,11.13-.31,14.75-1.37l18.74-5.51-2.71-6.68,6.04-2.54c4.34-1.82-5.36-10.26-1.97-18.09l2.63,6.09,1.17-35.13,2.63,26.96c.99,4.28,11.67,6.54,16.68,7.33,1.06,2.1-.33,10.03-3.32,10.34l-11.8,1.24c2.05,2.14,5.22,3.42,4.75,4.66l-2.29,5.94c5.84,1.26,14.1,5.75,19.72,6.66l60.77,9.85-3.72-27.54c-5.18-38.42-18.04-8.95-11.86-45.18,4.11-.79,6.69-1.03,8.34-2.52,1.76-1.59,1.24-9.25-.96-9.43l-46.72-2.55c-9.45-.52-17.75-3.32-26.57-6.5-2.32-.83-5.89-7.7-3.62-8.67,18.17-7.74,43.53-9.36,63.98-10.89,5.21-.39,7.62-3.89,9.04-9.69,3-.47,10.55-.4,13.32.21,2.2,5.96,5.08,9.44,11.22,9.64,12.05.4,54.81,2.88,61.42,10.81,1.1,1.31-1.67,5.98-3.26,6.7-25.74,11.63-70.4,7.71-74.32,11.59-.79.78-.68,4.09-.34,5.15l1.93,5.93,5.7-6.17c6.18,5.14,8.75,14.45,6.25,21.32l-7.13,3.69c.31,8.88,1.62,17.9,3.17,26.99l19.31,113.02,54.84-2.29c3.45-4.98,1.94-15.83-2.38-20.46-2.3,1.48-7.51,4.49-8.48,2.77l-6.31-11.1-1.33-17.31c-6.54-1.48-13.56-2.62-19.53-4.55l-20.34-6.58-5.83-21.49c-.62-2.29-1.97-6.75-1.46-8.73,2.52-9.91,43.41-7.96,49.59-11.99l.31-13.03,3.05.22c1.08.08.5,3.11.58,4.84l.43,9.34c10.93,1.24,105.5.33,84.34,26.12l-3.62,10.8c-5.3,3.79-12.03,9.89-17.99,12.03-18.86,6.79-39.31.08-38.71,9.67.32,5.07,13.68,8.6,19.23,10.08,2.38.64,2.8,7.81.42,8.38l-10,2.37c-2.15,4.6-2.48,13.08-1.34,18.9,18.69,1.71,34.76,1.71,52.37,6.58,2.25.62,18.39,9.19,20.77,14.34.75,1.62-.91,5.28-2.71,7.15-1.67,1.74-1.89,9.21.72,9.19l50.01-.38-.05-48.38c0-2.07-1.41-7.38-3.28-7.79s-5.29-.95-9.13-1.58c-2.5-.41-2.25-7.19-.66-9.01l7.62-.66,11-6.57c-.29-13.9-17.33-8.2-31.24-14.92l-14.27-6.89-4.98-15.28c-.86-2.62-2.05-6.21-2.5-8.23-1.55-6.9,27.93-12.42,32.94-12.82l46.55-3.76.37-10.61c.04-1.2-.38-3.11.15-3.4.79-.44,3.36-1.89,2.02-1.14l1.29,15.21c12.3,1.29,53.46,1.02,58.34,11.35.92,1.96-2.11,6.12-2.54,8.37l-3.7,19.26-10.06,3.96c-11.37,4.48-22.73,6.9-35.22,8.07-1.46.14-5.55.43-5.55,1.64l.03,6.04c.02,4.1-.17,11.91-3.2,14.13-1.6,1.17-7.17,1.77-9.63,2.75-4.41,1.74-6.36,10.39-6.32,15.38l.44,64.3c2.33,4.71,11.17,8.06,16.41,9.08l14.94,2.92c1.85.36,5.58-.64,6.9-1.69,1.59-1.25,3.34-6.59,1.5-7.57l-5.63-3c-1.15-.61.54-4.29,1.24-7.04l-23.69-3.83-5.88-19.32c-.55-1.81-3.92-5.44-3.03-6.79,5.47-8.34,59.2-11.48,72.13-14.01l26.72-126.45c8.68-41.06-.16-23.19,1.01-35.66.2-2.1,3.57-4.76,5.7-6.14l3.33-2.16c1-.65-2.8-2.77-4.03-2.8-29-.66-55.44-1.1-82.16-11.58-3.35-1.32-8.94-8.8-7-11.65,11.98-17.63,82.88-16.19,84-18.55l2.87-6.06c1.63-3.44,11.78-3.26,13.58.09,2.75,5.11,5.11,6.44,10.49,6.57,17.17.41,66.06,3.41,77.28,15.95,2.37,2.65-3.75,10.52-7.2,11.82-8.26,3.11-16.66,6.51-25.19,7.57l-41.28,5.11c4.67,4.31,7.48,7.23,10.64,12.08l-13.78-.89-5.03,10.06-6.82,2.09c-1.46.45-1.97,4.69-2.37,6.48l-4.55,20.6-25.42,122.28,51.53-3.67-2.19-29.04c-.05-.7-2.18-3.14-1.75-3.55l2.65-2.58c.63-.61,2.21,3.22,2.34,4.26l3.68,29.83,6.82,9.04c3.17,4.19,14.43-4.13,15.2-1.71l1.34,4.18c1.71,5.34.75,13.58-2.75,18.03l-18.45,3.62,1.41,16.67,10.96,5.55c1.29.65,3.44,3.9,2.87,5.23s-3.6,2.53-5.07,2.41l-4.92-.41c-1.33-.11-2.43,5.29-1.12,5.52l5.66,1c3.39.6,9.74.99,13.52-.42,7.75-2.89,1.7-19.38,10.59-22.29l32.25-80.22c3.4-8.45,8.23-18.39,8.5-26.69.07-2.13-2.15-8.05-1.33-9.81,1.37-2.91,7.92-4.96,12.38-6.15.41.28-3.84-2.61-4.01-3.69l-2.64-16.6c-10.01-.6-86.52,12.09-83.45-1.46,18.95-7.31,37.32-11.71,57-15.74,8.14-4.19,16.27-6.17,17.09-16.34l13.53-2.26,3.95,8.16c4.21,1.14,10.86,3.4,15.03,3.85,12.25.3,53.66-3.83,61.19,2.32,8,6.53-42.39,15.28-44.36,15.57l-28.81,4.2c-2.46.36-6.03,1.38-8.85,2.25l4.75,18.88c7.01-2.58,10.35-2.19,16.17,2.46l3.67-6.12c.55-.91,4.4-1.15,4.85-.14,2.9,6.52,1.55,20.05-6.98,23.83l-3.72-6.72-4.72,6.75c-1.03,1.47-5.8,1.1-8.6,1.26l-3.36,7.79-6.87,16.68-30.56,77.75c1.03,3.7,2.14,8.09,2.91,12.03l3.16,16.32c2.48,12.81-3.74,29.13-3.75,29.63l-1.22,246.2c.43,1.65,2.85,6.5,2.95,8.37l1.19,23.19-20.86.53c-1.67.04-5.69-1.19-7.43-2.11l1.85-23.19c.14-1.76,2.63-6.48,2.64-8.74l.23-38.58.74-203.3c0-2.71-1.28-4.9-1.82-4.61s-3.1,1.83-3.5,2.81l-20.65,50.54c-1.36,3.26-10.85-.77-9.73-3.61l20.91-52.88-13.27-6.96c-3.77-1.98-9.89-2.79-14.34-2.83l-2.71,7.49-13.54,2.79c-2.68.55-7.47,1.98-10.01,1.88-6.24-.25-7.73-11.45-14.17-13.88l-3.1,9.41c-1.93,5.86-6.33-12.87-13.04-7.32-3.45,2.85-7.16,8.29-8.05,12.57l-15.31,73.5c-.54,2.24-8.46.9-9.75-1.57l16.25-78.07c-10.93-11.77-47.25-12.16-56.75.57l.08,236.1c0,9.11,5.22,19.08,4.26,36.92l-26.41-.61,1.49-21.09c-.9.06-3.98.27-3.98.27l-2.38,9.12c-21.8,6.73-2.52,10.76-24.82,15.9l-11.83,2.73c-4.37,1.01-9.93,2.91-13.36.33-4.99-3.74-9.14-4.27-14.06-.65-7.01,5.17-13.24-.32-24.62-2.24-8.05-1.36-14.91-4.92-14.07-13.76l4.85-2.66c3.52-1.93-5.25-8.56-1.37-22.22,1.73-6.1,5.63-13.79,5.7-19.72l.49-42.07-.04-13.47,9.17-2.61-1.97-42.07c-17.3-20.27-16.34-49.04,1.96-68.29,18.53-19.48,49.03-20.4,68.99-2.71,19.16,16.98,22.15,47.74,4.78,68.46l-2.48,37.37c-.26,3.99,1.65,9.11,3.77,13.01,3.25,5.99-2.8,14.84-1.84,21.14,2.98,19.47,8.84,37.53,14.19,56.29l1.16,4.07c.27.94,4.28-1.02,4.27-4.71l-.17-241.3-1.95-10.72c-.59-3.22-2.32-6.84-5.32-7.45-5.47-1.12-3.75,2.14-10.82,7.65-1.14.89-5.47-8.89,2.58-17.85l2.9-3.22c.75-.83,3.2,2.13,3.68,3.14.35.74,1.38,3.14,1.35,3.16-.03.02,1.19-.23,4.39-.77.99-4.27,1.33-10.01.26-15.26l-118.05.48,2.32,10.08c2.43,10.55,12.06,5.68,20.19,11.43-4.6,1.93-7.62,2.56-11.59,2.57-4.89,0-9.99,4.43-8.1,8.65.55,1.22,2.69,3.27,2.11,3.94l-3.85,4.5,1.34,16.18,11.54-.13c2.65-.03,5.97,3.63,6.33,7.11l-12.02-.29c-1.24-.03-3.37.18-4.29.6-1.93.87-3.76,22.44-3.78,17.13l.75,200.95,3.23,14.21.32,14.89-26.1-.03.65-16.87c.1-2.54,1.87-7.74,3.05-10.89l-.37-198.99c0-3.67-2.25-7.53-4.33-9.36l-5.26,13.98-5.1.35-2.24-7.6-17.83,1.32,6.72,40.97c-1.77,1-6.16,1.67-9.9,1.74l-8.6-50.72-18.46,2.18c-5.1.6-11.12-1.48-12.17-5.13-2.16-7.47,1.04-12.89,7.87-13.67l20.2-2.31c-1.16-7.55-1.92-15.55-6.84-21.56-3.06-3.74-13.04-3.64-18.15-3.64l-90.51.03.4,66.55c4.45,2.7,7.25,5.43,9.8,9.14,3.36,4.89,8.16,8.88,11.01,14.64l19.52,39.51c.11.22-.39,3.83-.37,3.84.04.03,1.08.25,3.08.68l-2,6.95,5.5,11.66c3.1,2.38,8.04,5.58,9.2,8.2l16.53,37.31c1.93,4.35,4.18,9.54,6.31,13.54l8.81,16.53c3.29,6.18,4.81,13.19,5.17,20.54.7,1.16,4.73,5.22,5.53,7.18l8.54,24.13c-5.04,5.51-19.01,5.92-21.82-.76l-2.58-19.54,2.07-8.42c-4.16-5.61-7.46-10.77-10.61-16.78l-33.96-64.7c-5.43-10.34,3.96-10.62-4.57-19.55-13.08,8.68-30.91-1.3-38.09,17.68,5.65,6.11,18.41,3.53,18.93,9.31,1.36,14.89,2.56,35.8,3.22,52.3ZM520.15,301.44c-4.6-11.53-48.92-12.4-59.16-12.9-8.09-.39-15.35-2.17-23.24,1.17l22.99,3.26c-2.64,1.7-4.77,2.18-7.43,2.05-34.21-1.63-22.83,5.37-37.2,3.51-4.97-.64-8.42-.83-12.23-.37,30.88,10.53,83.7,12.47,116.27,3.28ZM678.48,294.64c-6.29-1.55-13.14-3.56-19.84-4.22l-16.75-1.63c-10.42-1.01-20.97-.58-30.85.42l23.66,1.59,18.51,1.24c25.24,1.69,13.85,8.51,25.26,2.6ZM640.03,302.85l14.96-2.9-23.21-1.26c-11.63-9.16-17.02-.25-29.95-5.42l9.16-2.1c-6.02-3.4-11.46-1.34-18.52-.99-45.42,2.22-36.75,13.62-32.19,10.21,2.97-2.22,9.76-5.55,14.63-4.35l-11.75,4.86c15.61,7.31,60.76,5.08,76.86,1.96ZM298.15,434.85l6.75-7.73c1.4.86,4.1,5.69,3.59,7.4s-2.47,2.92-5.92,5.57l7.37,11.79,87.7-.7c-.7-7.61-1.56-12.95-2.86-18.27l-37.6-5.39c-7.19-1.03-.48-12.7-3.73-17.01l-3.99-5.29c-.88-1.16,1.33-5.13,2.61-6.19,9.18-7.56,21.1-13.16,34.95-14.49l-13.78-83.63c-6.53,1.09-13.03,1.97-19.76,1.98l-50.54.09c-4.52,3.88,7.96,19.24,1.2,30.82l-5.97,10.22-9.68,9.12,1.11,11.38,1.6,16.62.7,40.81,1.41,12.53c-3.79.13-6.77.07-7.72.7-2.52,1.67.24,9.54,4.49,9.32,8.19-.43.23,3.66,11.46,6.16,1.37.31,1.64-4.95.43-5.65l-3.85-2.22c-.31-1.1-1.25-6.47.04-7.95ZM460.17,344.16c.45-1.39-1.59-7.93-3.83-8.08l-18.01-1.15-.18,14.55,10.95,1.4,11.07-6.72ZM626.18,335.28c-9.48-.94-19.36-.08-20.57,8.32,16.36,6.03,4.33,5.37,15.37,10.41,6.36,2.9,6.49-13.7,5.2-18.73ZM520.72,395.36c-5.45-3.66-10.65-3.95-16.55-4.61-9.69-1.07-19.29-1.9-29.12-1.87l-41.78.12c-16.19.05-42.64.05-56.58,5.77,44.21,7.52,99.75,6.95,144.02.59ZM722.37,429.8c4.81-4.89,7.72,1.04,10.02-2.96l2.79-4.86c5,2.73,8.88,8.01,11.92,13.84l7.08-7.65-1.8-13.91c-13.74,4.24-23.26,6.87-35.58,8.49l-27.39,3.6-4.7,23.43,30.52,1.62c-2.04-5.58-3.83-9.95-2.42-11.87l9.56-9.73ZM662.47,447.91h12.01s4.34-20.06,4.34-20.06c-9.34-.24-15.66-.08-24.88,2.23l11.3,4.02c1.36.48,4.66,3.61,3.55,4.19l-4.96,2.61-5.27,2.76c-1.2.63,2.26,4.25,3.9,4.25ZM442.16,446.06l.17-10.78-10.4-.99-7.94,7.13c-1.75,1.57,1.61,8.81,3.81,8.25l14.36-3.61ZM281.15,475.07c1.69-6.39,1.57-12.61.41-18.17l-2.25-10.79c-.57,29.98-.74,59.47.41,89.32l1.43-60.36ZM288.81,469.49c.15-4.31,1.38-7.15-2.44-8.79-.22,19.26-.48,36.63.8,54.61l1.64-45.82ZM261.5,542.2c3.6-4.29,15.23-2.46,15.25-8.63l.22-64.74c-20.9-2.14-4.12,1.71-32.86,1.3-3.79-.05-10.72,4.06-10.69,8.53l.67,96.25,27.4-32.7ZM257.67,643.97l11.18-2.44c2.61-.57,7.25-4.24,6.31-6.94-.69-1.97-3.24-4.26-5.78-6.6-2.28-2.11,4.29-8.21,4.77-11.32.79-5.07.95-13.82,1.09-19.24l-4.71-4.06,1.09-6.34c-3.13-1.95-6.17-5.03-5.78-7.21.38-2.11,4-5.05,6.23-6.83l1.47-14.58,2.85-5.7c.68-1.36-3.7-5.22-5.17-4.82-4.2,1.15-8.61,8.07-11.2,12.11-8.32,12.96-16.53,23.95-25.86,36.52-.94,5.98-.89,15.2.6,21.51.78,3.27-.44,5.7-.46,8.93l-.41,104.1c-.01,3.6,3.01,10.67,3.86,15.04,1.12,1.61,7.23,1.1,9.33-.15,2.17-1.29,4.57-6.03,4.69-8.97l2.39-58.37c.47-11.45,2.13-22.25,3.49-34.62ZM329.06,608.24l-19.73-39.79c-2.51-5.06-5.56-9.58-10.93-12.48l18.56,41.72c1.96,4.41,6.29,8.65,12.1,10.55ZM290.03,617.89c.96,2.67,9.54,2.52,12.5,1.83l19.71-4.61c-13.75-13.41-13.66-22.08-21.45-36.42l-6.97,9.86.14,5.33c-1.75,1.3-4.7,3.65-5.28,4.95l1.34,19.06ZM374.66,702.4c-11.95-20.85-19.36-37.47-29.22-59.76-2.91-6.58-6.25-12.86-13.38-15.07l29.39,58.12,7.05,13.78,7.86,14.49-1.71-11.56ZM280.6,723.32c-9.2-5.37-7.08-25.26-.88-25.83l-.66-23.91c-.1-3.67.02-14.3-3.12-17.4-1.84-1.82-8.44-.83-10.29.98-1.58,1.55-4.21,6.06-4.34,8.54l-3.32,65.85c-.25,4.99,5.55,8.32,9.96,8.22l28.73-.7c1.23-.03,4.91-2.36,4.16-3.05-.51-.47-2.17-2.15-2.77-2.5l-17.47-10.2ZM299.92,703.03c1.16.48,4.11-1.95,4.05-3.07l-2.01-36.31c-.18-3.17-3.67-7.42-6.07-8.38-2.06-.82-8.53-.02-9.14,2.24-1.39,5.14-1.94,14.63-1.84,19.75l.39,19.76,14.62,6.01ZM503.65,688.83l-3.61,3.22.69,13.43c-.71,3.37,2.86,1.98,3.65-.22l-.73-16.43Z"/>
  <path d="M264.32,628.81l-20.97-3.03c-.89-.13-3.39-2.15-4.1-2.59-.94-.59,2.66-4.14,3.77-4.01l20.11,2.33c.77.09,3.21,2.32,3.75,2.88.72.74-.86,2.2-2.56,4.42Z"/>
</svg>