<?xml version="1.0" encoding="UTF-8"?>
<svg xmlns="http://www.w3.org/2000/svg" version="1.1" viewBox="0 0 1024 1024">
  <path fill="#011c40" d="M176.62,748.48c-12.93-18.13-22.85-35.73-28.17-56.6-19.59-76.83,30.15-148.95,104-168.71,36.01-9.64,65.23-5.31,83.7-10.05,25.33-6.49,31.65-24.22,40.08-46.36,7.05-18.51,18.53-40.42,38.23-47.01,4.01-1.34,8.79-.52,11.4,2.07,7.94,7.9-3.7,18.95,1.83,34.94,4.2,12.15,13.38,20.6,26.28,24.16,10.63,2.94,23.11.66,33.44-7.09,11.03-8.27,21.03-17.68,31.58-26.97l38.62-33.99,192.46-171.22c7.84-6.97,12.51-14.58,13.15-24.89.76-12.25,12.69-13.46,10.83-15.93-2.85-3.78-12.95-1.49-12.15-8.53.47-4.14,5.5-9.03,9.51-10.35,8.03-2.63,5.25,11.43,9.4,13.76l15.08-12.82c.08-5.16-14.6-2.75-12.6-10.83,1-4.04,5.45-8.29,9.35-9.47,8.64-2.63,5.02,12.32,10.02,13.5,5.6-5.41,9.19-9.39,14.15-15.56-2.8-3.02-14.94-2.94-12.54-9.67,1.44-4.01,5.64-7.79,9.58-9.16s6.4,2.48,6.37,5.87c-.02,2.4.5,4.43,1.87,6.92l17.01-18.67c5.83,6.32,10.54,10.92,17.88,13.16,5.33,1.63,8.48,5.67,12.31,9.58,14.26,14.54,2.72,11.84,17.22,28.14l2.15,2.41c.57.64-1.09,2.94-1.87,3.52l-17.08,12.81c-.39,4.09,15.34.82,12.74,9.04-1.48,4.68-10.28,12.19-13.83,8.72-3.86-3.77-1.4-7.51-5.18-12.65-6.59,4.18-11.25,7.57-17.17,12.62,3.2,6.64,9.88,2.77,13.09,7.16,2.99,4.1-4.38,12.57-10.89,13.25s-3.1-13.68-8.39-14.68c-5.33,4.32-10.14,8.49-14.36,14.28-2.54,3.48,8.94,4.38,11.36,5.58,1.32.66,2.76,4.32,2.11,5.67-2,4.19-6.55,8.65-10.86,9.08-6.57.65-4.26-8.42-7.37-12.81-2.93-4.14-5.4,9.07-16.93,8.7-9.52-.3-18.08,2.96-25.27,9.92l-145.21,140.34-77.87,75.32c-1.34,1.3-1.3,4.45-.35,5.61,7.77,9.42,14.19,18.47,19.44,29.25,16.09,33.09,8.2,76.55-25.23,95.39-19.9,11.21-30.18,11.28-50.08,19.39-24.12,9.82-27.41,33.85-29.99,56.65-1.38,12.22-3.14,23.28-5.96,35.44-10.42,44.95-39.71,84.16-81.94,104.11s-90.38,15.76-129.37-8.61c-30.44-19.02-54.48-44.11-75.61-73.73Z"/>
</svg>