<?xml version="1.0" encoding="UTF-8"?>
<svg xmlns="http://www.w3.org/2000/svg" version="1.1" viewBox="0 0 1024 1024">
  <path  fill="#011c40" d="M291.9,823.99H103.78l.16-341.31-.17-149.36c0-2.93-3.67-10.74-.87-11.68l236.22-19.38-13.72-65.97c-.56-2.68,4.09-7.9,7.6-8.66,69.76-15.24,139.03-24.37,210.62-27.03,41.68-1.55,80.97.12,122.45,2.91,4.55.31,8.5,5.03,8.96,9.26l6.59,60.39,119.03-7.87c5.52-.37,72.18,17.38,74.9,24.37.49,1.27-3.78,4.29-3.78,5.77l.05,57.77c3.11,5.31,10.17,11.37,15.34,13.8l29.75,13.96c10.45,4.91,2.36,61.99.45,73.2-.34,2.01-4.11,6.32-4.34,8.3-4.05,35.29-5.62,73.21-6.53,109.67l-5.2,209.18c-4.11,7.2-14.83,6.3-20.83,2.31-8.27-5.5-15.84-9.97-24.68-14.69l-37.04-19.78c-1.8-.96-4.82-4.51-6.51-6.01l-228.45,35.51c-.6-6.82-30.26-19.5-36.96-15.15l18.89,16.9c-2.56,1.67-10.46,3.38-11.65.63-1.22-2.81-1.7-8.15-3.78-8.7-1.73-.46-6.82-.09-7.62,1.52s-1.56,4.03-3.11,8.62l-14.28-9.14c-4.85-3.11-10.62-4.08-17.28-2.91l16.85,20.87-14.57-11.65c-1.38-1.06-5.72-1.17-7.16-.19-4.11,2.78-.87,11.41-3.84,11.89l-5.48.88c-5.13-9.37-13.33-17.89-26.33-15.98l6.31,18.58-5.23-6.7c-.92-1.17-3.74-2.9-5.21-3.12-5.46-.79,1.81,12.02-9.6,13.8l-161.83,25.21ZM462.93,438.13l-16.79-4.09.83,5.64c.15.99-4.04-.1-5.07,0l-12.37,1.16-15.8,1.88-17.54-3.96,2.14,4.93c.3.69-3.29.69-4.23.8l-15.91,1.73c-3.9.42-11.19-2.3-16.33-3.89-.58,2.08-.58,6.03-2.26,6.08-1.91.06-5.45-.05-7.19.16l-16.05,2.01c-19.82,2.49-28.26-7.01-26.81-2.7l1.92,5.71-12.84-.42c-13.1,7.22-24.23-5.85-24.57-.72l-.33,4.96c-10.1,4.48-29.02-12.55-36.31-6.06l30.36,11.83c.92,4.36,1.6,10.64,2.15,16.61l119.96-13.08,44.93-4.76,149.52-15.54,70.58-7.57,36-4.18,74.94-8.09,110.88-12.18c3.92-.43,5.32-13.27,1.73-14.2l-32.15-8.37c-.09,3.61.78,5.88-.44,5.96s-4.53.27-5.54.39l-15.72,1.86c-6.39.75-13.08.28-19.72-1.26-1.46,1.54-3.28,3.9-4.85,4.53-1.26.5-5.52-.74-6.96-.37-17.7,4.49-19.22-3.86-21.67-.65l-2.78,3.63-30.34,3.19-10.79-2.63c-4.46,7.75-25.84,6.22-33.49,3.86-2.6,2.56-6.56,4.37-10.8,4.79l-14.73,1.46c-17.91,1.77-19.55-4.19-21.42-1.28l-2.41,3.75c-6.12.27-10.64.73-16.62,1.98l-13.68-2.56-3.77,4.62c-.87,1.06-5.19-.47-6.57-.27l-15.47,2.14c-16.47,2.28-23.01-5.17-23.18-1.89l-.23,4.52-10.61-.05c-11.92,5.95-23.76-4.74-24.24-.82l-.51,4.19-17.24,1.71-13.65,1.65-16.66-3.59-.06,5.28c-.04,2.96-9.13-3.03-19.25,2.18ZM874.31,754.56l3.07-291.16c-3.3-.17-6.08.15-7.71,1.22l-2.27,285.08c-.03,3.88,4.36,7.44,6.9,4.86Z"/>
</svg>