<svg width="24" height="24" viewBox="0 0 24 24" fill="none" xmlns="http://www.w3.org/2000/svg">
<path fill-rule="evenodd" clip-rule="evenodd" d="M4.80688 8.31498C5.58488 7.51098 6.36288 7.24298 7.39988 7.77898C8.33388 8.26148 8.84738 8.30948 9.31888 8.31448C9.81038 8.30948 10.3449 8.26148 11.3179 7.77898C12.3979 7.24298 13.2079 7.51098 14.0184 8.31498C14.9734 9.26298 15.2684 10.25 15.3689 10.9955C15.3806 11.0555 15.3911 11.1155 15.4004 11.1755C15.078 11.2696 14.7895 11.4544 14.5693 11.7079C14.349 11.9614 14.2064 12.273 14.1583 12.6053C14.1103 12.9377 14.1588 13.2769 14.2982 13.5824C14.4376 13.8879 14.6619 14.1469 14.9444 14.3285L14.9049 14.43C14.7069 14.2898 14.4819 14.1923 14.2442 14.1437C14.0064 14.0952 13.7612 14.0965 13.5241 14.1478C13.287 14.199 13.0631 14.299 12.8666 14.4414C12.6702 14.5838 12.5055 14.7655 12.383 14.975C12.2606 15.1844 12.183 15.417 12.1552 15.6581C12.1275 15.8991 12.1501 16.1432 12.2218 16.375C12.2934 16.6068 12.4125 16.8212 12.5714 17.0045C12.7303 17.1879 12.9256 17.3362 13.1449 17.44C13.0976 17.4986 13.0514 17.5538 13.0064 17.6055C12.5889 18.04 12.1139 18.3185 11.5989 18.2335C9.97888 17.965 9.70888 17.965 9.43888 17.965H9.20388C8.94488 17.965 8.68538 17.965 7.12988 18.2335C5.88488 18.4475 4.88488 16.357 4.38888 15.2855C3.60888 13.604 3.45338 11.8855 3.51038 10.9955C3.60688 10.2495 3.89038 9.26298 4.80688 8.31548" fill="#011C40"/>
<path fill-rule="evenodd" clip-rule="evenodd" d="M18.9225 9.04499C19.4841 9.24651 19.9427 9.66287 20.1974 10.2025C20.4521 10.7421 20.4819 11.3608 20.2805 11.9225C20.2641 11.9668 20.243 12.0073 20.217 12.044C20.6251 12.3949 20.894 12.8805 20.9747 13.4127C21.0554 13.9448 20.9427 14.4883 20.657 14.9445C20.5167 15.1683 20.3382 15.3656 20.1295 15.5275C20.1365 15.6008 20.14 15.675 20.14 15.75C20.1402 16.1235 20.0474 16.4913 19.87 16.82C20.1486 16.9706 20.3923 17.1784 20.5851 17.4297C20.778 17.681 20.9155 17.9702 20.9889 18.2784C21.0622 18.5865 21.0697 18.9067 21.0107 19.2179C20.9518 19.5291 20.8278 19.8244 20.6469 20.0844C20.466 20.3444 20.2322 20.5633 19.9609 20.7267C19.6895 20.8902 19.3867 20.9944 19.0723 21.0328C18.7579 21.0711 18.4389 21.0426 18.1362 20.9492C17.8336 20.8557 17.5541 20.6994 17.316 20.4905C16.9357 20.8023 16.4638 20.9809 15.9725 20.9991C15.4811 21.0172 14.9973 20.8739 14.5951 20.5911C14.1928 20.3082 13.8944 19.9014 13.7453 19.4328C13.5962 18.9643 13.6047 18.4598 13.7695 17.9965C13.1945 17.9656 12.6533 17.7154 12.2572 17.2974C11.8611 16.8794 11.6404 16.3255 11.6404 15.7497C11.6404 15.1739 11.8611 14.62 12.2572 14.2021C12.6533 13.7841 13.1945 13.5339 13.7695 13.503C13.6452 13.1531 13.6094 12.778 13.6653 12.4109C13.7212 12.0439 13.8671 11.6964 14.0899 11.3994C14.3127 11.1024 14.6056 10.8652 14.9423 10.7088C15.2791 10.5525 15.6493 10.482 16.02 10.5035C16.0246 10.4698 16.033 10.4362 16.045 10.4025C16.2466 9.84093 16.663 9.38245 17.2026 9.12788C17.7422 8.87331 18.3609 8.84349 18.9225 9.04499ZM17.931 19.6985C18.0652 19.828 18.2266 19.9258 18.4035 19.9848C18.5804 20.0437 18.7683 20.0624 18.9533 20.0394C19.1384 20.0163 19.3159 19.9522 19.473 19.8516C19.63 19.751 19.7626 19.6166 19.8609 19.4582C19.9593 19.2998 20.0209 19.1213 20.0414 18.936C20.0618 18.7506 20.0405 18.563 19.9791 18.387C19.9176 18.2109 19.8175 18.0508 19.6862 17.9185C19.5548 17.7861 19.3955 17.6848 19.22 17.622C19.2029 17.6159 19.1862 17.6089 19.17 17.601C18.8375 17.831 18.44 17.974 18.011 17.997C18.0945 18.232 18.14 18.486 18.14 18.75C18.14 19.089 18.065 19.41 17.931 19.6985ZM18.011 13.5035C18.3585 13.5221 18.6969 13.621 18.9997 13.7926C19.3025 13.9641 19.5614 14.2035 19.756 14.492C19.8747 14.331 19.953 14.144 19.9845 13.9465C20.0213 13.7146 19.9921 13.477 19.9002 13.2609C19.8083 13.0448 19.6573 12.8589 19.4647 12.7247C19.272 12.5904 19.0454 12.5131 18.8109 12.5017C18.5763 12.4902 18.3433 12.5451 18.1385 12.66C18.1501 12.9465 18.1068 13.2332 18.011 13.5035ZM17.8695 11.679C18.3348 11.4813 18.8532 11.446 19.341 11.579C19.4511 11.267 19.433 10.924 19.2907 10.6253C19.1484 10.3266 18.8934 10.0965 18.5817 9.98544C18.27 9.8744 17.927 9.89147 17.6279 10.0329C17.3288 10.1743 17.0979 10.4286 16.986 10.74L16.9715 10.776C17.3515 10.9842 17.6633 11.2978 17.8695 11.679ZM15.89 11.5C15.5585 11.5 15.2405 11.6317 15.0061 11.8661C14.7717 12.1005 14.64 12.4185 14.64 12.75C14.64 13.0815 14.7717 13.3995 15.0061 13.6339C15.2405 13.8683 15.5585 14 15.89 14C16.2215 14 16.5394 13.8683 16.7739 13.6339C17.0083 13.3995 17.14 13.0815 17.14 12.75C17.14 12.4185 17.0083 12.1005 16.7739 11.8661C16.5394 11.6317 16.2215 11.5 15.89 11.5ZM13.89 14.5C13.5585 14.5 13.2405 14.6317 13.0061 14.8661C12.7717 15.1005 12.64 15.4185 12.64 15.75C12.64 16.0815 12.7717 16.3995 13.0061 16.6339C13.2405 16.8683 13.5585 17 13.89 17C14.2215 17 14.5394 16.8683 14.7739 16.6339C15.0083 16.3995 15.14 16.0815 15.14 15.75C15.14 15.4185 15.0083 15.1005 14.7739 14.8661C14.5394 14.6317 14.2215 14.5 13.89 14.5ZM16.64 15.75C16.64 15.4185 16.7717 15.1005 17.0061 14.8661C17.2405 14.6317 17.5584 14.5 17.89 14.5C18.2215 14.5 18.5394 14.6317 18.7739 14.8661C19.0083 15.1005 19.14 15.4185 19.14 15.75C19.14 16.0815 19.0083 16.3995 18.7739 16.6339C18.5394 16.8683 18.2215 17 17.89 17C17.5584 17 17.2405 16.8683 17.0061 16.6339C16.7717 16.3995 16.64 16.0815 16.64 15.75ZM15.89 17.5C15.5585 17.5 15.2405 17.6317 15.0061 17.8661C14.7717 18.1005 14.64 18.4185 14.64 18.75C14.64 19.0815 14.7717 19.3995 15.0061 19.6339C15.2405 19.8683 15.5585 20 15.89 20C16.2215 20 16.5394 19.8683 16.7739 19.6339C17.0083 19.3995 17.14 19.0815 17.14 18.75C17.14 18.4185 17.0083 18.1005 16.7739 17.8661C16.5394 17.6317 16.2215 17.5 15.89 17.5ZM3.78247 4.00049H4.34897C5.76897 4.00049 7.10597 4.63899 8.08197 5.48649C8.39921 5.76099 8.68678 6.068 8.93997 6.40249V5.28299C8.93997 5.15038 8.99265 5.0232 9.08642 4.92943C9.18019 4.83567 9.30736 4.78299 9.43997 4.78299C9.57258 4.78299 9.69976 4.83567 9.79352 4.92943C9.88729 5.0232 9.93997 5.15038 9.93997 5.28299V8.58299C9.94 8.65851 9.92292 8.73306 9.89001 8.80104C9.85711 8.86902 9.80923 8.92866 9.74997 8.97549V8.99999H9.71597C9.63404 9.05455 9.53776 9.08358 9.43932 9.0834C9.34088 9.08322 9.24471 9.05385 9.16297 8.99899C7.94297 8.97699 6.71697 8.50249 5.75197 7.74099C4.76397 6.96099 4.01397 5.85099 3.85297 4.56199L3.78247 4.00049ZM8.65547 7.95549C8.47847 7.40999 8.05747 6.78949 7.42647 6.24149C6.74647 5.65149 5.88647 5.20199 4.98447 5.05349C5.22597 5.78449 5.72097 6.44299 6.37147 6.95649C7.03797 7.48199 7.84497 7.83599 8.65547 7.95549Z" fill="#011C40"/>
<path fill-rule="evenodd" clip-rule="evenodd" d="M18.9839 4.57196L19.0749 5.13096C19.3024 6.53246 18.8864 7.95496 18.2059 9.05396C17.5369 10.135 16.5389 11.014 15.4984 11.183L15.0049 11.263L14.9249 10.77C14.7249 9.53746 14.9959 8.21496 15.6069 7.11496C16.2179 6.01496 17.1944 5.09696 18.4404 4.73146L18.9839 4.57196ZM18.1369 5.92696C17.4544 6.28296 16.8834 6.87696 16.4809 7.60096C16.0689 8.34296 15.8479 9.19596 15.8604 10.016C16.3704 9.75346 16.9154 9.23846 17.3554 8.52746C17.8294 7.76246 18.1349 6.84096 18.1374 5.92746" fill="#011C40"/>
</svg>
