<svg width="24" height="24" viewBox="0 0 24 24" fill="none" xmlns="http://www.w3.org/2000/svg">
<path fill-rule="evenodd" clip-rule="evenodd" d="M13.0576 1.55397C11.7331 3.09447 11.6476 5.59647 12.8311 7.25697V7.83447C12.8311 8.01297 12.8168 8.18922 12.7883 8.36322L11.0858 7.85322C11.113 7.2314 10.9319 6.6183 10.5714 6.11094C10.2109 5.60358 9.69146 5.23093 9.09534 5.05197L6.47034 4.26447C6.03534 5.74197 6.86784 7.29447 8.34534 7.74447L10.9703 8.53197L10.9718 8.52897L12.6098 9.02022C12.5274 9.23057 12.4231 9.43168 12.2986 9.62022C11.8786 10.2502 11.6686 10.9927 11.6686 11.7427V11.949L9.97884 11.4427C10.0067 10.8219 9.82658 10.2096 9.46694 9.70282C9.10731 9.19605 8.58878 8.82384 7.99359 8.64522L5.36859 7.85772C4.92609 9.33522 5.76609 10.8877 7.23609 11.3377L9.86109 12.1252L9.86259 12.1185L11.6678 12.6592V13.5067C10.16 13.5738 8.70743 14.0942 7.50009 15H6.37509C6.16509 15 6.00009 15.165 6.00009 15.375V17.625C6.00009 17.835 6.16509 18 6.37509 18H6.75609L7.34109 21.5145C7.43859 22.0845 7.92609 22.497 8.49609 22.497H15.5086C16.0786 22.497 16.5736 22.0845 16.6636 21.5145L17.2546 18H17.6243C17.8343 18 17.9993 17.835 17.9993 17.625V15.375C17.9993 15.165 17.8343 15 17.6243 15H16.5001C15.2958 14.0966 13.8475 13.5765 12.3436 13.5075V13.197L13.5346 12.84L13.5361 12.8445L16.1611 12.057C17.6311 11.607 18.4711 10.0545 18.0286 8.57697L15.4036 9.36447C14.8086 9.54419 14.2903 9.91696 13.9307 10.4239C13.5711 10.9309 13.3905 11.5432 13.4176 12.1642L12.3428 12.4867V11.742C12.3428 11.112 12.5228 10.497 12.8678 9.97197C13.0975 9.62509 13.269 9.24308 13.3756 8.84097L14.1488 8.60922L14.1511 8.61447L16.7761 7.82697C18.2461 7.37697 19.0861 5.82447 18.6436 4.34697L16.0186 5.13447C15.4222 5.31188 14.9024 5.68409 14.5424 6.19161C14.1824 6.69914 14.0029 7.31269 14.0326 7.93422L13.4971 8.09397C13.5031 8.0076 13.5061 7.92105 13.5061 7.83447V7.03347C14.5636 5.42247 14.4976 3.08097 13.2811 1.56222C13.2196 1.48047 13.1183 1.47972 13.0576 1.55397ZM7.51659 18H16.4941L15.9241 21.39L15.9226 21.3975C15.9059 21.4954 15.8551 21.5842 15.7792 21.6481C15.7033 21.7121 15.6071 21.7471 15.5078 21.747H8.49534C8.39496 21.7461 8.29815 21.7097 8.22208 21.6442C8.14601 21.5787 8.09562 21.4884 8.07984 21.3892L7.51659 18ZM17.2501 17.244V15.75H6.75009V17.25H6.75534V17.244H17.2501Z" fill="#011C40"/>
</svg>
