<svg width="16" height="20" viewBox="0 0 16 20" fill="none" xmlns="http://www.w3.org/2000/svg">
<path d="M7.5 20V15.35C7 16.13 6 17.09 4.03 17.81C4.03 17.81 4.53 16.1 5.94 14.95C4.64 15.23 2.68 15.19 0 14C0 14 2.47 12.59 5.28 12.97C3.69 12 1.7 10.08 0.17 6.11C0.17 6.11 4.67 7.34 6.91 11.14C4.88 6.24 8 0 8 0C10.43 5.47 9.91 9.1 9.12 11.1C11.37 7.33 15.83 6.11 15.83 6.11C14.3 10.08 12.31 12 10.72 12.97C13.53 12.59 16 14 16 14C13.32 15.19 11.36 15.23 10.06 14.95C11.47 16.1 11.97 17.81 11.97 17.81C10 17.09 9 16.13 8.5 15.35V20H7.5Z" fill="#011C40"/>
</svg>
