<svg width="24" height="24" viewBox="0 0 24 24" fill="none" xmlns="http://www.w3.org/2000/svg">
<path fill-rule="evenodd" clip-rule="evenodd" d="M11.4825 4.58152C10.9025 4.02952 10.0695 3.75502 8.98355 4.02152C8.71656 3.65746 8.35837 3.37015 7.94505 3.18852C7.27705 2.90152 6.43855 2.90752 5.49305 3.45102C4.50405 3.91252 4.02755 4.59102 3.89605 5.30302C3.80705 5.78702 3.88455 6.24602 4.01205 6.60802C3.17305 7.34202 2.92055 8.18002 3.04105 8.96952C3.14555 9.65252 3.51855 10.236 3.88455 10.632C3.82043 10.9074 3.81396 11.193 3.86555 11.471C4.02055 11.361 4.09405 11.31 4.26255 11.2415C4.53755 11.1295 4.76255 11.1165 5.01255 11.1165C5.80005 11.1165 6.25555 11.208 7.00655 11.4165C7.43215 11.5302 7.84085 11.6997 8.22205 11.9205L8.36405 11.8595C8.54257 11.7821 8.7398 11.7585 8.93155 11.7915L10.688 12.095C10.6203 11.7325 10.5814 11.3652 10.5715 10.9965C10.5526 10.1198 10.7773 9.25493 11.2206 8.49825C11.6639 7.74157 12.3085 7.12272 13.0825 6.71052C12.8803 6.49907 12.6352 6.33335 12.3635 6.22452C12.2485 5.69802 11.983 5.05802 11.4825 4.58152ZM6.56955 5.14002C6.62841 5.11089 6.69244 5.09363 6.75797 5.08925C6.8235 5.08487 6.88925 5.09344 6.95147 5.11447C7.01369 5.1355 7.07116 5.16859 7.12059 5.21184C7.17001 5.25508 7.21044 5.30765 7.23955 5.36652L7.63505 6.16652L8.44155 5.30302C8.53316 5.21133 8.6568 5.1588 8.78639 5.1565C8.91598 5.1542 9.0414 5.20232 9.13621 5.2907C9.23101 5.37909 9.28779 5.50083 9.29457 5.63027C9.30135 5.7597 9.2576 5.88672 9.17255 5.98452L8.10905 7.12352L8.51055 7.93402L9.17605 7.32902C9.27477 7.24453 9.40251 7.20179 9.5322 7.20986C9.66188 7.21793 9.78334 7.27617 9.87083 7.37224C9.95832 7.46831 10.005 7.59467 10.0009 7.72454C9.99684 7.85442 9.94238 7.97761 9.84905 8.06802L8.97155 8.86552L9.49955 9.93252C9.55732 10.0513 9.56575 10.1881 9.52301 10.313C9.48027 10.438 9.38983 10.541 9.27142 10.5995C9.15302 10.658 9.01628 10.6673 8.89106 10.6253C8.76583 10.5834 8.66229 10.4936 8.60305 10.3755L8.05555 9.26902L7.07355 9.46752C6.94647 9.48719 6.81671 9.45715 6.7112 9.38364C6.6057 9.31012 6.53258 9.19879 6.50703 9.07276C6.48148 8.94674 6.50546 8.81572 6.57399 8.70691C6.64253 8.59811 6.75035 8.5199 6.87505 8.48852L7.59705 8.34252L7.19905 7.53902L5.67955 7.76752C5.61339 7.78027 5.54534 7.77952 5.47948 7.76531C5.41363 7.7511 5.35132 7.72373 5.29631 7.68483C5.24129 7.64594 5.1947 7.59633 5.15934 7.53899C5.12398 7.48164 5.10057 7.41774 5.09053 7.35112C5.08048 7.2845 5.084 7.21653 5.10088 7.15131C5.11775 7.08608 5.14764 7.02494 5.18874 6.97155C5.22983 6.91817 5.2813 6.87364 5.34004 6.84064C5.39877 6.80764 5.46358 6.78685 5.53055 6.77952L6.73355 6.59852L6.34305 5.80902C6.28453 5.69024 6.27551 5.5531 6.31797 5.42769C6.36043 5.30227 6.45091 5.19881 6.56955 5.14002Z" fill="#011C40"/>
<path fill-rule="evenodd" clip-rule="evenodd" d="M12.068 12.3475L11.814 12.298C11.7235 12.0513 11.6575 11.7962 11.617 11.5365L11.6095 11.5065C11.5585 11.298 11.5245 11.1145 11.5215 10.9765C11.5106 10.4414 11.6129 9.90998 11.8217 9.41711C12.0305 8.92425 12.341 8.48105 12.733 8.11654C12.7637 8.08754 12.7948 8.06238 12.8265 8.04105C13.834 7.14105 15.243 6.98454 16.334 7.87754C16.3215 6.65154 16.819 5.45354 18.024 4.75854L18.4465 5.48954C17.426 6.07804 17.0465 7.17955 17.2155 8.35705C19.543 7.59205 21.3545 9.79355 20.6745 12.328C20.4642 13.1059 20.0196 13.8001 19.401 14.3165L19.096 14.21C18.1925 13.8965 17.055 13.517 16.146 13.2665C15.262 13.0225 14.1245 12.77 13.2145 12.58C12.8328 12.5003 12.4506 12.4228 12.068 12.3475ZM18.777 9.99304C18.9071 9.9678 19.0419 9.99522 19.1517 10.0693C19.2616 10.1433 19.3376 10.258 19.363 10.388C19.4545 10.8436 19.4188 11.3155 19.2598 11.7521C19.1007 12.1887 18.8246 12.5731 18.4615 12.863C18.3586 12.9466 18.2267 12.9858 18.0949 12.9721C17.963 12.9585 17.842 12.8929 17.7585 12.79C17.675 12.6871 17.6357 12.5553 17.6494 12.4234C17.6631 12.2916 17.7286 12.1706 17.8315 12.087C18.0535 11.9109 18.2224 11.6767 18.3195 11.4104C18.4165 11.1442 18.438 10.8563 18.3815 10.5785C18.3566 10.4486 18.3841 10.3141 18.4581 10.2044C18.5322 10.0948 18.6467 10.019 18.7765 9.99354M5.11801 20.999C6.61801 20.9155 7.54601 20.489 8.11801 19.8645C8.34551 20.1695 8.72701 20.3465 9.14001 20.2815C9.65749 20.1999 10.1739 20.1114 10.689 20.016V17.6735H11.804V19.8005C13.214 19.5155 14.929 19.124 16.8195 18.5975V17.117H17.9345V18.277C18.696 18.0505 19.4805 17.803 20.28 17.533C20.4884 17.4695 20.6709 17.3406 20.8006 17.1655C20.9303 16.9904 21.0003 16.7782 21.0003 16.5603C21.0003 16.3424 20.9303 16.1302 20.8006 15.9551C20.6709 15.78 20.4884 15.6511 20.28 15.5875C18.408 14.9569 16.5095 14.4076 14.59 13.941V17.117H13.4755V13.6785C11.6305 13.2595 10.1205 12.9935 9.14001 12.8385C8.94774 12.8075 8.75065 12.8301 8.57036 12.9037C8.39008 12.9774 8.23357 13.0993 8.11801 13.256C7.54601 12.631 6.61801 12.2045 5.11801 12.121C5.0452 12.1176 4.97246 12.1292 4.90431 12.155C4.83616 12.1809 4.77406 12.2205 4.72187 12.2714C4.66968 12.3222 4.62851 12.3833 4.60092 12.4508C4.57333 12.5183 4.55992 12.5907 4.56151 12.6635C4.57451 13.57 4.63001 14.29 4.81901 14.8515C4.20651 15.0835 3.62901 15.5515 3.10101 16.256C2.96601 16.436 2.96601 16.6845 3.10101 16.8645C3.62451 17.563 4.19751 18.0295 4.80401 18.263C4.64301 18.808 4.57901 19.523 4.56251 20.455C4.56072 20.5279 4.57394 20.6004 4.60134 20.6679C4.62875 20.7354 4.66975 20.7966 4.7218 20.8476C4.77385 20.8987 4.83584 20.9384 4.90391 20.9645C4.97199 20.9905 5.04469 21.0023 5.11751 20.999M6.21701 15.513L5.21351 15.893C4.93551 15.998 4.62351 16.2035 4.29351 16.56C4.62001 16.913 4.92901 17.118 5.20451 17.224L6.16351 17.5935L5.87251 18.578C5.78701 18.868 5.72951 19.265 5.69901 19.822C6.77401 19.657 7.22801 19.2585 7.46251 18.896C7.80001 18.3745 7.90151 17.6135 7.90151 16.56C7.90151 15.5065 7.80001 14.746 7.46251 14.2245C7.22751 13.8615 6.77251 13.463 5.69601 13.2975C5.72451 13.8375 5.78101 14.2165 5.87501 14.497L6.21701 15.513Z" fill="#011C40"/>
</svg>
