<?xml version="1.0" encoding="UTF-8"?>
<svg id="band" xmlns="http://www.w3.org/2000/svg" version="1.1" viewBox="0 0 512 213">
  <!-- Generator: Adobe Illustrator 30.2.1, SVG Export Plug-In . SVG Version: 2.1.1 Build 1)  -->
  <defs>
    <style>
      .st0, .st1 {
        fill: #fff;
      }

      .st2, .st3 {
        fill: none;
      }

      .st3, .st1 {
        stroke: #1d1d1b;
        stroke-miterlimit: 10;
        stroke-width: .25px;
      }
    </style>
  </defs>
  <g>
    <path class="st1" d="M152.96,172.56c3.28.1,6.18,1.27,8.39,2.91.89.66.75,1.24,2.25,1.01l56.77-8.88,1.32,1.46,13.54,7.29c2.17,1.17,3.76,3.85,7.79,1.21l1.39-57.55c.2-8.34-2.35-17.93,1.66-24.22l.96-1.51c-.52.82,3.64-17.2-.73-19.07-2.86-1.22-9.76-3.93-10.73-6.57-.28-5.08-.24-10.04.03-15.08.02-.45,1.18-1.12.72-1.58-.22-.22-.59-.72-1.09-.87l-17.86-5.32-30.27,2.5-1.96-15.93c-.14-1.14-1.22-1.8-2.27-1.87-10.95-.77-21.5-1.12-32.53-.65-17.65.75-34.84,3.03-52,6.82-1.27.28-2.16,1.35-1.9,2.52,1.19,5.5,2.63,10.69,3.45,16.4l-60.22,4.94c-.63,1.09.4,1.88.4,2.82l.02,38.36-.03,86.63h46.09s44.38-6.83,44.38-6.83c.6-.9-.11-3.53,1.37-3.26.39.07.57.59,1.07.9v-3.3c2.68.1,5.3,1.6,6.18,4.16.14.41.89.05,1.29-.05,1.22-.32.22-2.52,1.12-3.18,1.66-1.22,3.16,1.75,3.96,1.4-.54-1.62-1.79-2.27-2.63-3.66,3.07-1.26,6.09,2.31,8.21,3.06.17-1.24.19-2.12.93-2.29.6-.14,1.28-.35,1.89-.01.53.29.12,1.34.5,1.92.67,1.03,2.47.35,3.25-.08-1.46-1.9-3.78-2.41-4.69-4.53Z"/>
    <path class="st1" d="M236.04,170.51c-1.16.21-1.67-.18-2.03-.35-.68-.31.3-1.05.3-1.75l.53-71.64c.64-.51,1.41-.69,1.98-.21l-.78,73.95Z"/>
    <path class="st1" d="M141.37,88.6c1.76-.06,3.14.47,4.95-.13,1.07-.35,2.52.52,3.61-.93.95-.35,2.35.72,3.36.43,4.1-1.2,4.34.47,4.27-1.73,7.72,1.75,2.86.18,8.1.37-1.22-.05,3.85-.42,3.92-.49.15-.16-.03-.49.05-.97,1.33-.27,2.58.88,4.09.69,1.2-.16,2.14-.9,3.54-.32.29.12.88-.14.97-.32.09-.17-.07-.62.09-.86,1.11-.4,2.21.69,3.4.57l6.99-.7c.42-.04.99.19,1.15-.19.08-.21-.07-.55-.02-1.01l4.18.71c-1.7-.29,4.18-.49,4.23-.56.12-.19-.03-.53,0-1.02,1.12-.21,2.12.59,3.38.65.62.03,13.16-1.36,8.78-1.45l4.39.09,3.55-1.06c1.81-.54,3.69.74,5.74,0,1.5-.54,3.15-.46,4.82-.24.35-.46-.07-.89.08-1.64,2.77.6,5.47,1.09,8.18,2.04.64.43.51,2.09.02,2.9l-88.31,9.54-66.13,6.75-.95-3.19-8.06-3.25c2.94-1.02,6.82,2.85,9.76,1.8.14-.54-.39-1.16,0-1.63,6.86,2.82,5.46-.52,8.11.84.33.17,1,.03,1.19-.24s-.04-1.14.42-1.64c2.06,1.74,8.23.84,9.77.41.52-.14,1.22,1.27,2.02.72.55-.38.63-1.33.83-2.21.88-.13,5.79,2.45,5.34.04,1.11.38,2.6,1.08,3.74.35.22-.23,0-1.22.29-1.29s.95.06,1.19.21c1.81,1.12,3.32.56,5.09.38,1.16-.11,2.08.12,3.24-.45.8-.39,2.11.61,2.89-.06-.07-.5-.28-.9-.16-1.31,7.62,2.13,3.01.08,8.88.34.35.02-.17-.96.03-1.12.21-.17,1.04-.23,1.28-.02,1.35,1.13,2.65.26,3.73.22Z"/>
  </g>
  <g>
    <path class="st1" d="M316.77,105.43l-29.98.04c-.59,0-1.21-1.65-1.38-1.42l-.82,1.09,1.12.31c.94.26-1.99,3.68-.94,5.44l29.79.09c.67,0,2.18.49,2.92.77.97,1.96,1.62,4.33,1.94,6.76l-6.24.68c-1.81.2-2.61,1.92-2.38,3.58.58,4.17,6.29,1.02,9.49,1.72l2.45,14.9c.76.47,2.65.2,3.13-.42l-1.99-12.21,5.52-.49.12,1.93c.02.33,1.59.72,1.71.41l1.86-4.5c.54.62,1.2,1.88,1.2,2.9l.15,59.89c-.14.44-.79,1.73-.82,2.22l-.36,6.59,7.96.11-.29-6.73c-.02-.45-.69-1.76-.85-2.2l-.15-60.75.59-3.63c.09-.56.15-1.6.54-1.63.29-.03.95-.06,1.36-.06h3.58c-.27-4-5.06-1.2-5.28-2.41l-.37-1.99c-.29-1.53.12-2.94.9-4.09-.21-.66-.57-1.79-.49-2.38.27-1.95,4.41-.85,6.4-2.05-2.9-1.87-5.7-.17-6.52-3.47l-.76-3.06,35.97-.05-.35,3.96c-.03.37-1.59,1.01-1.69.65l-.52-1.96c-2.22.41-3.42,3.95-2.98,5.88.07.31,1.14.84,1.28.57l.48-.88c.52-.96,1.38-1.62,2.31-1.26s1.42,1.17,1.3,2.25c-.09.79.67,2.27.67,3.05l.05,73.68c-.56,1.03-.93,2.18-.96,3.12l-.19,5.3c2.79.26,5.13.36,7.99.21.33-4.42-1.24-9.19-1.24-10.45v-72.76c5.49-3.23,11.78-3.11,17.03.13l-4.99,24.17c1.04.48,2.38.66,3.11.23l4.81-23.21,1.9-3.02,3.8.05,2.32.03c.73,0,.98,3.26,3.46,3.72.73.13,2.02-.56,2.86-.72l4.26-.81.69-2.16c.13-.4,1.93-.27,2.34-.08l5.93,2.94-6.35,16.17c.21.83,2.34,1.8,2.82,1.14,3.26-5.06,3.47-11.6,7.96-16.8l-.15,75.25c0,.77-.82,2.01-.87,2.59l-.6,7.34,8.28.27c1.47-3.24-.61-5.98-.6-8.94l.12-75.67,1.18-4.54c.38-1.46.27-2.46,0-3.94l-.99-5.38c-.19-1.03-.5-2.12-.97-3.18l9.39-23.93c.74-1.88,1.42-3.5,2.24-5.28l.71-2.02c2.21.55,3.36-.43,4.02-2.41l1.31,2.25c2.29-2.08,3.62-5.19,1.31-8.25l-2.04,2.83c-.69-.64-1.95-1.71-2.63-1.43l-2.94,1.21c-.9.37-2.35.54-2.91,1.1-.6.6.11,2.3.14,3.11.13,3.02-1.49,5.75-2.6,8.5l-9.71,24.3-1.57,1.27c.04,1.67-.03,4.25-1.39,5.17-1.16.79-3.42.46-4.69.22l-1.41-.26c-.28-.05-.07-1,.14-1.19,1.24-1.19,2.41.51,2.97-.33,2.38-3.57-4.56-1.52-4.36-6.63-.42,1.67-2.56,4.58-2.64,4.43-1.37-2.53-1.54-3.31-3.95-4.39l-.7,2.04c-2.31-.92-3.13.52-4.16,1.95-.39.54-1.99,1.24-1.92,1.87.09.75.47,1.6,1.07,3.02-3.1,0-6.05-.12-9.23-.45l1.52-6.99,11.99-1.67c4.43-.62,6.74-3.26,7.47-1.11,1.96-2.89,7.12-.09,7.38-4.69.07-1.25-.27-3.23-.57-4.57-1.87.67-3.72,1.29-4.65,1.09-.84-1.32-1.4-2-2.25-2.77l-.53-4.79-.77,4.9-15.56,1.21,7.77-37.3,1.39-6.1c.1-.45.17-1.41.2-1.84.62-.15,2.44-.31,2.72-.94l1.2-2.71,4.3.28c-1.13-2-1.96-2.68-3.62-3.65,3.38-.53,24.03-1.5,22.52-7.34-2.24-4.23-21.01-4.89-25.46-5.25-.66-1.55-1.8-2.7-3.21-2.68-1.61.03-2.24,1.4-2.7,2.88-5.41.44-22.53,1.05-25.31,5.29-1.01,1.55,1.22,3.58,2.6,4.07,8.86,3.12,15.76,2.87,25.19,3.26,3.67.15-1.5,1.36-2.3,2.64-.49.78.21,2.23.4,3.14.57,2.8-.38,5.53-.97,8.34l-8.08,38.28c-2.44.6-23.23,1.78-21.84,4.77.18.39.89,1.19,1.02,1.65l1.61,5.51c3.4,1.14,7.05,1.2,10.69.89l6.02-.5-1.35,6.48-3.19-.38-1.33-.16c-.3-.04-.24-1.26.04-1.34l1.27-.38,1.32-.39c.28-.08.25-1.44-.02-1.56-1.54-.69-6.15-1.84-6.64-.08s2.2,1.28,2.23,2.27c.14,4.77-11.57.63-12.39-1.17l.03-21.37c0-2.66,2.25-3.19,4.21-3.52,1.39-.24,1.26-2.88,1.29-4.11l.05-2.13c0-.42,1.26-.52,1.71-.55,4.94-.35,9.6-1.63,13.76-3.91.37-1.44.68-4.11,1.09-5.39.27-.85,1-2.04.82-2.68-1.56-5.59-44.7-3.8-42.97,1.91.19.63.71,1.61,1.15,2.54.5,1.07.45,3.79,1.56,4.34l3.55,1.76c5.67,2.82,8.87-.08,9.88,4.57l-3.55,2.02c-.62.35-2.55.01-2.59.73-.05.97.24,2.42.86,2.43.97.02,2.35-.02,2.73.4.32.35.78,1.39.78,2l.05,14.88-15.55.07c-.4-1.24-.13-2.34.71-3.1,2.74-2.46-5.91-6.14-6.2-6.22-5.08-1.42-9.99-1.47-15.42-1.88-.49-1.68-.87-5.16,1.05-6.04.94-.18,2.64-.26,2.79-.93.63-2.77-.7-1.47-4.46-3.32-1.2-.59-2.08-.9-1.86-2.37.39-2.7,10.53,1.56,17.13-6.37l1.63-4.43c2.09-5.67-21.14-6.19-24.66-6.37-2.71-.14-17.79.55-17.98,3.41-.04.6.32,1.84.51,2.54l1.77,6.49c4.02,1.4,8.17,2.6,12.36,3.48-1.11,3.29,1.89,9.26,2.56,8.82l1.94-1.26c1.39,1.49,1.68,4.41.96,6.28l-16.69.64-5.76-33.97c-.54-3.19-1.25-6.1-.72-9.13l1.87-.03c.63-2.55.24-5.42-2.3-7.03l-1.92,3.91c-.92-1.41-1.73-2.17-3.24-1.94-2.89,9.37,1.79,4.61,2.79,11.19l1.68,11.03-18.91-3.08c-1.61-.26-3.8-1.82-5.58-1.86l.77-1.83c.17-.39-.97-.77-1.79-1.46l4.11-.42c.88-.13,1.15-2.67.93-3.3l-.86.83c-.53.51-1.23-2.13-3.5-.69,1.43.71,2.61,1.34,2.25,1.91-1.43.12-2.14.29-2.99.76l-.53-1.76c-.3,1.32-.26,2.64-.73,2.98-.39.28-1.24.53-2.04.85l1,2.47c-2.24-1.07-3.69,1.24-4.99,1.36-6.66.59-12.84,1.09-19.6,2.1.92,1.6,2.17,1.59,3.64,1.67l6.62.38c5.33.3.42,3.62,10.69,1.6.1,6.36-.62,7.48,2.29,13.88.55-.31,1.04-.47,1.56-.37.57.11.99,1.27.98,1.96l-.21,11.67c-1.2-3.62-.57-7.19-1.24-11.11l-.25,19.3c0,.75-1.97,2.1-.12,2.8.1-.14.39-1.07.46-1.53l1-6.57c1.21,2.65-1.33,5.4.81,7.98l.39-12.43v-11.41c4.82-2.98,2.17-.94,5.2-5.55,2.09-3.18-1.4-7.94-.41-9.4l17.84-.05c.9,0,1.93-.42,3.33-1.02l4.3,25.52-4.22.91c-.65.14-1.75,1.13-2.35,1.4-1.64.21-4.96,2.39-4.8,3.79.07.67.98,1.72,1.49,2.36l-.24,4.33c4.39,1.12,8.09,1.59,12.52,2.01.42,1.8.79,3.62.59,5.51ZM325.78,31.61c1.92-.29,6.51-1.55,5.92-3.34-.9-2.74-15.78-3.49-18.8-3.59-1.89-.06-2.58-1.3-3.16-2.92-1-.4-3.46-.27-4.31.17.04,1.68-.93,2.62-2.55,2.73-3.4.23-18.62,1.08-19.21,4.2-.38,2.01,5.58,3.28,7.13,3.46,11.67,1.36,23.09,1.12,34.98-.71ZM470.89,51.05c2.04-.48,3.59-1.37,4.11-2.88l-1.26.1c-.17.01-.39-.9-.71-.9l-16.53.13c-1.65.01-3.73-.93-5-1.42-.23-.83-.32-1.61-.63-1.87s-1.47-.29-1.86-.2l-2.29.55c-.5.12-.56,1.54-.78,2.24-1.01.79-3.04,2.34-4.33,2.63-6.12,1.38-11.61,2.59-17.49,4.93.45,1.14,1.63,1.93,2.82,1.9,14.82-.29,29.36-1.82,43.94-5.22ZM284.36,96.88c.35-4.74.35-9.31,0-13.92-.42,4.8-.4,9.29,0,13.92ZM360.56,198.37l7.99-1.89c1.19-.28,2.41-2.89,2.19-4.05-.04-.19-.69-.9-.5-.93.2-.03.67-.11.71-.13.02-.01.3.69.4.91.23.46,1.39.5,1.81.16,1.13-.88,2.3-3.65,1.45-6.41-1.83-5.94-3.38-11.84-4.51-17.74.55-.18,1.2-.34.99-.55l-1.14-1.13c1.57-1.35,1.23-2.72.47-4.6-.85-2.11-.21-5.12-.1-7.51l.27-5.96c5.46-6.58,4.66-16.63-2.3-21.83-6.46-4.83-15.27-3.66-20.31,2.01-5.34,6.01-5.18,14.62-.04,20.68l.5,12.26-2.86.85-.07,16.06c-.02,5.25-3.19,5.56-1.59,11.92l.39,1.56c.09.34-1.64.62-1.68,1-.15,1.6,1.85,4.25,4.43,3.98,1.91-.2,4.58,2.17,6.55,1.09,5.43-2.96,3.98.94,6.96.24ZM297.96,155.99c.09-.24-.23-.99-.47-.91l-1.36.44,1.24-2.1-2.91,1.05,2.5,4.2.99-2.69ZM258.2,160.62c.36-.19,1.43-1.03,1.2-1.37s-.86-.96-1.22-1.17-1.24.54-1.52.86l-1.18,1.32c-.26.3.73,1.43,1.08,1.24l1.64-.87ZM248.2,174.97c2.43-2.65,4.36-5.23,5.81-8.12-2.75,2.41-4.42,5.15-5.81,8.12ZM310.27,195.85c1.86,1.84,4.96,1.38,6.72.09-.82-2.56-1.54-5.4-2.84-7.5-1.15-1.86-1.42-2.63-1.88-4.95-.12-.58-2.75-8.56-4.35-7.4-.75.55.13,2.59,2.44,4.23.58.41.38,2.25.6,2.98,1.49,4.86-1.82,3.21-1.4,6.63l.72,5.91ZM237.94,196.62c.45-.84.41-3.23.79-4.24.5-1.34-.03-3.66-1.61-4.69l-2.89,1.38-4.48,8.24c2.01,1.89,6.58,2.27,8.19-.69Z"/>
    <path class="st3" d="M295.59,201.5h-.5c-3.93-1.7-2.56-3.33-4.71-3.08-.93.11-1.73.66-2.46,1.35-1.46,1.37-3.39.13-4.95-.4s-2.8-1.02-4.35-1.77c-.87,2.23-3.05,2.24-5.29,1.64-1.84-.49-2.62-1.11-4.31-2.97l-.62,3.27-8.2-.09.18-5.05.98-3.96.07-31.86v-8.07s-.11-36.91-.11-36.91c0-1.15-.78-3.61-1.05-4.73-.13-.56-1.73-1.61-1.37-2.06l1.39-1.71c.64-.79.31-2.96.06-4.12l-5.16.83-7.08-3.55,1.2-3.47c-3,.03-4.17-1.37-6.23-2.7-3.9-2.51-8.23-4.43-12.41-6.51l-5.63-2.79,1.98-7.04,20.02,2.89c1.11.16,1.9.3,2.84.39l7.06.67-.56,2.18,14.29,9.63c-.4,2.05-3.51,4.07-2.55,4.61l.86.48c.54.3,1.73,1.6,1.32,2.08-.34.4-1.18.98-1.81,1.41-.51.34-.76,1.66-.41,2.14.3.41,1.36,1.4,1.9,1.46l5.57.69.26-3.44c.04-.49,2-.77,1.97-.26-.04.81-.18,2.45-.15,3.33.01.44.75,1.26,1.16,1.2.31-.04.84-.83.84-1.23v-3.76c1.27-.19,2.16.67,2.2,1.93.02.62-.36,1.32-.91,2.18-.49.77.08,2.68.09,3.82l.4,23.69c2.04-8.35-.64-16.05,1.36-24.2.84,7.08-.02,16.55.32,23.34,1.85.15,3.26.85,4.17,1.92-.27.63-1.02,1.41-.82,1.72l1,1.62-2.03,4.09c-.2.4-.14,2.04.25,2.2l1.76.74-.66,2.74c-.64.36-1.55.71-1.4,1.05l.71,1.65-3.73.99.19,6.13c1.68.24,3.56.87,4.37,1.58.25.22-.32,1.75-.57,1.53s-.63-.64-.96-1.08-1.85-1.23-2.21-.83c-.31.34-.35.94-.52,1.64-.22.5-.44.83-.18.83h1.14s1.08-.02,1.08-.02c.19,0,.32.51.14.57l-.94.31c-.65.22-1.29.31-1.41.68-.09.29-.38,1.17-.08,1.23s1.35.18,1.69.27l5.37,1.27,1.17,16.22c.14,1.9-.52,3.85-1.66,5.32-.16.66,1.33,2.03,2.09,1.98,2.06-.14,2.31,1.21,3.43,2.1.83.66,3.85.29,3.02,2.74-1.64.05-3.9-.7-5.29-1.86-.74-.62-2.6,1.02-2.16,2.5l6.53.09c1.81.03,3.59-.56,5.02.89l-9.07.4c1.44,1.81,8.69-.72,10.24.26l-6.24.94,7.25.1,3.35,1.91-1.42,1.72c-3.86,4.7-4.62-1.53-10.12,2.38ZM248.44,84.28c-1.86-2.08-4.37-2.9-7.2-2.6,2.01,1.76,4.07,3.58,7.2,2.6ZM274.71,163.67l5.31-1.29c-.21-2.27-.6-4.12-.44-5.93,1.97-6.42-.97-8.26-1-8.17l.58-1.79c-1.06-.41-2.18-1.11-1.97-1.89.22-.84,1.25-1.72,1.88-2.23l.32-4.49,1.24-1.19c.71-.68-3.21-2.66-2.16-4.12,1.41-.88,2.17-1.98,2.17-3.5l-.08-18.34c-2.13-.22-3.34.04-5.25.41-2.73.53-7.88-1.2-7.85,3.33l.18,28.58c2.44-3.23,4.64-6.1,7.02-8.69l1.69,1.07c.49.31,1.09-1.54,1.62-1.17.12.08.53.33.55.33-.03,0-5.11,4.49-5.48,5l-5.43,7.39-.12,43c0,1.05,1.06,3.28,1.24,4.54.12.8,2.41.39,3.34-.17.69-.41.85-1.51.87-2.89.19-9.32.49-18.54,1.78-27.8ZM263.01,153.95c-.3,2.34-.71,4.57.62,6.63l-.43-47.96c-1.64,6.4.22,38.11-.19,41.33ZM281.48,156.51l.12-7.6c-1.57-1.12-1.27,8.81-.12,7.6ZM282.35,182.76l-1.3-1.89c-.47,1.13-.71,3.01-.15,3.89.79,1.24,3.79,2.98,4.26,2.58,2.73-2.31.02-2.06,3.22-5.89.14-2.97.39-12.49-1.57-13.9-.55-.4-2.39-.62-2.77-.07l-1.66,2.4-2.26-2.42c-.52-.56-2.37-.1-2.97.38-.52.42-1.22,1.77-1.26,2.54l-.98,19.7c-.03.6.51,2.03,1.03,2.29s1.72.41,2.4.38l9.66-.46c-.57-2.36-8-3.81-8-6.76v-4.64c.95-.53,2.36-.74,4.16-.58l-1.8,2.45Z"/>
    <path class="st3" d="M316.77,105.43c.19-1.89-.17-3.71-.59-5.51-4.43-.43-8.12-.89-12.52-2.01l.24-4.33c-.5-.63-1.41-1.68-1.49-2.36-.15-1.39,3.17-3.58,4.8-3.79.6-.27,1.7-1.26,2.35-1.4l4.22-.91-4.3-25.52c-1.4.6-2.44,1.01-3.33,1.02l-17.84.05c-.98,1.46,2.51,6.22.41,9.4-3.03,4.61-.38,2.57-5.21,5.55v11.41s-.38,12.43-.38,12.43c-2.13-2.59.41-5.34-.81-7.98l-1,6.57c-.07.45-.36,1.38-.46,1.53-1.86-.71.11-2.05.12-2.8l.25-19.3c.66,3.92.03,7.49,1.24,11.11l.21-11.67c.01-.69-.41-1.85-.98-1.96-.51-.1-1,.06-1.56.37-2.9-6.4-2.19-7.52-2.29-13.88-10.27,2.02-5.36-1.29-10.69-1.6l-6.62-.38c-1.46-.08-2.71-.07-3.64-1.67,6.77-1.01,12.95-1.5,19.6-2.1,1.3-.12,2.74-2.42,4.99-1.36l-1-2.47c.8-.32,1.65-.57,2.04-.85.47-.34.43-1.66.73-2.98l.53,1.76c.85-.46,1.56-.64,2.99-.76.36-.57-.81-1.2-2.25-1.91,2.28-1.45,2.97,1.19,3.5.69l.86-.83c.21.63-.05,3.17-.93,3.3l-4.11.42c.82.69,1.95,1.07,1.79,1.46l-.77,1.83c1.77.04,3.97,1.59,5.58,1.86l18.91,3.08-1.68-11.03c-1-6.58-5.68-1.82-2.79-11.19,1.51-.23,2.32.53,3.24,1.94l1.92-3.91c2.54,1.61,2.92,4.49,2.3,7.03l-1.87.03c-.52,3.03.18,5.94.72,9.13l5.76,33.97,16.69-.64c.71-1.87.43-4.79-.96-6.28l-1.94,1.26c-.67.44-3.68-5.53-2.56-8.82-4.19-.88-8.34-2.08-12.36-3.48l-1.77-6.49c-.19-.7-.55-1.93-.51-2.54.19-2.85,15.26-3.55,17.98-3.41,3.53.18,26.76.7,24.66,6.37l-1.63,4.43c-6.6,7.93-16.74,3.67-17.13,6.37-.21,1.46.66,1.78,1.86,2.37,3.76,1.85,5.1.54,4.46,3.32-.15.67-1.85.75-2.79.93-1.92.88-1.54,4.36-1.05,6.04,5.43.41,10.34.46,15.42,1.88.29.08,8.93,3.76,6.2,6.22-.84.76-1.11,1.87-.71,3.1l15.55-.07-.05-14.88c0-.61-.47-1.64-.78-2-.38-.43-1.76-.38-2.73-.4-.63-.01-.91-1.46-.86-2.43.04-.71,1.97-.37,2.59-.73l3.55-2.02c-1.01-4.65-4.2-1.75-9.88-4.57l-3.55-1.76c-1.1-.55-1.06-3.26-1.56-4.34-.43-.93-.96-1.91-1.15-2.54-1.73-5.71,41.41-7.5,42.97-1.91.18.64-.55,1.83-.82,2.68-.41,1.28-.72,3.95-1.09,5.39-4.15,2.28-8.82,3.55-13.76,3.91-.45.03-1.7.13-1.71.55l-.05,2.13c-.03,1.23.1,3.87-1.29,4.11-1.96.33-4.21.85-4.21,3.52l-.03,21.37c.83,1.8,12.53,5.94,12.39,1.17-.03-.99-2.7-.57-2.23-2.27s5.1-.61,6.64.08c.27.12.31,1.48.02,1.56l-1.32.39-1.27.38c-.29.08-.34,1.31-.04,1.34l1.33.16,3.19.38,1.35-6.48-6.02.5c-3.64.3-7.28.25-10.69-.89l-1.61-5.51c-.13-.46-.84-1.26-1.02-1.65-1.39-2.99,19.4-4.17,21.84-4.77l8.08-38.28c.59-2.81,1.54-5.53.97-8.34-.19-.91-.88-2.36-.4-3.14.8-1.28,5.97-2.49,2.3-2.64-9.43-.39-16.33-.14-25.19-3.26-1.38-.49-3.61-2.52-2.6-4.07,2.77-4.25,19.89-4.85,25.31-5.29.46-1.48,1.09-2.85,2.7-2.88,1.41-.03,2.55,1.13,3.21,2.68,4.46.36,23.23,1.02,25.46,5.25,1.51,5.84-19.15,6.81-22.52,7.34,1.66.97,2.49,1.65,3.62,3.65l-4.3-.28-1.2,2.71c-.28.63-2.1.79-2.72.94-.03.43-.1,1.39-.2,1.84l-1.39,6.1-7.77,37.3,15.56-1.21.77-4.9.53,4.79c.85.78,1.41,1.46,2.25,2.77.93.2,2.78-.42,4.65-1.09.29,1.34.64,3.32.57,4.57-.26,4.6-5.42,1.81-7.38,4.69-.73-2.15-3.04.49-7.47,1.11l-11.99,1.67-1.52,6.99c3.19.33,6.14.44,9.23.45-.6-1.43-.98-2.27-1.07-3.02-.08-.63,1.53-1.33,1.92-1.87,1.03-1.43,1.86-2.87,4.16-1.95l.7-2.04c2.41,1.09,2.58,1.86,3.95,4.39.08.15,2.21-2.76,2.64-4.43-.2,5.1,6.74,3.06,4.36,6.63-.56.84-1.73-.86-2.97.33-.2.19-.41,1.14-.14,1.19l1.41.26c1.27.24,3.52.57,4.69-.22,1.35-.92,1.43-3.5,1.39-5.17l1.57-1.27,9.71-24.3c1.1-2.76,2.72-5.49,2.6-8.5-.03-.81-.74-2.5-.14-3.11.56-.56,2.01-.73,2.91-1.1l2.94-1.21c.68-.28,1.94.79,2.63,1.43l2.04-2.83c2.3,3.06.98,6.17-1.31,8.25l-1.31-2.25c-.67,1.99-1.81,2.96-4.02,2.41l-.71,2.02c-.82,1.78-1.5,3.4-2.24,5.28l-9.39,23.93c.46,1.07.78,2.16.97,3.18l.99,5.38c.27,1.48.38,2.48,0,3.94l-1.18,4.54-.12,75.67c0,2.96,2.07,5.7.6,8.94l-8.28-.27.6-7.34c.05-.58.87-1.82.87-2.59l.15-75.25c-4.49,5.21-4.7,11.74-7.96,16.8-.48.66-2.61-.31-2.82-1.14l6.35-16.17-5.93-2.94c-.4-.2-2.21-.33-2.34.08l-.69,2.16-4.26.81c-.84.16-2.14.85-2.86.72-2.48-.46-2.73-3.71-3.46-3.72l-2.32-.03-3.8-.05-1.9,3.02-4.81,23.21c-.73.42-2.07.25-3.11-.23l4.99-24.17c-5.26-3.25-11.55-3.36-17.03-.13v72.76c0,1.25,1.57,6.03,1.24,10.45-2.87.14-5.2.05-7.99-.21l.19-5.3c.03-.94.41-2.08.96-3.12l-.05-73.68c0-.78-.76-2.26-.67-3.05.12-1.07-.38-1.89-1.3-2.25s-1.79.31-2.31,1.26l-.48.88c-.14.26-1.21-.26-1.28-.57-.44-1.93.77-5.47,2.98-5.88l.52,1.96c.09.36,1.65-.28,1.69-.65l.35-3.96-35.97.05.76,3.06c.82,3.3,3.62,1.6,6.52,3.47-1.99,1.21-6.13.1-6.4,2.05-.08.6.28,1.73.49,2.38-.78,1.15-1.19,2.55-.9,4.09l.37,1.99c.22,1.2,5.01-1.59,5.28,2.4h-3.58c-.42,0-1.07.03-1.36.06-.39.04-.45,1.07-.54,1.63l-.59,3.63.15,60.75c.16.44.83,1.75.85,2.2l.29,6.73-7.96-.11.36-6.59c.03-.49.68-1.78.82-2.22l-.15-59.89c0-1.02-.66-2.29-1.2-2.9l-1.86,4.5c-.13.31-1.69-.07-1.71-.41l-.12-1.93-5.52.49,1.99,12.21c-.48.62-2.37.89-3.13.42l-2.45-14.9c-3.19-.7-8.9,2.45-9.49-1.72-.23-1.66.56-3.38,2.38-3.58l6.24-.68c-.32-2.43-.97-4.8-1.94-6.76-.74-.28-2.25-.77-2.92-.77l-29.79-.09c-1.05-1.77,1.88-5.18.94-5.44l-1.12-.31.82-1.09c.17-.23.79,1.42,1.38,1.42l29.98-.04ZM354.41,60.37c-1.73-3.43-11.81-3.79-15.42-4.1-6.93-.61-14.94-.32-21.57,1.2-.42.1-1.59,1-1.31,1.21.21.15.89.64,1.21.72,12.01,2.8,24.89,3.4,37.09.98ZM400.9,59.15c.42-.09,1.62-.71,1.37-.89-4.42-3-19.82-2.6-25.63-1.82-4.61.62-8.85.21-12.71,3.38,10.67,2.68,26.16,1.73,36.97-.67ZM281.52,57.28c-5-.4-9.23-.42-13.93-.05,4.69.41,9.35.38,13.93.05ZM280.35,63.6c-.87,2.47-.69,4.18-.43,6.18,1.51.56.85-6.42.43-6.18ZM335.85,73.13l-.39-2.42-6.15-.45-.07,4.56c1.52-.03,2.43.14,3.28.45.88-.7,1.43-1.09,3.34-2.13ZM382.39,74.05c.75,1.07,1.25,1.79,1.81,1.92s2.32-.37,2.28-.93l-.33-4.58c-2.92-.33-5.52-.33-6.49,2.55l2.73,1.04ZM417.99,86.29c-1.92-.3-3.65-.07-5.54.11-6.41.62-12.46,1.28-18.57,2.31,6.87.29,17.55-1.43,24.11-2.42ZM355.2,88.46c-7.75-2.78-15.41-1.88-23.17-2.04-7.7.07-15.31-.32-22.67,1.97,15.47,2.14,30.42,2.22,45.84.07ZM320.44,102.21l.67-1.86c.29.19-.2-.12-.38-.24s-1.19.26-1.15.47l.67,3.77c.07.37,1.44.55,1.82.5.43-.06,1.52-.79,1.25-1.13-1.25-1.66-3.23-.52-2.88-1.5ZM333.37,102.39c.36-.22,1.06-1.39.67-1.52l-1.29-.42c-.3-.1-.53.66-.74,1.08l-.96,1.91c-.54-1.79-.43-2.96-2.12-3.13-1.95-.2-4.61,2.52-4.16,3.11l1.38,1.8,4.01-1.16.82,4.81c2.8-1.28-.68-4.61,2.39-6.49ZM425.91,104.09c-1.23-1.72-1.45-1.92-2.29-2.5l-1.81,3.85,4.1-1.34Z"/>
    <path class="st3" d="M360.56,198.37c-2.98.71-1.53-3.2-6.96-.24-1.97,1.07-4.65-1.3-6.55-1.09-2.57.27-4.58-2.38-4.43-3.98.04-.39,1.77-.66,1.68-1l-.39-1.56c-1.6-6.37,1.57-6.68,1.59-11.92l.07-16.06,2.86-.85-.5-12.26c-5.13-6.07-5.29-14.68.04-20.68,5.04-5.67,13.85-6.84,20.31-2.01,6.97,5.21,7.76,15.25,2.3,21.83l-.27,5.96c-.11,2.39-.75,5.39.1,7.51.76,1.88,1.11,3.26-.47,4.6l1.14,1.13c.21.21-.44.37-.99.55,1.12,5.9,2.68,11.8,4.51,17.74.85,2.76-.32,5.53-1.45,6.41-.42.33-1.58.3-1.81-.16-.11-.22-.38-.92-.4-.91-.04.01-.51.1-.71.13-.19.03.46.74.5.93.21,1.15-1,3.77-2.19,4.05l-7.99,1.89ZM349.13,183.56l-.34-7.07c-.82,2.19-2.31,5.08.34,7.07ZM371.61,183.5c-.58-1.93-.95-3.16-2.15-5.32l-.46,5.4.86-2.73c.52,1.22-.23,2.39,1.75,2.65Z"/>
    <path class="st3" d="M325.78,31.61c-11.88,1.82-23.3,2.07-34.98.71-1.55-.18-7.51-1.45-7.13-3.46.59-3.12,15.8-3.97,19.21-4.2,1.62-.11,2.59-1.05,2.55-2.73.85-.44,3.31-.57,4.31-.17.58,1.62,1.26,2.85,3.16,2.92,3.02.1,17.9.86,18.8,3.59.59,1.8-4,3.05-5.92,3.34Z"/>
    <path class="st3" d="M470.89,51.05c-14.58,3.41-29.11,4.93-43.94,5.22-1.19.02-2.37-.76-2.82-1.9,5.88-2.34,11.37-3.55,17.49-4.93,1.29-.29,3.32-1.85,4.33-2.63.22-.7.28-2.12.78-2.24l2.29-.55c.39-.09,1.55-.06,1.86.2s.4,1.04.63,1.87c1.27.49,3.35,1.43,5,1.42l16.53-.13c.32,0,.53.91.71.9l1.26-.1c-.53,1.51-2.07,2.4-4.11,2.88Z"/>
    <path class="st3" d="M237.94,196.62c-1.61,2.97-6.18,2.58-8.19.69l4.48-8.24,2.89-1.38c1.58,1.03,2.11,3.34,1.61,4.69-.38,1.01-.33,3.4-.79,4.24Z"/>
    <path class="st3" d="M310.27,195.85l-.72-5.91c-.42-3.42,2.89-1.77,1.4-6.63-.22-.73-.02-2.57-.6-2.98-2.31-1.64-3.19-3.69-2.44-4.23,1.6-1.17,4.24,6.81,4.35,7.4.46,2.31.73,3.08,1.88,4.95,1.3,2.1,2.02,4.94,2.84,7.5-1.75,1.29-4.86,1.75-6.72-.09Z"/>
    <path class="st3" d="M297.96,155.99l-.99,2.69-2.5-4.2,2.91-1.05-1.24,2.1,1.36-.44c.24-.08.56.67.47.91Z"/>
    <path class="st3" d="M248.2,174.97c1.39-2.97,3.07-5.71,5.81-8.12-1.45,2.89-3.38,5.47-5.81,8.12Z"/>
    <path d="M284.36,96.88c-.41-4.64-.42-9.12,0-13.92.36,4.61.36,9.18,0,13.92Z"/>
    <path class="st3" d="M258.2,160.62l-1.64.87c-.35.19-1.34-.94-1.08-1.24l1.18-1.32c.28-.32,1.17-1.07,1.52-.86s.99.83,1.22,1.17-.84,1.18-1.2,1.37Z"/>
    <path class="st0" d="M274.71,163.67c-1.28,9.26-1.58,18.48-1.78,27.8-.03,1.38-.19,2.49-.87,2.89-.93.55-3.22.96-3.34.17-.18-1.26-1.24-3.49-1.24-4.54l.12-43,5.43-7.39c.37-.5,5.45-5,5.48-5-.03,0-.44-.25-.55-.33-.54-.37-1.14,1.47-1.62,1.17l-1.69-1.07c-2.38,2.59-4.58,5.46-7.02,8.69l-.18-28.58c-.03-4.53,5.12-2.8,7.85-3.33,1.91-.37,3.12-.64,5.25-.41l.08,18.34c0,1.52-.76,2.62-2.17,3.5-1.05,1.45,2.87,3.44,2.16,4.12l-1.24,1.19-.32,4.49c-.63.51-1.66,1.39-1.88,2.23-.21.79.91,1.49,1.97,1.89l-.58,1.79c.03-.09,2.97,1.75,1,8.17-.16,1.81.23,3.66.44,5.93l-5.31,1.29ZM276.3,158.94c.22.02,1.41-1.05,1.23-1.17l-1.16-.76c-1.18-.77-4.48-.64-6.33-.72-.53-.02-.33,2.06.21,2.11l6.04.53Z"/>
    <path class="st0" d="M282.35,182.76l1.8-2.45c-1.79-.15-3.21.06-4.16.58v4.64c0,2.95,7.43,4.4,8.01,6.76l-9.66.46c-.68.03-1.87-.12-2.4-.38s-1.06-1.69-1.03-2.29l.98-19.7c.04-.78.73-2.12,1.26-2.54.6-.48,2.45-.94,2.97-.38l2.26,2.42,1.66-2.4c.38-.55,2.21-.33,2.77.07,1.96,1.41,1.71,10.94,1.57,13.9-3.21,3.83-.5,3.58-3.22,5.89-.47.39-3.46-1.34-4.26-2.58-.56-.88-.32-2.75.15-3.89l1.3,1.89Z"/>
    <path class="st0" d="M263.01,153.95c.41-3.22-1.45-34.93.19-41.33l.43,47.96c-1.33-2.06-.92-4.28-.62-6.63Z"/>
    <path class="st0" d="M248.44,84.28c-3.13.98-5.2-.84-7.2-2.6,2.83-.31,5.35.52,7.2,2.6Z"/>
    <path class="st0" d="M281.48,156.51c-1.16,1.21-1.45-8.72.12-7.6l-.12,7.6Z"/>
    <path class="st0" d="M354.41,60.37c-12.2,2.42-25.08,1.82-37.09-.98-.32-.07-1-.56-1.21-.72-.28-.21.89-1.11,1.31-1.21,6.63-1.52,14.64-1.81,21.57-1.2,3.61.32,13.68.68,15.42,4.1Z"/>
    <path class="st0" d="M400.9,59.15c-10.81,2.4-26.29,3.34-36.97.67,3.86-3.17,8.1-2.76,12.71-3.38,5.81-.78,21.21-1.18,25.63,1.82.25.17-.95.79-1.37.89Z"/>
    <path class="st0" d="M355.2,88.46c-15.42,2.15-30.37,2.07-45.84-.07,7.36-2.29,14.97-1.9,22.67-1.97,7.76.16,15.42-.73,23.17,2.04Z"/>
    <path class="st0" d="M333.37,102.39c-3.07,1.88.41,5.21-2.39,6.49l-.82-4.81-4.01,1.16-1.38-1.8c-.45-.58,2.21-3.31,4.16-3.11,1.69.17,1.58,1.34,2.12,3.13l.96-1.91c.21-.43.44-1.18.74-1.08l1.29.42c.4.13-.3,1.3-.67,1.52Z"/>
    <path class="st0" d="M382.39,74.05l-2.73-1.04c.97-2.89,3.57-2.89,6.49-2.55l.33,4.58c.04.55-1.73,1.05-2.28.93s-1.05-.85-1.81-1.92Z"/>
    <path class="st0" d="M335.85,73.13c-1.91,1.04-2.46,1.43-3.34,2.13-.85-.31-1.77-.48-3.28-.45l.07-4.56,6.15.45.39,2.42Z"/>
    <path class="st0" d="M417.99,86.29c-6.57.98-17.24,2.71-24.11,2.42,6.11-1.02,12.16-1.69,18.57-2.31,1.89-.18,3.62-.41,5.54-.11Z"/>
    <path class="st0" d="M320.44,102.21c-.35.98,1.63-.16,2.88,1.5.26.35-.82,1.08-1.25,1.13-.38.05-1.75-.13-1.82-.5l-.67-3.77c-.04-.21.97-.59,1.15-.47s.67.43.38.24l-.67,1.86Z"/>
    <path class="st0" d="M425.91,104.09l-4.1,1.34,1.81-3.85c.84.59,1.06.78,2.29,2.5Z"/>
    <path class="st0" d="M281.52,57.28c-4.58.33-9.24.36-13.93-.05,4.7-.37,8.93-.35,13.93.05Z"/>
    <path class="st0" d="M280.35,63.6c.42-.24,1.07,6.74-.43,6.18-.26-2-.44-3.71.43-6.18Z"/>
    <path class="st0" d="M349.13,183.56c-2.66-1.99-1.17-4.88-.34-7.07l.34,7.07Z"/>
    <path class="st0" d="M371.61,183.5c-1.97-.26-1.22-1.43-1.75-2.65l-.86,2.73.46-5.4c1.2,2.16,1.57,3.39,2.15,5.32Z"/>
    <path class="st3" d="M276.3,158.94l-6.04-.53c-.55-.05-.74-2.13-.21-2.11,1.85.08,5.15-.05,6.33.72l1.16.76c.18.12-1.02,1.18-1.23,1.17Z"/>
  </g>
  <g>
    <path class="st3" d="M236.91,182.57h-.41c-.02-.09-.13-.23-.22-.23l-.47.04.24-.67-1.11-.4c1.23-.08,2.26-.08,3.42,0l-.95.4.3.61-.58-.02c-.1,0-.18.2-.22.28Z"/>
    <path class="st3" d="M239.24,113.31l1.08.07.02,1.87-1.22-.02-.02-3.97h1.68c-.17-.13-.2-.15-.27-.18s-.18-.22-.17-.28v-1.82s.37.05.37.05c.05,0,.1-.18.05-.18l-.41-.05v-2.22c.15.03.41.18.42.33l.25,6.03c.09,2.18,2.83,4.2,5.48,4.46,2.42.24,1.98.25,4.47-.1,1.74-.25,3.81-.51,4.86,1.38.87,1.56.7,2.62.03,4.29l-1.22,3-.71,1.79c-.89,2.25-1.14,4.25-.19,6.77.22.58.47,1.06.82,1.59l1.05,1.56,1.56,2.29c1.34,1.96,2.88,3.8,3.96,5.95l1.05,2.09c2.02,4.01,3.24,7.05,3.55,11.58.05.74.1,1.52-.03,2.24-.26,1.36.05.31-.18,1.84-.15.96-.25,1.88-.56,2.8l-.61,1.82c-.51,1.53-1.07,2.56-1.9,3.92-.74,1.22-1.63,2.24-2.7,3.22-3.45,3.18-8.17,4.46-12.76,5.03l-3.29.41c-1.29.16-2.53.15-3.83.2-.63.02-1.25.07-1.89.07h-2.67c-.61.01-1.19-.02-1.79-.06l-3.37-.21c-1.49-.09-2.91-.29-4.4-.52-2.24-.34-4.38-.78-6.5-1.61-2.76-1.09-5.28-2.65-7.22-4.91-3.77-4.39-4.85-9.84-4.46-15.48.18-2.58.78-4.99,1.73-7.37l.62-1.55,1.52-2.99c.39-.76.76-1.48,1.27-2.18l1.31-1.83c1.87-2.61,4.16-5.13,5.64-8.16.6-1.22.64-3.63.21-4.82l-1.2-3.29c-.2-.55-.32-1.08-.52-1.63-1.06-2.9-2.23-5.99-1.3-9.16.41-1.41.99-2.72,1.93-3.9,1.4-1.75,3.4-3.05,5.55-3.76,1.52-.5,3.08-.7,4.66-.81l2.2-.15,1.59-.1c-.16-.32-.51-.11-.81-.11l-2.32.05c-.15,0-.34-.06-.62-.13,0-.01,0,0,.07.16.18-.03.14-.02.01,0-1.87.14-3.59.53-5.46.94,1.61-.79,3.42-1.06,5.22-1.29.29-.04.53.15.65-.39l-.5.33-.37-.94c1.11.42,1.25-.59,1.66-.06l-.32.84,2.89.02.11-1.7c0-.1.17-.27.23-.32s.35.02.35.13l-.04,2.24-.52.04c-.04.14-.09.3-.05.15l.56-.02c.02.79.03,1.47-.03,2.27-.14,1.74.21,2.46-.52,2.19-.05-.02-.12.11-.14.15-.03.06.13.11.2.1l.4-.04v1.98s-.52-.03-.52-.03c-.04,0-.1.08-.12.11-.03.05.11.12.17.11l.47-.08-.04,1.93-.65-.1c.09.19.14.29.13.27l.39-.1c.08-.02.16.24.15.34l-.12,1.45-.59-.06c.09.21.12.3.18.28l.44-.1v1.54c.01.33-.6-.06-.57.17,0,.03.02.13.04.18.01.05.11-.01.19-.04l.18-.06c.05-.02.15.17.15.23v1.15c-.39-.09-.66-.04-.98.15-2.6,1.61-3.8,3.33-4.55,6.38-.09.37,0,.84-.06,1.32l-.13-.81c-.15.53-.02.98.14,1.46l.04,1.22.62,2c.54,1.73,2.78,3.81,4.59,4.7l.05.98c.04.93.03,1.78,0,2.71l-.11,6.02c-.02,1.21-.06,2.28-.02,3.54l-1.24.11c-.06,0-.21.11-.25.15-.06.06.16.25.25.25l1.15.08c.49.03.14-.23,1.43-.16l.1.69.11-.69,1.37-.08,2.1-.11c.36-.02.87.08,1.3.03l1.22-.14c.81-.09,1.08.16,1.63-.11.08-.04-.04-.38-.15-.37l-3.49.17-2.33.09-.09-.74-.09.74-1.46.06-.11-1.03-.09,1.02h-1.21c-.14-.46-.01-.89,0-1.34l.08-5.95.08-5.82,1.2.39-.05,8.75-.08,2.37.24-.02v-10.16c0-.28.09-.59.14-.87l1.31.26.05,10.85.09-10.82c.52-.09.91-.09,1.41-.06l.06,9.55.08-9.5,1.6-.33,1.21-.48c.12.07.26.14.15.08.29-.27.36-.33.58-.46,1.47-.82,2.6-1.98,3.5-3.44.38-.63.66-1.47.92-2.22.49-1.42.16-2.64.19-4.26l-.1.25c-.02-.23-.05-.51-.1-.66-.58-1.78-1.52-3.4-3.03-4.63-.66-.53-1.27-1-2.14-1.24v-1.18s.29.08.29.08c.05.01.11-.05.12-.1,0-.03-.02-.16-.05-.15l-.35.08-.04-1.63.54-.13-.53-.22.02-1.6.32.03s.12-.17.07-.18l-.39-.08v-1.73s.17-.03.21-.05.08-.09.13-.15c.03-.05-.18-.1-.27-.1l-1.3.11ZM239.28,139.62v8.91s0-8.91,0-8.91ZM240.73,140.06v5.57s0-5.57,0-5.57Z"/>
    <path class="st3" d="M238.89,101.38v2.34s-.13.21-.15.24.15.18.15.24l.02,2.24-1.23.03-.06-2.24c-.06.86-.09,1.65-.08,2.48l.03,2.31.44-.15-.34-.18v-2.1s1.22,0,1.22,0l.07,2.12.08-2.11h1.19s.01,2.21.01,2.21l-.79.19.78-.04.03,2.15-1.28-.02.06,2.17h-1.35s0-1.99,0-1.99l.91-.07-.89-.1-.06-1.98-.12,1.81c-.04.67.12.93.03,2.23,0,.04-.21.1-.23.12-.03.02-.03.05,0,.06.03.02.25.09.25.13v1.78s-1.32,0-1.32,0l.02-1.84.55-.09-.56-.11v-1.8c0-.07.22-.17.33-.24-.18-.04-.45-.05-.64-.03.08.11.2.32.2.46l-.02,1.58-.45.15.45.09v1.84s-1.25-.02-1.25-.02l.06-1.69s.14-.22.14-.22c0,0-.06-.07-.15-.16l.03-6.59c0-.42.03-.85.04-1.36l.06-5.05.38-.14c.08-.03.06-.34-.02-.36l-.35-.07v-1.18c-.03-1.19.03-2.33.04-3.54l.04-5.88.07-4.58.09-10.53.06-9.93.05-2.53.07-8.14h.98c.06.35.08.4.07.04.36-.08.62-.09.98.02-.04.4.03.16.1-.1l2.5.07v5.06c0,.09-.14.28-.19.3-.07.03.2.22.2.29v4.61s.04,4.75.04,4.75c0,.21,0,.33.01.54.17,1.98.05,2.97.11,4.63.04,1.22.06,2.42.03,3.65,0,.21,0,.36,0,.59l.1,3.31c0,.06-.02.28-.07.29l-.33.04c-.03-1.38.08-2.75-.1-4.14l-.03,4.13-.78.07.77.09.08,3.18.09,9.24.07,1.66v7.9c0,.07.18.24.23.26l-.07-2.12-.02-.69-.07-7.19-.07-8.53c.06,0,.33.27.33.39l.04,2.84c0,.09-.16.3-.19.36-.03.08.16.26.16.36.06.91.14,1.86.03,2.74-.03.27-.02.31,0,.63.02.23.19,3.32-.1,2.85l.17.28.06,2.24c0,.12-.19.39-.24.43.08.19.26.59.26.81v1.89c-.05.08-.18.21-.16.27s.16.26.16.35l.09,2.1-.75.19.55.1c.11.02.22.32.22.46l.03,1.48c0,.22-.26.47-.47.44,0-.79.03-1.51-.1-2.23l-.04,2.2-1.19-.02v-5.08s.67-.09.67-.09h-.7s-.02-5.62-.02-5.62c-.08.82-.09,1.67-.09,2.56v3.01s-.78.05-.78.05l.79.11ZM238.7,63.45l-.08-3.07c-.08,1.26-.06,2.47-.04,3.81.18-.19.13-.42.12-.74ZM236.38,81.57v-16.17c-.08,5.47-.08,10.87,0,16.17ZM238.67,68.67l.07,10.31.03-11.03-.14.55-.75.07.79.11ZM239.84,72.95l.07-4.44-1.03.05.9.08.05,4.3ZM239.98,77.18v-2.43s-.12-1.74-.12-1.74c-.11.81-.18,3.59.12,4.17ZM239.69,85.26l-.8-.08c0-.84.05-1.73-.09-2.54l.03,12.03.07-9.34.8-.07ZM236.29,86.65v16.69s0-16.69,0-16.69ZM237.58,98.59c.15-1.03.12-1.98.03-2.93l-.03,2.93Z"/>
    <path class="st3" d="M233.05,41.26l.18.58c.04.13.43.21.55.11l.8-2.72c.04-.16-.48-.32-.59-.22-.25.48-.83.78-1.33.5.4-.03.77-.08,1.01-.39.31-.41.32-.94.39-1.42.06.19.06.63.19.72s.42.17.58.19l.84-2.83c-.18-.06-.52-.14-.66-.14-.21.35-.46.63-.71.65-.42.04-.83-.04-.85-.48.23.21.54.42.8.29.55-.27.76-.78.78-1.3.25.27.37.42.72.62l.88-2.97c-.72-.96-.97,1.36-2.11.17l.39.15c.58-.06,1.03-.52,1.15-1.12l.25.38c.05.08.45.09.48-.02l.88-2.99c-.9-.52-.49.3-1.53.55-.22.05-.57-.18-.59-.4.15.07.49.22.65.16.42-.17.8-.64.9-1.07.04.03.14.09.14.09l-.13.19.61.16c.15-.29.3-.64.39-1.02.41-1.72,1.79-3.07,3.63-3.26,2.65-.27,4.61,2.13,4.3,4.71-.45,3.84-3.34,2.92-3.18,4.68.19,2.03.58,3.94,1.15,5.88.6,2.05.99,4.1,1.02,6.24,0,.38-.22.66-.56.7-1.56.16-2.85,1.03-3.67,2.33-1.03,1.62-.64,1.74-.71,3.87l-4.59-.03-.11-.88-.07.87h-.86s-.07-2.63-.07-2.63l-.07,2.52c0,.07-.21.16-.26.13-.06-.05-.2-.22-.2-.32-.1-2.16-2.62-1.92-2.03-3.95l.76-2.6c-.1-.15-.47-.3-.61-.24-.28.32-.62.71-1.18.65.55-.2.94-.6,1.19-1.21l.73.25.88-2.9-.65-.19c-.31.51-.74.87-1.32.56l.53-.08c.57-.3.77-.88.86-1.51ZM239.56,30.2c.23.04.42-.29.4-.48-.04-.32-.62-.8-.66-.82-.21-.12-.67.09-.81.32-.13.2-.15.6-.04.81l.52.19.07-.66c0-.07.02-.26.07-.25l.16.04c.1.02-.12.77.29.85ZM238.12,32.67l.27.86.37.1c.21-.27.23-.82-.02-1.07-.27-.27-.69-.3-1.04-.15-.25.11-.49.64-.34.9.07.13.44.28.52.29l.25-.93ZM237.39,36.35l.14-.36.32.6c.15-.33-.13-.73-.44-.86s-.68,0-.89.21c-.24.23-.26.75-.09.94.06.06.36.18.39.11l.15-.3c.09-.2-.02-.53-.16-.73l.14-.15s.12.02.16.04c.03.01-.07.17-.05.19l.33.32ZM236.16,39.82c-.05.06-.17.17-.2.13-.18-.26-.11-.23.25-.75l.58.7c.02-.28-.19-.69-.42-.75-.31-.09-.67,0-.91.18-.18.14-.18.65-.13.87.02.09.28.2.35.15l.29-.2.54-.26-.1-.25s-.06-.07-.08-.04l-.17.22ZM235.36,42.8l-.34.76c-.14-.37-.12-.71-.05-.88l.35-.11c-.33-.23-.76-.03-.94.25s-.07.96.32.88l.45-.09c.09-.02.26.24.27.34l.08,2.1.12-2.35-.26-.9Z"/>
    <path class="st3" d="M240.26,120.87c-.15.4.39.37.58.44,1.24.47,2.05,1.42,2.7,2.46,1.8,2.85,1.92,6.22.23,9.16-.3.52-.51,1.02-1,1.47-.6.55-1.18,1.27-2.06,1.28l-.08-3.08-.07,3.23c-.91.48-1.86.81-2.86.84l-.07-19.18-.08,19.16c-.41.31-1.09.28-1.39-.05l-.1-4.12-.06,4.21h-.91c-.25-.01-.43-.36-.43-.64l.07-9.08.07-7.8v-1.79s.44-.2.44-.2l-.43-.09.02-1.69,1.28-.04v1.76s-.79.06-.79.06l.79.1.06,11.98.08-11.99c.35-.07.41-.1,0-.14l-.02-1.76h1.32s0,1.74,0,1.74l-.79.07c.23.06.58.13.8.12l1.43-.05v1.6s-.13.19-.15.22c.3-.45.06,3.92.21,4.06l.06-4.01,1.22.02v1.19c.01.11-.33.26-.44.3l.35.22ZM240.51,128.5v-6.57s0,6.57,0,6.57ZM239.17,126.93v9.35s0-9.35,0-9.35Z"/>
    <path class="st3" d="M233.4,131.6c.08-1.96,0-2.61.03-4.34l.08-5.9c0-.44.01-.77.02-1.21v-2.57c.01-.12.21-.29.35-.39l-.24-.11c-.08-.04-.11-.26-.1-.37l.04-1.25.46-.16-.48-.1.07-1.83s-.2-2.44.23-2.16c.05.03-.08-.05-.2-.13l.04-4.38.05-2.81.02-2.55.05-4.34.09-1.44.06-7.7.11-6.91.07-7.18.06-1.27.05-7.75.08-1.68.07-7.95.06-1.81h.88s-.06,8.03-.06,8.03l-.11,11.12-.08,8.53-.09,1.78v5.88s-.07,4.15-.07,4.15l-.06,5.42v3.05s-.04,2.37-.04,2.37l-.08,7.38-.03,2.11c0,.18-.41.09-.23.21.03.02.21.1.21.13l.02,1.07v.48c0,.13-.29.24-.39.29l.33.21-.02,1.58-.67.11.68.1v5.39s-.1,1.25-.1,1.25l-.02,11.43c0,.3-.08.68-.13.99-.22.11-.65.05-.85-.13-.17-.16-.38-.53-.36-.81l.08-1.38.1-2.44Z"/>
    <path class="st3" d="M229.47,132.57c-.2-.35-.28-.75-.38-1.16-.26-1.11-.61-2.2-.5-3.33.17-1.76.74-3.37,1.87-4.71.93-1.11-.54,0,1.41-1.57.42-.34.78-.64,1.4-.65.14.87,0,1.67-.02,2.56l-.08,8.73-.11,3.33c-.22,0-.59-.06-.78-.19-1.2-.8-2.12-1.77-2.83-3.01Z"/>
    <path class="st3" d="M233.43,81.22c.01-1.18,0-2.32.08-3.46.02-.26.03-.35.01-.67-.05-1.06,0-2.79.06-3.74,0-.03.25-.18.27-.2.03-.02.03-.04,0-.05-.03-.02-.28-.16-.28-.19l.07-3.98c0-.07.17-.28.19-.32.03-.06-.06-.12-.19-.27l.06-4.2c0-.09.25-.27.22-.32l-.18-.32.09-4.44c0-.26,0-.43,0-.68l.03-4.79c0-.16.18-.29.42-.3.06.56-.03,1.15-.03,1.76l-.08,8.35-.07,5.07-.04,2.22-.09,6.29-.07,4.46v3.57c-.01.11-.22.25-.28.22-.08-.04-.27-.2-.27-.31l.03-3.15c0-.06.25-.22.23-.26l-.17-.29Z"/>
    <path class="st3" d="M255.23,117.5c-.78-.26-1.55-.75-2.43-.65l-2.9.31c-1.56.17-3.06.18-4.58-.21-1.85-.48-3.46-1.77-4-3.71,1,1.21,2,2.16,3.49,2.56,1.74.46,3.5.56,5.31.34,1.98-.08,3.68-.52,5.12,1.37Z"/>
    <path class="st3" d="M233.01,101.01v-2.37s.29-.1.29-.1c.06-.02-.19-.25-.19-.31v-2.31c0-.14.2-.44.25-.5,0,.02-.23-.26-.23-.36l.06-2.46c0-.08.19-.28.23-.34s-.21-.23-.21-.31l.02-2.62c0-.11.09-.32.15-.38s.28-.05.41-.03l-.07,4.58-.07,7.17-.04,1.02-.04,1.78c0,.17-.05.41-.16.45-.13.04-.45-.18-.44-.33l.02-1.83c0-.2.25-.41.43-.47,0,.02-.42-.16-.42-.27Z"/>
    <path class="st3" d="M239.01,117.14h-1.34s.01-1.74.01-1.74l.9-.09-.91-.11.03-1.83h1.33s-.03,1.89-.03,1.89c-.44.01-.33.06,0,.14v1.74Z"/>
    <path class="st3" d="M215.2,140.43l-3.66,5c.79-1.73,1.92-3.15,3.02-4.69l4.62-6.49c.02.43-.18.8-.4,1.15-1.11,1.75-2.27,3.36-3.59,5.04Z"/>
    <path class="st3" d="M261.48,145.7c-.43-.46-.71-1.03-1.07-1.59l-3.5-5.06c-.68-.99-1.45-1.85-1.89-3.03l3.7,5.13c1.04,1.44,1.96,2.87,2.77,4.55Z"/>
    <polygon class="st3" points="240.34 119.01 239.13 119.01 239.12 117.27 240.33 117.27 240.34 119.01"/>
    <polygon class="st3" points="240.35 117.16 239.11 117.13 239.13 115.38 240.32 115.41 240.35 117.16"/>
    <path class="st3" d="M233.77,88.38c0,.25-.03.38-.11.43s-.39-.1-.39-.22l.06-2.94c0-.19.29-.36.55-.37l-.11,3.09Z"/>
    <path class="st3" d="M240.44,84.91c0,.07-.06.23-.1.27s-.21.08-.21.03c-.02-.14-.07-1.96-.09-2.45l-.04-1.23c.17-.02.43.16.43.34v3.04Z"/>
    <path class="st3" d="M219.24,128.37c-.35-.05-1.66-2.07-.86-2.2.37.72.65,1.34.86,2.2Z"/>
    <path class="st3" d="M239.29,148.52v-8.91s0,8.91,0,8.91Z"/>
    <path class="st3" d="M240.73,145.63v-5.57s0,5.57,0,5.57Z"/>
    <path class="st3" d="M236.28,103.34v-16.69s0,16.69,0,16.69Z"/>
    <path class="st3" d="M236.38,81.57c-.08-5.3-.08-10.7.01-16.17v16.17Z"/>
    <path class="st3" d="M239.69,85.26l-.8.07-.07,9.34-.03-12.03c.14.81.09,1.71.09,2.54l.8.08Z"/>
    <polygon class="st3" points="238.67 68.67 237.88 68.56 238.63 68.49 238.77 67.94 238.74 78.98 238.67 68.67"/>
    <path class="st3" d="M239.98,77.18c-.3-.58-.23-3.35-.12-4.17l.13,1.74v2.43Z"/>
    <polygon class="st3" points="239.84 72.95 239.78 68.64 238.88 68.56 239.91 68.51 239.84 72.95"/>
    <path class="st3" d="M238.7,63.45c0,.31.06.54-.12.74-.02-1.34-.04-2.55.04-3.81l.08,3.07Z"/>
    <path class="st3" d="M237.58,98.59l.03-2.93c.09.95.12,1.9-.03,2.93Z"/>
    <path class="st3" d="M238.12,32.67l-.25.93c-.08,0-.44-.16-.52-.29-.14-.26.09-.79.34-.9.36-.16.77-.13,1.04.15.25.25.23.79.02,1.07l-.37-.1-.27-.86Z"/>
    <path class="st3" d="M239.56,30.2c-.41-.07-.19-.82-.29-.85l-.16-.04c-.05-.01-.06.18-.07.25l-.07.66-.52-.19c-.1-.21-.08-.61.04-.81.14-.22.6-.43.81-.32.04.02.62.5.66.82.02.19-.17.52-.4.48Z"/>
    <path class="st3" d="M235.36,42.8l.26.9-.12,2.35-.08-2.1c0-.1-.17-.36-.27-.34l-.45.09c-.39.08-.5-.59-.32-.88s.61-.48.94-.25l-.35.11c-.08.18-.09.52.05.88l.34-.76Z"/>
    <path class="st3" d="M236.16,39.82l.17-.22s.07.01.08.04l.1.25-.54.26-.29.2c-.07.05-.33-.06-.35-.15-.05-.22-.04-.74.13-.87.23-.18.6-.27.91-.18.23.07.44.48.42.75l-.58-.7c-.36.52-.43.5-.25.75.03.04.15-.07.2-.13Z"/>
    <path class="st3" d="M237.39,36.35l-.33-.32s.08-.18.05-.19c-.04-.02-.13-.07-.16-.04l-.14.15c.14.2.25.53.16.73l-.15.3c-.03.07-.33-.05-.39-.11-.17-.18-.16-.7.09-.94.21-.2.58-.34.89-.21s.59.52.44.86l-.32-.6-.14.36Z"/>
    <path class="st3" d="M239.17,136.28v-9.35s0,9.35,0,9.35Z"/>
    <path class="st3" d="M240.51,128.5v-6.57s0,6.57,0,6.57Z"/>
  </g>
  <g>
    <path class="st3" d="M90.56,63.69c.48-.5.63-.68.59-.61-.04.05.47.46.56.46l3.04-.15.08-.69.74.67c.15.13.52-.46.58-.66.52-1.6,1.31-3.16,2.2-4.56l-.32-2.4c-.84-6.32.01-8.53-.02-14.45-1.75.49-3.47,1-4.79,1.22-.67.11-1.82-1.46-3.14-.53-1.12.79-2.12,1.05-3.32,1.09l.43,3.22.22,1.57c.6,4.21.02,6.98.33,11.07,1.23.95,1.71,2.34,2.09,3.85l.29-.82.43,1.7ZM90.24,133.42l-.1-5.98c0-.42-.06-1.5-.65-1.48-2.36.08-4.46.92-6.5,2l-2.21,1.16c-1.32.7-2.31,1.71-3.3,2.78-.78.85-1.18,1.86-1.4,3.07-.53,3.07.09,6.02,1.45,8.84l2.11,4.37c1.04,2.16.82,4.55-.66,6.55l-2.11,2.86-2.48,2.86c-2.15,2.48-4.35,6.37-5.2,9.56-1.7,6.37-1.3,13.02,2.68,18.52,4.84,6.7,12.3,9.73,20.46,10.02l3.49.12-.02,1.04c0,.17.65.11.82.11.21,0,.78-.44.62-.57l-.75-.61c8.81-.29,18.24-2.89,23.24-11.05.59-.96,1.32-2.17,1.64-3.19,1.36-4.29,1.75-8.55,1.06-12.88-.2-1.25-.7-2.46-1.14-3.67-.76-2.14-1.96-3.9-3.18-5.73-1.57-2.37-3.31-4.4-5.28-6.48-.58-.61-1.15-1.51-1.66-2.19-1.88-2.49-1.79-5.7-.46-8.37.19-2.09,1.01-1.28,1.96-4.96.25-.95.79-3.34.76-4.3-.53-.1-.98.37-1.38.58l-2.99,1.52c-1.42.72-4.79.96-6.58-.7l-2.22-2.07c-.17-.06-.54-.03-.62-.18l-.41-.7-.43-.73c-.08-.13.14-.53.13-.72l-.27-4.96c0-.12-.64-.54-.52-.55,1.03-.09.03-6.68.09-8.26l.14-3.77c-.17-.33-.39-.99-.25-1.35.37-.93-.18-1.72-.2-2.41l-.09-3.38-.25-3.54-.43-10.76c-.23-.21-.64-.58-.54-.48.08.08.55-.33.54-.44l-.26-3.05c-.05-.59-.04-.93-.04-1.46.03-2.51-.07-5-.18-7.54l-.07-1.53-.51-9.09c0-.11-.75-.56-.62-.57s.6-.27.6-.4l-.08-3.51c-.02-.71-.3-1.44-1.06-1.42l-4.6.14-.05,3.19.13,6.05c-.24.31-.3.36-.24.47.05.08.36.5.36.61l.04,6.38-.03,2.41c-.01,1.07.23,2.49-.31,3.52.34.36.4.96.15,1.47.1.14.35.3.31.47l-.2.79.06,1.24c.11,2.29-.55,1.33.25,2.53l-.55,1.02c-.1.19.35.45.61.69,1.87-1.81,2.62,0,5.69-.61l-.61,1.91-3.04-.13c-.34-.01-1.17.37-1.26.05l-.37-1.32-.96.74c.37.37.56.83.55,1.52,0,.47-.25.91-.53,1.18.08.11.55.51.44.65l-.48.59.55.53c.1.1-.12.48-.09.62.1.43,0,.97-.26,1.39l.42,2.09c.09.46-.35,1.22-.42,1.69-.22,1.54-.1,3.13-.05,4.77l1.12.64-1.03.57c-.53.29.13,4.47.23,5.37.09.75-.37,1.75,0,2.61.18.41.03,1.1-.1,1.6l.59.7c.48.57-1.34,1.36-.32,2.63.18-.71.27-.94.47-.49l-.18.99c-.04.23.44.59.65.51l.82-.29c.26.06.68.19.92.1s.35-.7.49-1.08c.21.19.37.36.32.48l-.29.7,2.9.1.04-1.53c.28.75.47,1.19.81,1.83l-.69,1.58c-.17-.35-.29-.5-.19-.56.07-.05.05-.04.35-.39-.08-.07-.84-.22-1.01-.01l-.61.74-.38-.76c-.79.56-1.63.39-2.5-.1l-.13,1.6c-.21-1.19-.55-2.13-1.62-2.27l-.28-.84c-.88,3.09.78,2.71.59,3.07l-.3.57c-.25-.71-.29-.59-.41-.05l.03,4.1c0,.25.95.51.88.75s-.31.68-.51.96l.14-.74c.02-.09-.49-.07-.49.01l.03,2.94.61-.06c.09,0,.22.26.16.32l-.34.33c-.15.15-.43.74-.4.79l1.62.14c-.7.53-1.45.62-2.12.34l-.09-5.44Z"/>
    <path class="st3" d="M90.24,133.42l.09,5.44c.67.28,1.43.19,2.12-.34l-1.62-.14c-.03-.05.25-.64.4-.79l.34-.33c.06-.06-.07-.33-.16-.32l-.61.06-.03-2.94c0-.09.51-.1.49-.01l-.14.74c.2-.28.44-.71.51-.96s-.88-.5-.88-.75l-.03-4.1c.12-.54.16-.66.41.05l.3-.57c.19-.36-1.46.03-.59-3.07l.28.84c1.07.15,1.4,1.08,1.62,2.27l.13-1.6c.87.48,1.71.66,2.5.1l.38.76.61-.74c.17-.2.93-.06,1.01.01-.3.34-.29.34-.35.39-.1.07.02.21.19.56l.69-1.58c-.34-.64-.53-1.08-.81-1.83l-.04,1.53-2.9-.1.29-.7c.05-.12-.11-.29-.32-.48-.14.38-.25.99-.49,1.08s-.66-.04-.92-.1l-.82.29c-.21.08-.69-.28-.65-.51l.18-.99c-.21-.44-.29-.22-.47.49-1.02-1.27.8-2.05.32-2.63l-.59-.7c.14-.49.28-1.18.1-1.6-.37-.86.09-1.86,0-2.61-.11-.9-.76-5.07-.23-5.37l1.03-.57-1.12-.64c-.05-1.64-.18-3.23.05-4.77.07-.47.51-1.23.42-1.69l-.42-2.09c.26-.43.36-.97.26-1.39-.03-.14.2-.52.09-.62l-.55-.53.48-.59c.11-.14-.36-.54-.44-.65.27-.26.52-.71.53-1.18,0-.69-.18-1.15-.55-1.52l.96-.74.37,1.32c.09.31.92-.07,1.26-.05l3.04.13.61-1.91c-3.06.6-3.82-1.2-5.69.61-.26-.24-.71-.5-.61-.69l.55-1.02c-.81-1.19-.15-.23-.25-2.53l-.06-1.24.2-.79c.04-.16-.21-.33-.31-.47.25-.51.19-1.11-.15-1.47.53-1.03.29-2.44.31-3.52l.03-2.41-.04-6.38c0-.11-.31-.52-.36-.61-.06-.11,0-.16.24-.47l-.13-6.05.05-3.19,4.6-.14c.76-.02,1.04.71,1.06,1.42l.08,3.51c0,.12-.48.38-.6.4s.62.46.62.57l.51,9.09.07,1.53c.11,2.53.21,5.03.18,7.54,0,.53-.01.88.04,1.46l.26,3.05c0,.11-.46.52-.54.44-.11-.1.31.28.54.48l.43,10.76.25,3.54.09,3.38c.02.68.57,1.47.2,2.41-.14.35.09,1.02.25,1.35l-.14,3.77c-.06,1.58.94,8.17-.09,8.26-.12,0,.51.43.52.55l.27,4.96c.01.19-.2.59-.13.72l.43.73.41.7c.08.14.46.12.62.18l2.22,2.07c1.79,1.66,5.16,1.42,6.58.7l2.99-1.52c.4-.2.85-.68,1.38-.58.03.96-.51,3.35-.76,4.3-.95,3.68-1.77,2.88-1.96,4.96-1.33,2.67-1.42,5.88.46,8.37.52.68,1.09,1.58,1.66,2.19,1.97,2.07,3.71,4.11,5.28,6.48,1.22,1.84,2.41,3.59,3.18,5.73.43,1.21.94,2.42,1.14,3.67.69,4.33.3,8.58-1.06,12.88-.32,1.02-1.06,2.23-1.64,3.19-5,8.16-14.43,10.76-23.24,11.05l.75.61c.16.13-.41.57-.62.57-.17,0-.82.06-.82-.11l.02-1.04-3.49-.12c-8.15-.29-15.62-3.32-20.46-10.02-3.98-5.51-4.38-12.16-2.68-18.52.85-3.19,3.05-7.08,5.2-9.56l2.48-2.86,2.11-2.86c1.48-2.01,1.7-4.4.66-6.55l-2.11-4.37c-1.36-2.82-1.99-5.76-1.45-8.84.21-1.21.61-2.22,1.4-3.07.99-1.07,1.98-2.08,3.3-2.78l2.21-1.16c2.04-1.07,4.14-1.92,6.5-2,.6-.02.65,1.06.65,1.48l.1,5.98ZM94.73,67.65c.21-.68.37-1.43.45-1.99-1.22.35-1.89.44-2.58-.16l-1.7.3c-.22,1.12-.19,2.31.41,3.23l.64-.63c.13-.13.65.1.82.18.82.37,1.72-.1,1.97-.93ZM95.17,78.48c.31-.48.49-1.3.67-2.05l-2.15.31-1.82-.58c0-.9,0-1.62-.21-2.36-.39.61,0,1.79-.19,2.39-.03.11-.93,2.65.03,2.61,1.92-.09,2.94.82,3.67-.32ZM95.54,88.08l.64-2.33-2.21.5c-.95-.58-2-.59-2.75-.11l.3,2.18,1.21-.09c.83.24,2.32.46,2.82-.15ZM92.36,104.16c.23-.23,1.11-.4,1.48-.2.48.26,1.01.88,1.28,1.27l.08-.8c.02-.18.52-.22.82-.34.48-.19.78-1.47.66-1.87-2.66.79-2.17-.74-5.22.19l.5,2.1c-.05.12-.32.37-.22.46l.61.53.02-1.35ZM95.38,113.77l1.62-.11c.28-.02.43-.6.27-.89-.1-.19-.52-.39-.75-.38l-4.78.17c-.17.3-.08,1.15.19,1.37l3.18-.25.24,1.08.65-.26c.13-.05-.08-.15-.27-.21-.1-.03-.03.08-.36-.52ZM94.45,121.97c.36.04.81.61,1.1,1.02l1.11-.88c.1.49.05.75.18.72l.63-.11c.13-.02-.36-.43-.33-.57l.28-1.17-.54-1.37c-.1.46-.12,1.22-.38,1.29-.22.06-.58.05-.89,0l-1.76-.29c-.19-.03-.73.25-.91.29-.13.03-.23-.27-.46-.73-.44.66-.65,1.53-.27,2.34l.27.54c.27.54.81-1.23,1.95-1.1ZM95.64,131.69c.1-.06.54-.51.76-.41l1.09.49.72-1.48-3.73.24-.19-1.1c-.24.49-.2.84-.39.84h-.9c-.2,0-.14-.84-.17-1.03-.14-.57-.18-.71,0,0-.27.64-.51,1.04-.93,1.59l.93,1.14.92-.72c.47.04.48.12-.11.47l.83.09c.13.02.07-.06.12-.6l1.05.45ZM98.17,134.27c-1.25-.03-1.6-.04-2.25-.16l-.78.34c-.18.08-.76-.23-.74-.35.11-.31.32-.7.18-.67-.16.03-.68-.03-.65.11l.14.71c-.34-.08-.91-.54-1.32-1l-.74,1.6.98.87c.21-.24.59-.73.78-.66l.64.25,1.54.13,1.84-.1.4-1.06ZM83.79,136.44c.28-.2.51-.96.43-1.28-.07-.28-.47-.74-.77-.92-.75-.45-1.61-.26-2.1.36-.38.49-.17,1.53.33,2.07.39.43,1.51.22,2.11-.23ZM93.6,138.84l3.08-.05h3.32s.06-3.12.06-3.12c-1.64-.78.15.92-.99,1.74l.62.71c-1.34.18-2.42.23-3.66.28l-1.43.05c-.41.01-.67.07-1,.39ZM90.13,140.8c-.03-.58.04-.89-.09-.87l-.41.07c-.09.02-.29.43-.29.53l.32,5.28,4.63-.04c2.61-.02,4.15.05,6.92-.26l-.2-5.58c-.51.09-1.01.27-1.12.11l-.49-.7-.71.68c-.71-.13-1.17-.11-1.84-.13l-2.5-.1c-.13.99-.19,1.57-.96,1.99-.15-.6-.19-1.14-.25-2.04l-1.51.99-.15-1.05-1.36,1.13ZM97.65,162.51c.49.31,1.01.56,1.47.54l1.65-.07-.04-.54c0-.08.32-.14.36-.08l.24.42c.07.13.38.39.38.25,0-.1.19-.63.19-.73l-.27-5.09-1.61-.15-1.29,1.91c-.06-.08-.21-.74-.04-.83l.64-.36-1.1-.88-.86.68c-.16.13-.61-.45-.67-.51-.46.09-1.01.13-1.57.14l-2.53.05c-.94-.08,2.14.64.37.37l-.59-.09c-.22-.03-.72-.5-.87-.34l-.63.67-.27-.63c-.05-.12-.77.41-.76.58l.34,5.25c.56-.04,1.01-.2,1.09-.03l.4.89c.06-.06.29-.3.28-.43l-.04-.65c.92,1.02,3.46.29,3.48.45l-.12-.71,1.4.76c.29.16.85-.71.96-.83ZM109.77,164.4c.38-.12,1.02-.36,1.19-.57.43-.5,0-1.66-.61-1.94-.44-.2-1.02-.22-1.6.23-.38.29-.53,1.09-.26,1.66l.68-1.57.6,2.19ZM113.81,170.04c1.07.08,1.51-.79,1.32-1.52-.13-.49-1-.94-1.53-.81l-.54.13c-.08.02-.07.14,0,.19.07.04.49.1.5.19l.24,1.82ZM114.07,175.86c.05.95-.01,1.85.42,2.04.8.35,1.55-.53,1.39-1.35-.1-.54-.77-1.12-1.56-1.03-.46.05-1.22.48-1.26.85-.04.41.23,1.11.49,1.59-.09-.76.06-1.57.51-2.1Z"/>
    <path class="st3" d="M90.56,63.69l-.43-1.7-.29.82c-.38-1.52-.86-2.9-2.09-3.85-.31-4.09.28-6.86-.33-11.07l-.22-1.57-.43-3.22c1.2-.05,2.21-.3,3.32-1.09,1.32-.94,2.47.64,3.14.53,1.32-.23,3.05-.73,4.79-1.22.03,5.92-.83,8.13.02,14.45l.32,2.4c-.89,1.4-1.68,2.96-2.2,4.56-.07.2-.44.8-.58.66l-.74-.67-.08.69-3.04.15c-.09,0-.6-.4-.56-.46.05-.07-.11.11-.59.61ZM93.28,44.66c.89-.12,1.47-.27,1.53-.6s.05-1.15-.23-1.21c-.39-.08-1.21.2-1.23.5l-.07,1.31ZM91,44.77c.37-.66.75-1.09,1.38-1.57l-1.57-.09-.54,1.45c-.05.14.65.25.72.21ZM89.73,47.44l-.11-2.08c-.37-.02-1.02-.05-1.05.13l-.12.71c-.22.24-.56.52-.41.65l.56.51c.12.11.37-.59.44-.73l.7.81ZM93.06,55.06l.99-3.86c.04-.16-.12-.66-.24-.72-.09-.05-.32-.16-.3-.15-.01-.9-.16-1.48-.4-2.19l-.53-1.54c-.55,1.83-.91,3.02-.96,4.88.6-1.06.88-1.86,1.33-2.93-.04,1.93-1.74,4.2-.31,5.12.02.5-.16.96.43,1.4ZM97.07,51.43l-.4-.8c-.05-.1.11-.23.37-.56-.44-.22-1.09-.42-1.44-.17-.46.33-.65,1.56-.24,1.82l1.71-.29ZM89.91,52.4l.6-1.32c.25-.54-.56-1.16-1.12-1.13-.38.02-.65.48-.8,1.04-.05.19.01.64.13.78s.43-.08.74-.29l.45.93ZM89.85,56.72c.08.22.72-.41.63-.63l-.33-.83c.07-.19.25-.64.24-.64-.74.02-1.32.2-1.63.82-.19.37-.12,1.14.29,1.29l.47-.61c.04-.06.14-.06.17.02.03.1.13.5.16.58ZM96.75,55.17l.41-.41c.09-.09-.41-.42-.5-.34s-.27.27-.26.39l.04.55-.61.36c-.11.07,0,.56.13.55l.51-.03.54.1c.82.15-.46-.99-.27-1.18ZM90.82,61.29c.94-1.12-.05-2.18-.42-3.13l-.29-1.12c-.47.83-.09,1.5.46,2.06l.25,2.18ZM92.73,61.88c-.1.06.27.12.39.14.28.05.63-2.33-.24-2.7l-.44,1.21c-.04.12-.27.48-.35.58-.23.3,1.67.13.64.78Z"/>
    <path class="st3" d="M97.65,162.51c-.11.12-.66.99-.96.83l-1.4-.76.12.71c-.03-.15-2.56.57-3.48-.45l.04.65c0,.13-.23.37-.28.43l-.4-.89c-.08-.17-.53-.01-1.09.03l-.34-5.25c-.01-.16.71-.7.76-.58l.27.63.63-.67c.15-.16.66.31.87.34l.59.09c1.77.27-1.31-.46-.37-.37l2.53-.05c.56-.01,1.11-.05,1.57-.14.06.05.51.64.67.51l.86-.68,1.1.88-.64.36c-.17.1-.02.75.04.83l1.29-1.91,1.61.15.27,5.09c0,.1-.18.63-.19.73,0,.15-.31-.12-.38-.25l-.24-.42c-.04-.07-.36,0-.36.08l.04.54-1.65.07c-.46.02-.97-.23-1.47-.54Z"/>
    <path class="st3" d="M90.13,140.8l1.36-1.13.15,1.05,1.51-.99c.06.9.1,1.44.25,2.04.77-.43.83-1,.96-1.99l2.5.1c.67.03,1.13,0,1.84.13l.71-.68.49.7c.11.15.61-.03,1.12-.11l.2,5.58c-2.77.31-4.31.24-6.92.26l-4.63.04-.32-5.28c0-.1.2-.51.29-.53l.41-.07c.14-.02.06.29.09.87Z"/>
    <path class="st2" d="M83.79,136.44c-.61.45-1.72.66-2.11.23-.49-.54-.71-1.58-.33-2.07.49-.62,1.35-.81,2.1-.36.3.18.7.64.77.92.08.32-.15,1.08-.43,1.28Z"/>
    <path class="st2" d="M114.07,175.86c-.45.53-.61,1.34-.51,2.1-.26-.47-.53-1.18-.49-1.59.04-.37.8-.8,1.26-.85.79-.09,1.46.5,1.56,1.03.15.82-.59,1.7-1.39,1.35-.44-.19-.37-1.09-.42-2.04Z"/>
    <path class="st2" d="M109.77,164.4l-.6-2.19-.68,1.57c-.28-.57-.12-1.37.26-1.66.58-.45,1.16-.43,1.6-.23.6.27,1.04,1.44.61,1.94-.18.21-.82.45-1.19.57Z"/>
    <path class="st2" d="M93.6,138.84c.33-.32.58-.37,1-.39l1.43-.05c1.23-.04,2.31-.1,3.66-.28l-.62-.71c1.14-.82-.65-2.53.99-1.74l-.06,3.13h-3.32s-3.08.03-3.08.03Z"/>
    <path class="st2" d="M113.81,170.04l-.24-1.82c-.01-.09-.43-.14-.5-.19-.08-.05-.09-.16,0-.19l.54-.13c.53-.13,1.4.32,1.53.81.19.73-.25,1.6-1.32,1.52Z"/>
    <path class="st2" d="M94.73,67.65c-.25.83-1.15,1.3-1.97.93-.17-.08-.69-.31-.82-.18l-.64.63c-.6-.92-.63-2.11-.41-3.23l1.7-.3c.69.6,1.36.51,2.58.16-.08.57-.24,1.31-.45,1.99Z"/>
    <path class="st2" d="M95.17,78.48c-.73,1.14-1.75.24-3.67.32-.96.04-.06-2.51-.03-2.61.18-.6-.2-1.78.19-2.39.21.74.21,1.46.21,2.36l1.82.58,2.15-.31c-.19.75-.37,1.57-.67,2.05Z"/>
    <path class="st2" d="M95.54,88.08c-.5.61-1.99.39-2.82.15l-1.21.09-.3-2.18c.75-.48,1.81-.47,2.75.11l2.21-.5-.64,2.33Z"/>
    <path class="st3" d="M92.36,104.16l-.02,1.35-.61-.53c-.1-.09.17-.34.22-.46l-.5-2.1c3.05-.93,2.56.61,5.22-.19.13.4-.17,1.68-.66,1.87-.3.12-.8.16-.82.34l-.08.8c-.27-.39-.8-1.01-1.28-1.27-.37-.2-1.24-.03-1.48.2Z"/>
    <path class="st3" d="M94.45,121.97c-1.15-.13-1.68,1.63-1.95,1.1l-.27-.54c-.38-.81-.17-1.68.27-2.34.23.46.32.76.46.73.18-.04.72-.32.91-.29l1.76.29c.31.05.67.05.89,0,.26-.06.27-.83.38-1.29l.54,1.37-.28,1.17c-.03.13.47.54.33.57l-.63.11c-.13.02-.08-.23-.18-.72l-1.11.88c-.29-.41-.75-.98-1.1-1.02Z"/>
    <path class="st3" d="M95.38,113.77c.33.6.26.49.36.52.19.07.39.16.27.21l-.65.26-.24-1.08-3.18.25c-.27-.22-.37-1.06-.19-1.37l4.78-.17c.23,0,.65.19.75.38.15.29,0,.88-.27.89l-1.62.11Z"/>
    <path class="st2" d="M95.64,131.69l-1.05-.45c-.05.54.02.62-.12.6l-.83-.09c.59-.36.58-.44.11-.47l-.92.72-.93-1.14c.42-.55.65-.95.93-1.59-.18-.72-.14-.58,0,0,.03.18-.03,1.02.17,1.02h.9c.19,0,.15-.35.39-.83l.19,1.1,3.73-.24-.72,1.48-1.09-.49c-.22-.1-.66.35-.76.41Z"/>
    <path class="st3" d="M98.17,134.27l-.4,1.06-1.84.1-1.54-.13-.64-.25c-.2-.08-.58.41-.78.66l-.98-.87.74-1.6c.41.46.98.91,1.32,1l-.14-.71c-.03-.14.49-.08.65-.11.14-.03-.07.37-.18.67-.02.12.56.43.74.35l.78-.34c.65.12,1,.13,2.25.16Z"/>
    <path class="st3" d="M93.06,55.06c-.59-.44-.41-.91-.43-1.4-1.44-.92.27-3.19.31-5.12-.44,1.07-.72,1.87-1.33,2.93.06-1.86.41-3.05.96-4.88l.53,1.54c.24.71.39,1.29.4,2.19-.01,0,.21.1.3.15.13.07.28.57.24.72l-.99,3.86Z"/>
    <path class="st3" d="M89.91,52.4l-.45-.93c-.31.21-.63.42-.74.29s-.18-.59-.13-.78c.15-.56.43-1.02.8-1.04.56-.03,1.36.59,1.12,1.13l-.6,1.32Z"/>
    <path class="st2" d="M89.85,56.72c-.03-.08-.13-.48-.16-.58-.02-.08-.12-.08-.17-.02l-.47.61c-.4-.15-.47-.92-.29-1.29.31-.62.89-.8,1.63-.82,0,0-.17.45-.24.64l.33.83c.09.21-.55.84-.63.63Z"/>
    <path class="st3" d="M97.07,51.43l-1.71.29c-.41-.27-.22-1.49.24-1.82.35-.25,1-.05,1.44.17-.25.33-.42.46-.37.56l.4.8Z"/>
    <path class="st3" d="M93.28,44.66l.07-1.31c.02-.31.84-.58,1.23-.5.28.06.28.86.23,1.21s-.64.48-1.53.6Z"/>
    <path class="st3" d="M89.73,47.44l-.7-.81c-.07.14-.32.84-.44.73l-.56-.51c-.15-.14.19-.41.41-.65l.12-.71c.03-.18.68-.15,1.05-.13l.11,2.08Z"/>
    <path class="st2" d="M90.82,61.29l-.25-2.18c-.55-.57-.93-1.24-.46-2.06l.29,1.12c.37.95,1.36,2,.42,3.13Z"/>
    <path class="st2" d="M92.73,61.88c1.03-.65-.87-.47-.64-.78.08-.1.3-.45.35-.58l.44-1.21c.88.36.53,2.74.24,2.7-.12-.02-.48-.08-.39-.14Z"/>
    <path class="st3" d="M91,44.77c-.07.04-.78-.07-.72-.21l.54-1.45,1.57.09c-.63.48-1.02.91-1.38,1.57Z"/>
    <path class="st2" d="M96.75,55.17c-.19.19,1.09,1.33.27,1.18l-.54-.1-.51.03c-.13,0-.24-.49-.13-.55l.61-.36-.04-.55c0-.12.17-.31.26-.39s.59.25.5.34l-.41.41Z"/>
  </g>
  <g>
    <path class="st0" d="M246.93,161.16c1.04.08,2.15-.07,3.24-.55.83-.14,1.68-.31,2.6.09l-3,.65c-1,.22-1.99.34-3.04.48l.19-.66Z"/>
    <path class="st3" d="M246.93,161.16l-.19.66c1.04-.14,2.04-.26,3.04-.48l3-.65c-.92-.4-1.78-.23-2.6-.09l2.07-.57c1.07-.2,1.93-.5,3.23-.92l-1.33-.42,2.46-.75c-1.35.01-2.71.03-4,.41l-2.23.67c.38-1.84,1.79-1.3,2.92-1.64,1.47-.45,3.05-1.02,4.43-1.28.68.54,1.15.65,1.88.44l2.17-.63c.92.46,1.76.44,2.75.52l3.06.25c1.23.1,7.3,1.16,8.1.86.86-.32,1.8-.87,2.55-.73-.53.41-.56.44,0,.45,2.81-.97,2.07-1.47,5.29-2.46.38-1.18,1.64-1.41,2.43-2.07l2.12-1.77c.79-.66.93-1,2.13-1.22.66-.19,1.95-1.19,2.1-1.83,1-.6,2.53-.95,3.81-1.68,1.09-.62,2.04-1.01,3.28-1.32,3.37-.84,4.25-.4,6.9.18.99.22,1.2,1.28,1.33,2.34l.36.42c.05.06.1.09.13,0l.22-.53c.08-.2.83.01.8.23l-.13.96c-.03.21-.52-.17-.99-.45-.68,1.83-2.16,2.02-3.65,2.72l-2.89,1.35c-2.01.93-5.09,3.12-5.41,5.56-.09.73.56,1.76,1.1,2.05,1.19.64,3.71-.64,6.13-1.41l3.39-1.07,3.82-1.22,3.18-1.05,3.81-1.21,3.45-1.1,3.74-1.21,3.42-1.1,3.65-1.16,3.54-1.14,3.44-1.12,3.62-1.17,3.57-1.15,3.42-1.1,3.61-1.16,3.39-1.08,3.65-1.17,3.77-1.23,2.55-.82,2.41-.77,4.6-1.48c.95-1.52-.09-3.6,1.61-3.98l2.84-.64c.04-1.68-2.07-.56-2.17-2.73-.05-1.06,1.87-2.24,2.76-2.22.42,0,3.2,1.59,2.73,2.31l-1.61,2.48,2.91-.41,2.27-.39.03-.59c0-.12.32-.17.42-.1l.5.33c.38-.43.97-.04,1.49-.03,1.61.03,2.97-.32,4.69-.61l-.94-1.33c.93-.08,2,.24,2.69.86,1.57.11,3.23-.25,4.99-.53-.49-1.63-2.87-.75-2.69-2.58.08-.82,2.3-2.38,2.64-2.45.32-.06,2.72,1.34,2.82,1.49.18.28.19,1.1.13,1.37-.62.47-1.14.99-1.59,1.77l3.71.15c1.85.08,3.36,2.36,3.15,3.97-.43,3.28-3.23,4.42-6.08,3.99l-3.14-.47c-.56-.09-1.71.47-2.11.81l.31,2.09c-2.16-.36-4.48-.7-6.31.63-1.71,1.24-4.08,3.94-5.71,4.17-2.66.37-4.68-3.72-12.15-1.04l-3.52,1.26-4.05,1.48-13.43,4.89-4.23,1.54-3.7,1.35-3.65,1.33-3.33,1.22-4.25,1.56-3.49,1.28-13.81,5.06-4.2,1.54-3.47,1.32-3.22,1.34c-.94.39-1.99.65-2.97.96l.98.21c.18.04-.14.86-.35.97-3.56,1.81-9.07,2.29-9.44,5.38-.23,1.96,1.29,3.3,2.97,3.95,2.76,1.07,4.61.29,7.33,1.11.21.84.42,1.81.5,2.58-4.47,6.65-13.41,3.72-18.52,4.92-2.22.52-3.99,2.15-5.4,3.79-2.11,2.46-4.26,4.64-6.62,6.88-.81.76-2.19,1.18-3.16,1.85-.93.64-2.19.85-3.29,1.22-3.19,1.09-6.46.67-9.72-.3-1.72-.51-3.28-1.54-4.85-2.56s-4.13-5.05-5.04-6.92l-.92-1.9-1.58-4.04c-.13-.32-.33-.73-.53-.87-.16-.11-.61.14-.92.3-.17.09-.37-.35-.37-.55,0-.47.35,0,1.3-.86.13-.12-.13-.52-.18-.73l-.41-1.79c-.61-2.68-1.26-5.37-1.18-8.22.11-4.5,2.53-8.96,6.11-11.52ZM248.98,162.65l3.12-1.07c-.63-.09-1.4.07-2.14.2l-3.49.59c.53.89,1.47.65,2.52.29ZM264.69,165.11l1.65-.33c-2.29-1.29-1.1.11-5.23.71,1.25.2,2.32-.12,3.58-.37ZM286.07,185.43l-3.08-.02c2.46-.9,6.83,0,10.13-.51-1.86-.6-11.55-.66-12.93,1.31l.92.34-1.46,1.29c5.17-1.82,4.55-2.24,10.16-1.89-1.12-.81-2.39-.51-3.73-.52ZM293.5,185.85c1.08.03,2.24.45,2.74-.79-.62.13-1.62.45-2.3.46l-4.12.06c1.14,1.08,2.41.24,3.69.28ZM261.83,200.12c1.35,1.48,2.81.33,4.13-.1,3-.97,6.08-2.75,7.47-5.58-1.17.53-2.91,2.85-4.43,3.45-3.57,1.39-3.54,1.32-7.17,2.24Z"/>
    <path d="M250.17,160.6c-1.1.48-2.2.64-3.24.55.43-.98,1.16-1.53,2.19-1.83l1.11-.31c.24-.07.48.86.22.92l-2.69.65,2.41.02Z"/>
    <path d="M393.04,125.42l-2.38.31c-.08-.87.33-1.23,1.04-1.39.62-.14,1.07.11,1.34,1.08Z"/>
    <path class="st0" d="M261.83,200.12c3.63-.93,3.6-.85,7.17-2.24,1.52-.59,3.26-2.92,4.43-3.45-1.39,2.84-4.47,4.61-7.47,5.58-1.32.43-2.79,1.58-4.13.1Z"/>
    <path class="st0" d="M286.07,185.43c1.34.01,2.61-.29,3.73.52-5.61-.35-4.98.08-10.16,1.89l1.46-1.29-.92-.34c1.38-1.98,11.07-1.91,12.93-1.31-3.3.51-7.67-.4-10.13.51l3.08.02Z"/>
    <path class="st0" d="M248.98,162.65c-1.04.36-1.99.6-2.52-.29l3.49-.59c.74-.13,1.51-.29,2.14-.2l-3.12,1.07Z"/>
    <path class="st0" d="M293.5,185.85c-1.28-.03-2.55.81-3.69-.28l4.12-.06c.68,0,1.68-.33,2.3-.46-.5,1.24-1.66.82-2.74.79Z"/>
    <path class="st0" d="M264.69,165.11c-1.26.26-2.34.58-3.58.37,4.13-.6,2.94-1.99,5.23-.71l-1.65.33Z"/>
  </g>
  <g>
    <path class="st3" d="M232.3,164.24v24.54c.2.97.22,1.87.06,2.86h-50.65s-.03-2.08-.03-2.08l.14-.7v-24.59s-.15-1.1-.15-1.1l.06-1.96,17.78.03,28.8.02,3.81-.05c.24,0,.4.24.39.45l-.04,1.7-.16.87ZM183.32,161.81c-.43.12-.65.58-.49.95.14.33.56.57.83.46.43-.17.64-.54.55-.89-.1-.39-.48-.64-.89-.52ZM185.87,162.99l-.03-1.01c-.06-.04-.28-.05-.32.02l-.15.29c-.33.63-.15-.5-.74-.34v.99c.08.05.2.12.21.06l.07-.34.35.43.28-.47.09.32s.09.04.24.03ZM188.12,162.19c-.12-.35-.74-.32-.92-.08-.06.08-.02.34.07.37l.4.11.21.06s.03.16-.01.16l-.25-.02c-.19-.02-.36-.01-.55.03l-.35-.79c-.02-.06-.22-.1-.27-.06-.04.03-.12.13-.14.19l-.34.9.61-.2c.1-.03.32.17.4.17.46-.33.37.25,1.08-.03.11-.04.21-.4.1-.45l-.68-.32.65-.02ZM188.89,162.21l.46.12c-.1-.47-.56-.43-.77-.29-.33.22-.28.6-.12.84.21.3.7.17.85-.02.03-.04.05-.25.01-.23l-.21.1c-.1.05-.34.1-.42.04s-.12-.3-.1-.41c.01-.08.22-.16.31-.14ZM190.57,162.95v-.85s-.12-.13-.15-.15-.05.09-.07.2-.22.22-.39.22c-.11,0-.15-.2-.15-.35.01-.04-.23-.07-.23-.02l-.03.84c0,.06.07.18.1.22.2.24.07-.58.39-.49.14.04.3.16.3.25l.02.2s.2-.03.2-.06ZM190.91,163.13c.21-.44.22-.9-.02-1.23-.15.4-.18.82.02,1.23ZM192.18,163.14c.12-.55.18-.82-.06-1.26l-.17.59-.57-.63c-.17.52-.18.78,0,1.27l.23-.54.57.56ZM192.98,162.63l.25-.11s-.01-.14-.05-.14h-.25c-.22-.08-.26-.17,0-.2l.33-.05s.03-.05.04-.19l-.82.02v1.1s.88-.1.88-.1l-.4-.21c-.29-.03-.25-.1.04-.13ZM197.16,163.05c.25-.01.45-.42.42-.6s-.2-.5-.39-.52c-.32-.03-.43.27-.42.55,0,.22.07.59.39.57ZM229.16,163.02l1.5.13c.04-.43.04-.8.02-1.3l-.99.13c.15.29.17.67.1.97l-.63.08ZM194.47,162.48l.16.52c.13-.39.13-.69-.11-1.13l-.25.8-.34-.81c-.15.49-.12.77-.04,1.22l.09-.71.25.69.24-.59ZM195.79,162.99c-.12-.3-.25-.45-.21-.54l.22-.47-.32.25-.2-.29.02,1.13.17-.35.32.27ZM196.63,163.07c-.05-.42-.05-.6.07-.89,0-.11-.23-.27-.33-.26s-.39.13-.38.26l.08.89.24-.45.33.45ZM186.74,165.09l-.87-.02c-.04.11-.01.4.09.39s.3-.04.39-.04l.37.04c.09,0,.12-.36.02-.36ZM190.98,165.14l-.36-.08c-.08-.02-.15.21-.18.27l-.15-.25c-.03-.05-.23-.09-.25-.03l-.1.28c-.05-.11-.1-.31-.18-.3l-.26.04c-.08.01-.18.05-.25.07-.05.02-.05.21,0,.24s.2.08.26.08h1.74s.01-.36.01-.36c0-.05-.14-.03-.26-.02-.04.25-.08.41-.04.05ZM199.6,166.81c.19-.3.19-.99-.15-1.06-.91-.05-1.71-.03-2.65-.03-.03.41-.03.67.03,1.08.98.06,1.77.06,2.77.01ZM205.05,167.55c.03-.77.02-1.17-.08-1.84h-2.82s.02,1.84.02,1.84h2.88ZM185.12,166.7c.94.32,1.76.16,2.65.1.08-.4.11-.74-.09-1l-.15.86c-.85,0-1.59-.03-2.4.03ZM189.04,166.67c.94.38,1.78.16,2.67.12.08-.39.13-.68-.07-1.06l-.13.92h-2.47ZM192.92,166.73c.93.19,1.79.15,2.74.05.08-.38.11-.74-.1-.98l-.04.87c-.86-.01-1.68-.06-2.6.06ZM228.17,168.89c.39-.75.1-1.44-.28-2.11-.62-.17-1.22-.24-1.86-.15-.74,1-.56.57-.69,1.8l.4.63c.08.12.37.25.54.34.59.32,1.68-.09,1.9-.51ZM222,169.15l.52-1.21c-.15-.22-.22-.36-.33-.62-.13-.12-.48-.37-.66-.48-.53-.09-1.06.13-1.4.49l-.16.47c-.1.31-.11.61.13.84l.57.54c.34.08.99.11,1.33-.03ZM216.34,167.65c-.25-.41-.72-.72-1.14-.48l-.61.35c-.27.46-.11.97.23,1.26s.83.3,1.2.03c.33-.24.6-.71.33-1.15ZM210.23,167.54c-.21-.02-.66,0-.89.02-.2.22-.31.79-.12.97.35.32.84.24,1.09,0,.23-.23.32-.79-.09-.98ZM194.89,168.52c-.15.26-.04.56-.07.85h-2.68c-.14,0-.19-.39-.15-.54.03-.13.21-.18.46-.31h-6.73s.02,4.74.02,4.74h5.28s3.96-.04,3.96-.04c.01-1.68,0-3.12-.07-4.69ZM205.04,170.4c.03-.76.03-1.18-.05-1.83h-2.82s-.04,1.4-.04,1.4c0,.09.04.27.1.33s.27.12.35.12l2.45-.02ZM199.32,169.69c-.26-.6-.9-.54-1.46-.51-.6.03-1.11.59-1.27,1.04-.23.64-.12,1.28.27,1.74.54.65,1.46.93,2.13.38-.85.31-1.63.07-2.11-.57s-.31-1.59.27-2.09c.66-.56,1.5-.51,2.17.01ZM205.05,173.22v-1.78s-2.85-.02-2.85-.02c-.1.61-.09,1.09,0,1.77l2.85.02ZM229.21,175.01l-.02-2.82c-.04-.13-.06-.13-.21.03.01-.34-.15-.64-.54-.67-.81-.06-2.05-.12-2.83.02-.35.06-.66.25-1.02.34l-.03,1.5.05,2.19.28-.28c-.01.13.2.59.42.6,1.15.02,3.91.32,3.9-.9ZM217.38,174.99l.09-.33s.13-.01.24-.01v-1.9s-.63-.68-.63-.68l-.59-.54h-2.18s-.89,1.21-.89,1.21c-.05-.22-.08-.36-.15-.53-.09,1.13-.09,2.07-.01,3.11l.17-.54c.23.51.63.8,1.11.84l-.17.16c-.19.17,2.66.49,3-.78ZM223.51,173.8l-.06-1.58c0-.2-.31-.57-.51-.69l-3.29.03-.76.48v3.38c.57.17.21.38.44.5h3.69c.51-.53.52-1.36.49-2.11ZM209.42,175.39c1.19.07,1.35.17,1.88-.69.19-.32.29-.52.25-.89l-.08-.87c-.29-.32-.67-.66-1.05-.92-1.08.3-1.69-.24-2.23,1.07l-.22.25c.14.25.18.39.12.64.09.63.62,1.38,1.34,1.42ZM205.07,175.97l-.04-1.72-2.88.02.02,1.72c1.07.04,1.91.05,2.91-.03ZM199.7,175.99l-.02-1h-2.9s-.01,1-.01,1h2.93ZM185.91,175.34c-.03-.05-.14.25-.05.27l.39.08c.08.01.28-.06.34-.1.55-.37-.71-.11-.68-.25ZM205.04,178.85c.04-.73.04-1.17-.02-1.79h-2.8c-.13.62-.13,1.1-.06,1.79h2.87ZM211.51,181.4c.38-.1.49-.64.49-.98,0-.7.02-1.4-.03-2.06-.08-.97-1.06-1.24-1.87-1.22l-1.68.03c-1.31.9-.66,1.89-.82,3.55l.49.72c1.18.3,2.28.29,3.43-.03ZM214.2,181.47l1.06.15.68-.12c.32-.06.8.04,1.09-.19s.65-.73.69-1.09c.16-1.31.02-1.7-.53-2.67-.85-.57-1.87-.43-2.84-.26-.58.1-1.17.85-1.16.95l.04,2.76c.16-.1.15-.28.16-.51l.28.47c.03.12.06.27.1.36.03.08.3.12.42.14ZM187.49,177.8c-.03-.23-.04-.4-.09-.4h-.85c-.09,0-.28.21-.24.28s.14.13.23.13h.96ZM190.44,177.79l.19-.03c-.18.03.6-.43-1.21-.37-.05,0-.24.09-.22.13l.06.25,1.19.02ZM193.85,177.81l.76-.09c.06,0,.11-.26.11-.32-.26-.02-.53.05-.74.17l-.12-.14s-.12.11-.12.16c0,.03.08.22.11.21ZM187.79,179.79l.04-1.39c.02-.83-2.34-.35-2.98-.3l.03,1.68h2.92ZM191.78,179.79v-1.77s-2.3-.01-2.3-.01c-.19,0-.56.08-.68.22l.02,1.56h2.96ZM195.74,179.77l-.02-1.75c-1.04-.04-1.88-.03-2.91.06-.07.64-.08,1.13,0,1.72l2.93-.03ZM199.71,179.78l-.02-1.79-2.89.04c-.08.66-.07,1.19.03,1.77l2.87-.02ZM218.95,180.91c.07-1.03.07-2,0-2.97-.07,1.03-.07,2,0,2.97ZM222.38,180.72l.2-1.36c.03-.19-.03-.58-.09-.79-.24-.93-1.91-.71-2.62-.31-.45.25-.72,1.17-.32,1.56l.84.83c.39.38.77.33,1.23.23l.75-.17ZM226.27,180.01c.2.27.7.23.97.12.21-.09.46-.41.51-.73.07-.41-.4-.81-.71-.85-.42-.06-.96.07-1.05.55-.04.23.1.68.28.92ZM205.05,181.66v-1.79s-2.86.02-2.86.02c-.08.63-.08,1.18,0,1.8l2.86-.03ZM184.76,180.85h14.89s-14.89,0-14.89,0ZM186.87,181.46l.15.19s.18.03.18-.02v-.24c0-.06-.04-.27-.1-.24-.04.02-.16.1-.21.09l-.24-.07c-.05-.02-.5.82-.29.23l.09-.25c-.25-.05-.62.05-.67.34-.06-.12-.13-.28-.13-.28l-.26.44c.59-.14.91.27,1.47-.18ZM187.8,184.53l.03-1.47c0-.13-.2-.36-.33-.36h-1.96c-.2,0-.55.13-.71.26v1.59s2.97-.02,2.97-.02ZM191.8,184.2l-.03-1.33c-.1-.07-.39-.16-.51-.16h-1.76c-.19,0-.57.11-.7.28l.02,1.55h2.68c.1,0,.3-.25.3-.34ZM195.71,184.53v-1.81s-2.29,0-2.29,0c-.2,0-.65.09-.66.32,0,.57,0,.98.03,1.5l2.91-.02ZM199.4,184.54c.15,0,.33-.35.32-.48l-.05-1.32c-1.03-.06-1.85-.06-2.87.02-.07.65-.07,1.15-.02,1.78h2.62ZM205.01,184.54l.07-1.26c0-.13-.07-.54-.19-.55-.87-.04-1.77-.02-2.71.01-.06.64-.06,1.11-.02,1.8h2.84ZM228.06,186.1l.11-.51c.06-.29.23-.8.02-1.03l-.64-.71c-.33-.36-1.31-.35-1.6.04-.64.86-.42,1.03-.33,1.69.07.49.43.72.91.96.5-.1,1.03-.25,1.53-.44ZM221.51,186.37c.45-.13.79-.46.94-.83.18-.43.1-.95-.2-1.27-.53-.59-1.21-.65-1.92-.32-.53.25-.72,1.61,0,2.18.33.26.72.37,1.18.24ZM215.07,185.93c.38.14.94.07,1.17-.18.35-.39.31-1.04.02-1.41-.43-.56-1.5-.26-1.68.1-.26.53-.11,1.27.49,1.48ZM209.43,185.85c.53.28.97.02,1.22-.35.27-.4.21-.89-.22-1.23-.28-.22-.92-.22-1.27.05-.27.21-.27.85-.17,1.17.04.12.3.3.44.37ZM187.6,185.35v-.36s-1.69,0-1.69,0c-.08,0-.27.04-.27.1.03.22.37.27.81.27h1.14ZM190.68,185.33s-.15-.1-.13-.13l.13-.17-1.05-.04-.15.39,1.19-.05ZM203.76,185.19l.37.25c.08.05.15-.69-.09-.27-.18-.24-.77-.32-.91.02-.03.09.32.23.4.17l.23-.18ZM187.8,187.15c.03-.51.02-1.07-.04-1.56-.57-.04-2.71-.23-2.92.25l.05,1.55,2.33.03c.14,0,.57-.11.58-.27ZM195.75,186.98l-.06-1.42-2.38-.03c-.17,0-.56.19-.56.38l.02,1.47,2.36.03c.25,0,.63-.08.61-.44ZM199.31,187.42c.61,0,.37-1.54.32-1.86h-2.45c-.21-.01-.46.23-.45.43l.03,1.39,2.55.03ZM205,187.4c.08-.75.09-1.19.02-1.84h-2.22c-.16,0-.61,0-.65.17v1.67s2.85,0,2.85,0Z"/>
    <path class="st0" d="M194.89,168.52c.07,1.57.08,3,.07,4.69l-3.96.04h-5.28s-.02-4.75-.02-4.75h6.73c-.24.15-.42.19-.46.32-.04.15.02.55.15.55h2.68c.03-.3-.08-.6.07-.86ZM187.68,170.31h7.11s.03-.76.03-.76l-8.86.02v.68s1.72.06,1.72.06ZM193.19,171.21c.54-.04,1.13.25,1.69-.14h-3.31c-.01.2,1.56.15,1.63.14ZM194.79,172.39c.04-.3.03-.51-.04-.69l-4.33.02c-.09.2-.09.53.05.65l4.32.02Z"/>
    <path class="st0" d="M223.51,173.8c.03.76.03,1.58-.49,2.12h-3.69c-.24-.12.12-.33-.44-.5v-3.38s.76-.48.76-.48l3.29-.03c.2.12.5.49.51.69l.06,1.58Z"/>
    <path class="st0" d="M229.21,175.01c0,1.22-2.75.91-3.9.9-.23,0-.43-.47-.42-.6l-.28.28-.05-2.19.03-1.5c.36-.09.67-.28,1.02-.34.78-.14,2.02-.08,2.83-.02.39.03.55.33.54.67.14-.16.16-.16.21-.03l.02,2.82Z"/>
    <path class="st0" d="M211.51,181.4c-1.15.32-2.25.33-3.43.03l-.49-.72c.16-1.65-.49-2.65.82-3.55l1.68-.03c.81-.02,1.79.26,1.87,1.22.05.66.02,1.36.03,2.06,0,.35-.11.88-.49.98Z"/>
    <path class="st0" d="M214.2,181.47c-.11-.02-.39-.06-.42-.14-.04-.09-.07-.24-.1-.36l-.28-.47c-.02.22,0,.41-.16.51l-.04-2.76c0-.1.59-.85,1.16-.95.97-.17,1.99-.31,2.84.26.55.96.69,1.35.53,2.67-.04.35-.41.86-.69,1.09s-.76.13-1.09.19l-.68.12-1.06-.15Z"/>
    <path class="st0" d="M217.38,174.99c-.34,1.27-3.19.95-3,.78l.17-.16c-.48-.03-.89-.32-1.11-.84l-.17.54c-.08-1.04-.08-1.98.01-3.11.07.17.1.3.15.53l.89-1.22h2.18s.59.55.59.55l.63.68v1.9c-.11,0-.23-.03-.24.01l-.09.33Z"/>
    <path class="st0" d="M209.42,175.39c-.72-.04-1.25-.79-1.34-1.42.06-.25.02-.38-.12-.64l.22-.25c.54-1.31,1.15-.77,2.23-1.07.38.26.76.59,1.05.92l.08.87c.04.37-.06.57-.25.89-.52.87-.69.76-1.88.69Z"/>
    <path class="st0" d="M222.38,180.72l-.75.17c-.46.1-.85.15-1.23-.23l-.84-.83c-.4-.39-.13-1.31.32-1.56.71-.4,2.39-.61,2.62.31.05.21.11.6.09.79l-.2,1.36Z"/>
    <path class="st0" d="M228.17,168.89c-.21.42-1.3.83-1.9.51-.16-.09-.46-.22-.54-.34l-.4-.63c.13-1.23-.05-.8.69-1.8.64-.09,1.24-.02,1.86.15.39.67.67,1.36.28,2.11Z"/>
    <path class="st0" d="M228.06,186.1c-.5.19-1.03.34-1.53.44-.48-.25-.85-.47-.91-.96-.09-.65-.31-.83.33-1.69.29-.39,1.27-.4,1.6-.04l.64.71c.21.24.04.75-.02,1.03l-.11.51Z"/>
    <path class="st0" d="M221.51,186.37c-.45.13-.85.02-1.18-.24-.72-.57-.53-1.94,0-2.18.71-.33,1.39-.27,1.92.32.3.33.37.84.2,1.27-.15.37-.49.7-.94.83Z"/>
    <path class="st0" d="M195.75,186.98c.01.35-.36.44-.61.44l-2.36-.03-.02-1.47c0-.19.39-.38.56-.38l2.38.03.06,1.42Z"/>
    <path class="st0" d="M187.8,184.53l-2.96.02v-1.59c.16-.12.51-.25.7-.25h1.96c.13,0,.34.22.33.35l-.03,1.47Z"/>
    <path class="st0" d="M205,187.4h-2.85s0-1.67,0-1.67c.04-.16.49-.17.65-.17h2.22c.06.66.06,1.1-.02,1.84Z"/>
    <path class="st0" d="M187.79,179.79h-2.92s-.03-1.69-.03-1.69c.64-.05,3.01-.54,2.98.3l-.04,1.39Z"/>
    <path class="st0" d="M187.8,187.15c-.01.16-.44.27-.58.27l-2.33-.03-.05-1.55c.21-.48,2.35-.29,2.92-.25.06.49.07,1.05.04,1.56Z"/>
    <path class="st0" d="M195.71,184.53l-2.91.02c-.03-.53-.04-.93-.03-1.5,0-.24.46-.32.66-.32h2.29s0,1.81,0,1.81Z"/>
    <path class="st0" d="M191.8,184.2c0,.09-.19.34-.3.34h-2.68s-.02-1.55-.02-1.55c.12-.16.51-.27.7-.27h1.76c.12,0,.41.08.51.15l.03,1.33Z"/>
    <path class="st0" d="M205.01,184.54h-2.84c-.03-.69-.04-1.16.02-1.8.94-.04,1.84-.05,2.71-.01.12,0,.19.42.19.55l-.07,1.26Z"/>
    <path class="st0" d="M205.05,167.55h-2.88s-.02-1.83-.02-1.83h2.82c.1.66.11,1.07.08,1.83Z"/>
    <path class="st0" d="M205.04,170.4l-2.45.02c-.08,0-.29-.07-.35-.12s-.11-.24-.1-.33l.04-1.39h2.82c.08.64.09,1.06.05,1.81Z"/>
    <path class="st0" d="M195.74,179.77l-2.93.03c-.08-.59-.07-1.08,0-1.72,1.03-.09,1.87-.1,2.91-.06l.02,1.75Z"/>
    <path class="st0" d="M191.78,179.79h-2.96s-.02-1.56-.02-1.56c.13-.14.49-.22.68-.22h2.29s.01,1.78.01,1.78Z"/>
    <path class="st0" d="M199.4,184.54h-2.62c-.05-.63-.05-1.12.02-1.77,1.02-.08,1.84-.08,2.87-.02l.05,1.32c0,.12-.18.48-.32.48Z"/>
    <path class="st0" d="M205.05,181.66l-2.86.03c-.08-.62-.08-1.17,0-1.8l2.85-.02v1.79Z"/>
    <path class="st0" d="M205.04,178.85h-2.87c-.07-.69-.07-1.17.06-1.79h2.8c.06.62.06,1.06.02,1.79Z"/>
    <path class="st0" d="M205.05,173.22l-2.85-.02c-.09-.68-.09-1.17,0-1.77l2.84.02v1.78Z"/>
    <path class="st0" d="M199.71,179.78l-2.87.02c-.11-.58-.11-1.11-.03-1.77l2.89-.04.02,1.79Z"/>
    <path class="st0" d="M205.07,175.97c-1,.07-1.84.06-2.91.03l-.02-1.72,2.88-.02.04,1.72Z"/>
    <path class="st0" d="M222,169.15c-.33.14-.99.11-1.33.03l-.57-.54c-.25-.23-.24-.54-.13-.84l.16-.47c.34-.36.87-.58,1.4-.49.18.11.53.36.66.48.11.25.18.4.33.62l-.52,1.21Z"/>
    <path class="st0" d="M215.07,185.93c-.6-.22-.75-.96-.49-1.48.18-.37,1.25-.66,1.68-.1.29.37.32,1.02-.02,1.41-.22.25-.79.32-1.17.18Z"/>
    <path class="st0" d="M199.31,187.42l-2.55-.03-.03-1.39c0-.21.24-.45.45-.45h2.45c.05.33.29,1.88-.32,1.87ZM199.21,187.04l-.02-.94h-2.06s-.01.95-.01.95h2.09Z"/>
    <path class="st0" d="M199.6,166.81c-1.01.05-1.8.05-2.77-.01-.06-.41-.06-.67-.03-1.08.94,0,1.74-.02,2.65.03.35.07.34.76.15,1.06Z"/>
    <path class="st0" d="M216.34,167.65c.27.45,0,.91-.33,1.15-.37.27-.85.27-1.2-.03s-.49-.8-.23-1.26l.61-.35c.42-.24.9.07,1.14.48Z"/>
    <path class="st0" d="M209.43,185.85c-.13-.07-.4-.25-.44-.37-.1-.31-.1-.96.17-1.17.35-.27.99-.27,1.27-.05.43.35.49.84.22,1.23-.25.37-.69.63-1.22.35Z"/>
    <polygon class="st0" points="199.7 175.99 196.77 175.99 196.79 174.99 199.68 174.99 199.7 175.99"/>
    <path class="st0" d="M226.27,180.01c-.18-.24-.33-.69-.28-.92.09-.48.63-.61,1.05-.55.31.05.77.44.71.85-.05.32-.29.65-.51.73-.27.11-.77.15-.97-.12Z"/>
    <path class="st0" d="M183.32,161.81c.41-.12.79.14.89.52.09.35-.12.72-.55.89-.27.1-.69-.14-.83-.46-.16-.37.05-.82.49-.95Z"/>
    <path class="st0" d="M199.66,180.85h-14.89s14.89,0,14.89,0Z"/>
    <path class="st0" d="M210.23,167.54c.4.2.32.75.09.98-.25.25-.74.33-1.09,0-.2-.18-.08-.75.12-.97.23-.02.68-.03.89-.02Z"/>
    <path class="st0" d="M185.87,162.99c-.15,0-.23.01-.24-.03l-.09-.32-.28.47-.35-.43-.07.34c-.01.06-.13,0-.22-.06v-.99c.6-.16.42.97.75.34l.15-.29c.04-.07.25-.05.32-.02l.03,1.01Z"/>
    <path class="st0" d="M229.16,163.02l.63-.08c.07-.3.05-.68-.1-.97l.99-.13c.03.5.02.87-.02,1.3l-1.5-.13Z"/>
    <path class="st0" d="M199.32,169.69c-.67-.52-1.51-.57-2.17-.01-.58.5-.75,1.44-.27,2.09s1.26.88,2.11.57c-.68.55-1.59.27-2.13-.38-.38-.46-.5-1.1-.27-1.74.16-.45.67-1.01,1.27-1.04.56-.02,1.2-.08,1.46.51Z"/>
    <path class="st0" d="M192.18,163.14l-.57-.56-.23.54c-.18-.49-.17-.75,0-1.27l.57.63.17-.59c.25.44.18.7.06,1.26Z"/>
    <path class="st0" d="M188.12,162.19l-.65.02.68.32c.11.05,0,.41-.1.45-.72.28-.62-.3-1.08.03-.08,0-.29-.21-.4-.17l-.61.2.34-.9c.02-.05.11-.16.14-.19.05-.04.25,0,.27.06l.35.79c.19-.04.36-.04.55-.03l.25.02s.05-.14.01-.16l-.21-.06-.4-.11c-.09-.02-.13-.29-.07-.37.18-.25.8-.28.92.08Z"/>
    <path class="st0" d="M185.12,166.7c.81-.06,1.55-.04,2.4-.03l.15-.86c.2.26.17.6.09,1-.88.05-1.71.22-2.65-.1Z"/>
    <path class="st0" d="M190.57,162.95s-.2.09-.2.06l-.02-.2c0-.09-.17-.21-.3-.25-.32-.09-.19.73-.39.49-.03-.04-.1-.17-.1-.22l.03-.84c0-.05.25-.02.23.02,0,.16.04.35.15.35.17,0,.37-.11.39-.22s.04-.22.07-.2.15.11.15.15v.85Z"/>
    <path class="st0" d="M189.04,166.67h2.47s.13-.93.13-.93c.2.38.15.67.07,1.06-.89.03-1.74.26-2.67-.12Z"/>
    <path class="st0" d="M192.92,166.73c.92-.12,1.74-.07,2.6-.06l.04-.87c.21.24.18.6.1.98-.95.09-1.82.13-2.74-.05Z"/>
    <path class="st0" d="M192.98,162.63c-.28.03-.32.1-.04.13l.4.21-.88.1v-1.1s.81-.02.81-.02c0,.14.01.18-.04.19l-.33.05c-.25.02-.21.12,0,.19h.25s.09.14.05.15l-.25.11Z"/>
    <path class="st0" d="M188.89,162.21c-.09-.02-.3.05-.31.14-.02.11.02.35.1.41s.33,0,.42-.04l.21-.1s.02.19-.01.23c-.14.18-.64.32-.85.02-.17-.24-.21-.61.12-.84.21-.14.67-.18.77.29l-.46-.12Z"/>
    <path class="st0" d="M190.98,165.14c-.04.35,0,.2.04-.05.11-.01.26-.03.26.02v.35s-1.76,0-1.76,0c-.06,0-.22-.05-.26-.08s-.04-.22,0-.24c.06-.02.17-.06.25-.07l.26-.04c.07-.01.12.19.18.3l.1-.28c.02-.06.22-.03.25.03l.15.25c.02-.06.1-.29.18-.27l.36.08Z"/>
    <path class="st0" d="M187.6,185.35h-1.14c-.45,0-.78-.04-.81-.27,0-.06.19-.1.27-.1h1.69s0,.36,0,.36Z"/>
    <path class="st0" d="M194.47,162.48l-.24.59-.25-.69-.09.71c-.09-.45-.11-.73.04-1.22l.34.81.25-.8c.24.44.24.74.11,1.13l-.16-.52Z"/>
    <path class="st0" d="M196.63,163.07l-.33-.45-.24.45-.08-.89c-.01-.13.27-.26.38-.26s.34.15.33.26c-.12.29-.12.47-.07.89Z"/>
    <path class="st0" d="M190.44,177.79l-1.19-.02-.06-.25s.17-.13.22-.13c1.81-.06,1.03.4,1.21.37l-.19.03Z"/>
    <path class="st0" d="M187.49,177.8h-.96c-.09,0-.19-.05-.23-.12s.15-.28.24-.28h.85c.05,0,.07.18.09.41Z"/>
    <path class="st0" d="M197.16,163.05c-.32.02-.38-.36-.39-.57,0-.28.1-.58.42-.55.18.02.35.33.39.52s-.17.58-.42.6ZM197.19,162.87c.34-.15.29-.72-.01-.79-.14-.03-.29.3-.29.44,0,.12.19.4.3.35Z"/>
    <path class="st0" d="M195.79,162.99l-.32-.27-.17.35-.02-1.13.2.29.32-.25-.22.47c-.04.09.09.23.21.54Z"/>
    <path class="st0" d="M186.87,181.46c-.57.44-.88.04-1.47.18l.26-.44s.08.16.13.28c.05-.28.41-.39.67-.34l-.09.25c-.21.59.24-.25.29-.23l.24.07s.16-.07.21-.09c.05-.03.1.18.1.24v.24c0,.05-.16.07-.19.02l-.15-.19Z"/>
    <path class="st0" d="M186.74,165.09c.1,0,.07.37-.02.36l-.37-.04c-.08,0-.28.02-.39.04s-.13-.27-.09-.39l.87.02Z"/>
    <path class="st0" d="M190.91,163.13c-.2-.41-.17-.83-.02-1.23.24.33.23.79.02,1.23Z"/>
    <path class="st0" d="M190.68,185.33l-1.19.05.15-.39,1.05.04-.13.17s.09.09.13.13Z"/>
    <path class="st0" d="M218.95,180.91c-.08-.97-.07-1.94,0-2.97.08.97.07,1.94,0,2.97Z"/>
    <path class="st0" d="M203.76,185.19l-.23.18c-.08.06-.43-.07-.4-.17.14-.34.73-.27.91-.02.24-.42.17.32.09.27l-.37-.25Z"/>
    <path class="st0" d="M193.85,177.81s-.11-.18-.11-.21c0-.05.09-.2.12-.16l.12.14c.21-.12.48-.19.74-.17,0,.06-.04.31-.11.32l-.76.09Z"/>
    <path class="st0" d="M185.91,175.34c-.03.14,1.23-.12.68.25-.06.04-.27.11-.34.1l-.39-.08c-.08-.02.03-.32.05-.27Z"/>
    <path d="M187.68,170.31l-1.73-.06v-.68s8.87-.02,8.87-.02l-.03.76h-7.11ZM187.63,170.09l.02-.32-1.49-.02c-.07,0-.18.2-.14.24s.15.13.21.13l1.39-.03Z"/>
    <path d="M194.79,172.39l-4.32-.02c-.14-.12-.14-.45-.05-.65l4.33-.02c.06.18.07.39.04.69Z"/>
    <path d="M193.19,171.21c-.07,0-1.64.06-1.63-.14h3.31c-.55.39-1.14.1-1.69.14Z"/>
    <polygon points="199.21 187.04 197.13 187.04 197.14 186.1 199.2 186.09 199.21 187.04"/>
    <path d="M197.19,162.87c-.11.05-.29-.24-.3-.35,0-.14.14-.48.29-.44.3.07.35.64.01.79Z"/>
    <path class="st0" d="M187.63,170.09l-1.39.03c-.06,0-.18-.09-.21-.13s.07-.24.14-.24l1.49.02-.02.32Z"/>
  </g>
</svg>