<svg width="24" height="24" viewBox="0 0 24 24" fill="none" xmlns="http://www.w3.org/2000/svg">
<path d="M2.66667 10.25L4.66667 4.0625H19.3333L21.3333 10.25M19.3333 17.125C18.8029 17.125 18.2942 16.9077 17.9191 16.5209C17.544 16.1341 17.3333 15.6095 17.3333 15.0625C17.3333 14.5155 17.544 13.9909 17.9191 13.6041C18.2942 13.2173 18.8029 13 19.3333 13C19.8638 13 20.3725 13.2173 20.7475 13.6041C21.1226 13.9909 21.3333 14.5155 21.3333 15.0625C21.3333 15.6095 21.1226 16.1341 20.7475 16.5209C20.3725 16.9077 19.8638 17.125 19.3333 17.125ZM4.66667 17.125C4.13623 17.125 3.62753 16.9077 3.25245 16.5209C2.87738 16.1341 2.66667 15.6095 2.66667 15.0625C2.66667 14.5155 2.87738 13.9909 3.25245 13.6041C3.62753 13.2173 4.13623 13 4.66667 13C5.1971 13 5.70581 13.2173 6.08088 13.6041C6.45595 13.9909 6.66667 14.5155 6.66667 15.0625C6.66667 15.6095 6.45595 16.1341 6.08088 16.5209C5.70581 16.9077 5.1971 17.125 4.66667 17.125ZM21.2267 3.375C20.96 2.5775 20.2133 2 19.3333 2H4.66667C3.78667 2 3.04 2.5775 2.77333 3.375L0 11.625V22.625C0 22.9897 0.140476 23.3394 0.390524 23.5973C0.640573 23.8551 0.979711 24 1.33333 24H2.66667C3.02029 24 3.35943 23.8551 3.60948 23.5973C3.85952 23.3394 4 22.9897 4 22.625V21.25H20V22.625C20 22.9897 20.1405 23.3394 20.3905 23.5973C20.6406 23.8551 20.9797 24 21.3333 24H22.6667C23.0203 24 23.3594 23.8551 23.6095 23.5973C23.8595 23.3394 24 22.9897 24 22.625V11.625L21.2267 3.375Z" fill="#011C40"/>
</svg>
