<svg width="24" height="24" viewBox="0 0 24 24" fill="none" xmlns="http://www.w3.org/2000/svg">
<path fill-rule="evenodd" clip-rule="evenodd" d="M8.63655 20.9874L6.91766 22.7063C6.64414 22.9798 6.27316 23.1335 5.88633 23.1335C5.49951 23.1335 5.12853 22.9798 4.85501 22.7063L1.41724 19.2685C1.14372 18.995 0.990051 18.624 0.990051 18.2372C0.990051 17.8503 1.14372 17.4794 1.41724 17.2058L6.48794 12.1351C6.51074 12.1123 6.52354 12.0814 6.52354 12.0492C6.52354 12.017 6.51074 11.986 6.48794 11.9633L1.41724 6.89255C1.14372 6.61902 0.990049 6.24804 0.990049 5.86122C0.990049 5.4744 1.14372 5.10342 1.41724 4.82989L4.855 1.39213C5.12853 1.1186 5.49951 0.964934 5.88633 0.964934C6.27316 0.964934 6.64414 1.1186 6.91766 1.39213L11.9884 6.46283C12.0112 6.48562 12.0421 6.49843 12.0743 6.49843C12.1065 6.49843 12.1375 6.48562 12.1603 6.46283L17.231 1.39213C17.5045 1.1186 17.8755 0.964936 18.2623 0.964936C18.6491 0.964936 19.0201 1.1186 19.2936 1.39213L22.7314 4.82989C23.0049 5.10342 23.1586 5.4744 23.1586 5.86122C23.1586 6.24804 23.0049 6.61902 22.7314 6.89255L17.5747 12.0492L22.7314 17.2058C23.0049 17.4794 23.1586 17.8503 23.1586 18.2372C23.1586 18.624 23.0049 18.995 22.7314 19.2685L19.2936 22.7063C19.0201 22.9798 18.6491 23.1335 18.2623 23.1335C17.8755 23.1335 17.5045 22.9798 17.231 22.7063L12.0743 17.5496L8.63655 20.9874Z" fill="#011C40"/>
</svg>
