<svg width="24" height="24" viewBox="0 0 24 24" fill="none" xmlns="http://www.w3.org/2000/svg">
<path d="M1.65054 16.7475C1.49446 16.9036 1.38641 17.0957 1.33838 17.2998L0.0417363 22.5111C-0.0663176 22.9193 0.0537423 23.3516 0.353892 23.6518C0.582006 23.8799 0.894161 24 1.20632 24C1.30237 24 1.39841 24 1.49446 23.964L6.70506 22.6552C6.92117 22.6071 7.11326 22.4991 7.25734 22.343L19.4434 10.1553L13.8366 4.54784L1.65054 16.7475ZM21.2083 0.729456C20.2358 -0.243152 18.639 -0.243152 17.6665 0.729456L15.5295 2.86679L21.1363 8.4743L23.2733 6.33696C24.2458 5.36435 24.2458 3.77936 23.2733 2.79475L21.2083 0.729456Z" fill="#011C40"/>
</svg>
