<svg width="24" height="24" viewBox="0 0 24 24" fill="none" xmlns="http://www.w3.org/2000/svg">
<path d="M22.3873 8.29014L12.5387 3.36585C12.3874 3.29065 12.2207 3.25153 12.0517 3.25153C11.8827 3.25153 11.7161 3.29065 11.5648 3.36585L4.99903 6.64871L1.71617 8.29014L0.621878 8.83728C0.441414 8.92822 0.289655 9.06735 0.183422 9.23925C0.0771891 9.41116 0.020632 9.60912 0.0200195 9.8112V16.3769H2.2086V10.4897L11.5648 15.1732C11.718 15.2498 11.8821 15.2936 12.0572 15.2936C12.2323 15.2936 12.3964 15.2498 12.5496 15.1732L22.3982 10.2489C22.7703 10.0629 23.0001 9.67989 23.0001 9.275C23.0001 8.87011 22.7703 8.48711 22.3982 8.30108L22.3873 8.29014Z" fill="#011C40"/>
<path d="M12.046 17.4712C11.5426 17.4712 11.0283 17.3508 10.5797 17.121L4.38599 14.0242V15.7641C4.38599 18.0183 7.80016 20.754 12.046 20.754C16.2918 20.754 19.706 18.0293 19.706 15.7641V14.0242L13.5123 17.121C13.0637 17.3508 12.5494 17.4712 12.046 17.4712Z" fill="#011C40"/>
</svg>
