<svg width="24" height="24" viewBox="0 0 24 24" fill="none" xmlns="http://www.w3.org/2000/svg">
<path d="M2.25 19.5C1.625 19.5 1.094 19.2815 0.657004 18.8445C0.220004 18.4075 0.00100341 17.876 3.40909e-06 17.25C-0.000996591 16.624 0.218004 16.093 0.657004 15.657C1.096 15.221 1.627 15.002 2.25 15H21.75C22.375 15 22.9065 15.219 23.3445 15.657C23.7825 16.095 24.001 16.626 24 17.25C23.999 17.874 23.7805 18.4055 23.3445 18.8445C22.9085 19.2835 22.377 19.502 21.75 19.5H2.25ZM2.25 9C1.625 9 1.094 8.7815 0.657004 8.3445C0.220004 7.9075 0.00100341 7.376 3.40909e-06 6.75C-0.000996591 6.124 0.218004 5.593 0.657004 5.157C1.096 4.721 1.627 4.502 2.25 4.5H21.75C22.375 4.5 22.9065 4.719 23.3445 5.157C23.7825 5.595 24.001 6.126 24 6.75C23.999 7.374 23.7805 7.9055 23.3445 8.3445C22.9085 8.7835 22.377 9.002 21.75 9H2.25Z" fill="#011C40"/>
</svg>
