<svg width="24" height="24" viewBox="0 0 24 24" fill="none" xmlns="http://www.w3.org/2000/svg">
<path d="M9.83892 0.0925742C9.9509 0.148806 10.0492 0.229468 10.1267 0.328765C10.2043 0.428062 10.2591 0.543526 10.2874 0.66686C10.3178 0.802288 11.1538 4.42629 11.1538 6.85714C11.1538 8.48572 10.4058 9.93772 9.24154 10.8789C8.81846 11.2217 8.61538 11.5954 8.61538 11.9074V12.7406C8.61538 12.7806 8.61764 12.8183 8.62215 12.8537C8.67969 13.2789 8.88785 14.8577 9.08246 16.4949C9.27369 18.1011 9.46154 19.8531 9.46154 20.5714C9.46154 21.4807 9.10495 22.3528 8.47021 22.9958C7.83547 23.6388 6.97458 24 6.07692 24C5.17927 24 4.31838 23.6388 3.68364 22.9958C3.0489 22.3528 2.69231 21.4807 2.69231 20.5714C2.69231 19.8514 2.88015 18.1029 3.07138 16.4949C3.266 14.8577 3.47415 13.2789 3.53169 12.8537L3.53846 12.7406V11.9074C3.53846 11.5954 3.33538 11.2217 2.91231 10.8789C2.31574 10.3971 1.83402 9.7854 1.50295 9.08913C1.17187 8.39287 0.999967 7.62997 1 6.85714C1 4.43486 1.82923 0.829717 1.86646 0.668574C1.91046 0.478014 2.01689 0.308176 2.1684 0.186759C2.31992 0.0653425 2.50758 -0.000488652 2.70077 2.73104e-06C3.17462 2.73104e-06 3.55877 0.389146 3.55877 0.869145V6.00857C3.5521 6.12434 3.56892 6.24026 3.6082 6.34918C3.64748 6.45811 3.70838 6.55772 3.78714 6.64187C3.8659 6.72602 3.96086 6.79293 4.06614 6.83846C4.17142 6.88399 4.2848 6.90717 4.39928 6.90659C4.51375 6.906 4.62689 6.88165 4.73172 6.83505C4.83654 6.78844 4.93082 6.72056 5.00874 6.63561C5.08666 6.55065 5.14656 6.45042 5.18475 6.3411C5.22293 6.23178 5.2386 6.11569 5.23077 6V0.857146C5.23077 0.629817 5.31992 0.411799 5.4786 0.251054C5.63729 0.0903085 5.85251 2.73104e-06 6.07692 2.73104e-06C6.30134 2.73104e-06 6.51656 0.0903085 6.67524 0.251054C6.83393 0.411799 6.92308 0.629817 6.92308 0.857146V6.04457C6.92779 6.26963 7.02057 6.48357 7.181 6.63933C7.34143 6.79509 7.55637 6.87992 7.77854 6.87514C8.00071 6.87037 8.21191 6.77639 8.36567 6.61388C8.51944 6.45136 8.60317 6.23363 8.59846 6.00857V0.865717C8.59846 0.387431 8.98092 2.73104e-06 9.45477 2.73104e-06C9.492 2.73104e-06 9.65785 2.76523e-06 9.83892 0.0925742ZM13.6923 7.71429C13.6923 5.66833 14.4946 3.70617 15.9228 2.25946C17.351 0.812755 19.288 2.73104e-06 21.3077 2.73104e-06C21.5321 2.73104e-06 21.7473 0.0903085 21.906 0.251054C22.0647 0.411799 22.1538 0.629817 22.1538 0.857146V11.0966L22.186 11.4C22.3206 12.6794 22.4498 13.9594 22.5735 15.24C22.7817 17.3931 23 19.8069 23 20.5714C23 21.4807 22.6434 22.3528 22.0087 22.9958C21.3739 23.6388 20.513 24 19.6154 24C18.7177 24 17.8568 23.6388 17.2221 22.9958C16.5874 22.3528 16.2308 21.4807 16.2308 20.5714C16.2308 19.8069 16.4491 17.3931 16.6572 15.24C16.7638 14.148 16.8705 13.1023 16.95 12.3274L16.9838 12H15.3846C14.9358 12 14.5053 11.8194 14.188 11.4979C13.8706 11.1764 13.6923 10.7404 13.6923 10.2857V7.71429Z" fill="#011C40"/>
</svg>
