<svg width="24" height="24" viewBox="0 0 24 24" fill="none" xmlns="http://www.w3.org/2000/svg">
<path d="M10.4213 2.70001C9.89638 2.70001 9.47408 3.1151 9.47408 3.63105C9.47408 4.14699 9.89638 4.56208 10.4213 4.56208H12.6551L13.5431 6.45131L9.78982 9.21725C8.47161 8.24355 6.82978 7.66553 5.05375 7.66553H2.84359C2.31868 7.66553 1.89638 8.08062 1.89638 8.59656C1.89638 9.11251 2.31868 9.5276 2.84359 9.5276H5.05375C8.15193 9.5276 10.7055 11.8397 11.0212 14.8035H10.0187C9.57669 12.5069 7.52045 10.769 5.05375 10.769C2.26342 10.769 0.00195312 12.9918 0.00195312 15.7345C0.00195312 18.4772 2.26342 20.7 5.05375 20.7C7.52045 20.7 9.57275 18.9621 10.0187 16.6655H12C12.5249 16.6655 12.9472 16.2504 12.9472 15.7345V14.8616C12.9472 13.1121 13.9615 11.5487 15.5323 10.6836L16.0098 11.6961C14.7311 12.5961 13.8984 14.0703 13.8984 15.7345C13.8984 18.4772 16.1598 20.7 18.9502 20.7C21.7405 20.7 24.002 18.4772 24.002 15.7345C24.002 12.9918 21.7405 10.769 18.9502 10.769C18.5279 10.769 18.1213 10.8194 17.7306 10.9164L16.4913 8.28622H18.6305C19.1554 8.28622 19.5777 7.87113 19.5777 7.35518V5.49312C19.5777 4.97717 19.1554 4.56208 18.6305 4.56208H16.5269C16.2545 4.56208 15.9862 4.64743 15.7691 4.81036L15.0942 5.30691L14.1233 3.23924C13.9694 2.9095 13.6339 2.70001 13.2629 2.70001H10.4213ZM16.965 13.7328L18.0858 16.1224C18.3068 16.5879 18.8673 16.7935 19.3409 16.5763C19.8145 16.3591 20.0237 15.8082 19.8026 15.3427L18.6778 12.953C18.7647 12.9453 18.8515 12.9414 18.9423 12.9414C20.5131 12.9414 21.7839 14.1905 21.7839 15.7345C21.7839 17.2785 20.5131 18.5276 18.9423 18.5276C17.3715 18.5276 16.1006 17.2785 16.1006 15.7345C16.1006 14.9509 16.4282 14.241 16.961 13.7328H16.965ZM5.05375 18.5276C3.48296 18.5276 2.21212 17.2785 2.21212 15.7345C2.21212 14.1905 3.48296 12.9414 5.05375 12.9414C6.28908 12.9414 7.34285 13.7173 7.73358 14.8035H5.05375C4.52884 14.8035 4.10654 15.2185 4.10654 15.7345C4.10654 16.2504 4.52884 16.6655 5.05375 16.6655H7.73358C7.34285 17.7517 6.28908 18.5276 5.05375 18.5276Z" fill="#011C40"/>
</svg>
