<svg width="24" height="24" viewBox="0 0 24 24" fill="none" xmlns="http://www.w3.org/2000/svg">
<path d="M23 1V16.2778C23 17.4123 22.5536 18.5004 21.7591 19.3026C20.9645 20.1049 19.8868 20.5556 18.7632 20.5556C17.6395 20.5556 16.5618 20.1049 15.7673 19.3026C14.9727 18.5004 14.5263 17.4123 14.5263 16.2778C14.5263 15.1432 14.9727 14.0552 15.7673 13.2529C16.5618 12.4507 17.6395 12 18.7632 12C19.4168 12 20.0342 12.1467 20.5789 12.4156V5.24111L8.47368 7.84444V18.7222C8.47368 19.8568 8.0273 20.9448 7.23274 21.7471C6.43818 22.5493 5.36052 23 4.23684 23C3.11316 23 2.0355 22.5493 1.24094 21.7471C0.44638 20.9448 0 19.8568 0 18.7222C0 17.5877 0.44638 16.4996 1.24094 15.6974C2.0355 14.8951 3.11316 14.4444 4.23684 14.4444C4.89053 14.4444 5.50789 14.5911 6.05263 14.86V4.66667L23 1Z" fill="#011C40"/>
</svg>
