<svg width="24" height="24" viewBox="0 0 24 24" fill="none" xmlns="http://www.w3.org/2000/svg">
<mask id="mask0_721_5967" style="mask-type:luminance" maskUnits="userSpaceOnUse" x="1" y="1" width="23" height="22">
<path d="M11.4131 2.28774L2.39443 11.3064C2.2105 11.4904 2.10718 11.7399 2.10718 12C2.10718 12.2602 2.2105 12.5097 2.39443 12.6936L11.4136 21.7128C11.5975 21.8967 11.847 22 12.1072 22C12.3673 22 12.6168 21.8967 12.8008 21.7128L21.8195 12.6941C22.0034 12.5101 22.1067 12.2606 22.1067 12.0005C22.1067 11.7403 22.0034 11.4908 21.8195 11.3069L12.8003 2.28725C12.6163 2.10332 12.3668 2 12.1067 2C11.8465 2 11.597 2.10332 11.4131 2.28725V2.28774Z" fill="white" stroke="white" stroke-width="2" stroke-linejoin="round"/>
<path d="M9.05859 12H14.9451M12.0019 9.0567V14.9432" stroke="black" stroke-width="2" stroke-linecap="round"/>
</mask>
<g mask="url(#mask0_721_5967)">
<path d="M0.22876 0.226929H23.7748V23.773H0.22876V0.226929Z" fill="#011C40"/>
</g>
</svg>
