<svg width="24" height="24" viewBox="0 0 24 24" fill="none" xmlns="http://www.w3.org/2000/svg">
<path d="M4.125 3C3.03098 3 1.98177 3.4346 1.20818 4.20818C0.434597 4.98177 0 6.03098 0 7.125V9H24V7.125C24 6.03098 23.5654 4.98177 22.7918 4.20818C22.0182 3.4346 20.969 3 19.875 3H4.125ZM24 10.5H0V16.875C0 17.969 0.434597 19.0182 1.20818 19.7918C1.98177 20.5654 3.03098 21 4.125 21H19.875C20.969 21 22.0182 20.5654 22.7918 19.7918C23.5654 19.0182 24 17.969 24 16.875V10.5ZM17.25 16.5H20.25C20.4489 16.5 20.6397 16.579 20.7803 16.7197C20.921 16.8603 21 17.0511 21 17.25C21 17.4489 20.921 17.6397 20.7803 17.7803C20.6397 17.921 20.4489 18 20.25 18H17.25C17.0511 18 16.8603 17.921 16.7197 17.7803C16.579 17.6397 16.5 17.4489 16.5 17.25C16.5 17.0511 16.579 16.8603 16.7197 16.7197C16.8603 16.579 17.0511 16.5 17.25 16.5Z" fill="#011C40"/>
</svg>
