<svg width="24" height="24" viewBox="0 0 24 24" fill="none" xmlns="http://www.w3.org/2000/svg">
<path d="M3.90495 3C4.10386 3 4.29463 3.07902 4.43528 3.21967C4.57593 3.36032 4.65495 3.55109 4.65495 3.75L4.65495 20.25C4.65495 20.4489 4.57593 20.6397 4.43528 20.7803C4.29463 20.921 4.10386 21 3.90495 21C3.70604 21 3.51527 20.921 3.37462 20.7803C3.23397 20.6397 3.15495 20.4489 3.15495 20.25L3.15495 3.75C3.15361 3.65114 3.17209 3.55301 3.2093 3.4614C3.24652 3.3698 3.30171 3.28659 3.37162 3.21667C3.44154 3.14676 3.52475 3.09157 3.61635 3.05435C3.70796 3.01714 3.80609 2.99866 3.90495 3ZM7.30495 12.589C7.29596 12.2405 7.36807 11.8947 7.51558 11.5789C7.66309 11.263 7.88197 10.9858 8.15495 10.769L17.265 3.679C17.591 3.432 17.978 3.279 18.385 3.239L18.615 3.239C18.9612 3.23034 19.3043 3.30583 19.615 3.459C19.9848 3.63951 20.2966 3.92013 20.515 4.269C20.7323 4.61672 20.8468 5.01892 20.845 5.429L20.8449 18.579C20.8439 18.9734 20.7368 19.3602 20.5349 19.699C20.3269 20.0358 20.0337 20.3118 19.6849 20.499C19.3375 20.6868 18.9456 20.7767 18.5511 20.7591C18.1566 20.7415 17.7742 20.617 17.4449 20.399L8.32495 14.319C8.03495 14.128 7.79495 13.871 7.62495 13.569C7.4455 13.2708 7.33609 12.9357 7.30495 12.589Z" fill="#011C40"/>
</svg>
