<svg width="24" height="24" viewBox="0 0 24 24" fill="none" xmlns="http://www.w3.org/2000/svg">
<path d="M1.2 22H16.8V17H1.2C0.54 17 0 17.5625 0 18.25V20.75C0 21.4375 0.54 22 1.2 22ZM22.8 17H19.2V22H22.8C23.46 22 24 21.4375 24 20.75V18.25C24 17.5625 23.46 17 22.8 17ZM20.412 6.8625C19.428 6.25 18.456 5.975 17.772 5.85C17.28 4.375 15.72 2 10.8 2V4.5C15.348 4.5 15.588 6.775 15.6 7C15.6 7.6875 16.14 8.2375 16.788 8.25C17.28 8.25 21.6 8.4875 21.6 14.5H24C24 10.0375 22.056 7.8875 20.412 6.8625ZM17.604 11.3625C16.608 10.6625 15.336 10.5125 14.22 10.9875C12.624 11.65 10.884 11.4625 9.456 10.45C8.75967 9.96641 8.18991 9.3098 7.79814 8.53944C7.40638 7.76909 7.20493 6.90924 7.212 6.0375V2H4.812V6.0375C4.812 8.6375 6.048 11.0625 8.112 12.5125C9.12692 13.2308 10.2958 13.6783 11.5157 13.8156C12.7356 13.9529 13.9692 13.7759 15.108 13.3C15.492 13.1375 15.912 13.1875 16.26 13.425C16.608 13.6625 16.8 14.0625 16.8 14.4875H19.2C19.2 13.225 18.6 12.05 17.604 11.35V11.3625Z" fill="#011C40"/>
</svg>
