<?xml version="1.0" encoding="UTF-8"?>
<svg xmlns="http://www.w3.org/2000/svg" version="1.1" viewBox="0 0 1024 1024">
  <path  fill="#011c40" d="M920.04,281.71l.65,481.58-799.25.26,2.67-431.71c.11-18.2-11.71-36.36,3.77-52.92,57.76,2.65,111.1,5.92,168.69,1.94l623.46.86ZM296.06,310.63c93.09-2.58-101.89-32.15-128.99-10.49-4.73,7.6,9.82,13.78,19.95,13.5l109.03-3.02ZM483.12,355.37c-12.34-4.09-26.21-4.57-35.48.75-6.57,3.78-4.94,17.05-1.66,21.59,4.59,6.34,41.03,9.1,42.63-3.34.86-6.7,2.69-16.28-5.49-19ZM687.92,419.81c4.08-25.93,3.39-42.33-2.54-62-21.62-5.21-40.94-4.96-62.55,1.02-3.5,21.56-3.85,40.01-.39,62.18,22.68,3.34,41.91,4.77,65.49-1.2ZM778,420.29c2.8-21.98,4.48-39.65-.13-60.95-22.37-6.89-43.82-5.79-67.56-1.44-4.54,22.14-4.31,40.35-.27,62.96,24.28,3.92,45.64,3.79,67.96-.57ZM868.48,418.95c4.49-25.14,5.07-41.73-2.03-61.03-22.49-5.33-43.81-5.62-64.07,3.54-8.28,19.78-7.88,39.97,3.61,58.13,20.32,6.49,40.12,6.78,62.49-.63ZM577.95,409.42c9.76-7.28,8.37-17.93,5.5-26.72-3.13-9.58-12.92-12.47-25.73-10.01-9.4,1.81-14.93,5.73-19.33,12.16-8.07,11.81,27.41,33.63,39.56,24.57ZM325.85,448.25c6.09-1.22,4.71-19.64.51-22.27-14.54-.59-31.91,3.8-45.94-2.59,3.1-12.46,7.93-18.26,6.02-28.79l-113.67,2c3.66,30.25,14.18,50.98.85,80.72l160.98-10.07c-26.08-22.48-52.52,2.45-75.12-13.08,22.67-11.83,43.64-1.36,66.36-5.92ZM480.11,399.19c-14.01-1.75-26.65-3.61-33.65,2.73-6.71,6.07-4.18,19.7.93,23.18,3.42,2.33,41.03,9.36,42.2-7.21.51-7.17,2.06-17.26-9.48-18.71ZM482.32,441.67c-10.36-4.79-23.16-4.15-31.69-.42-8.46,3.7-8.87,19.93-5.58,25.94,3.77,6.9,45.7,11.19,45-5.81-.22-5.32,1.52-15.44-7.73-19.71ZM598.93,510.36c-.33-19.9,8.15-43.25-3.73-56.92-14.25-16.4-44.24-5.45-62.35.25-4.93,21.45-3.47,38.64,3.71,58.19,20.99,4.46,39.15,5.32,62.37-1.52ZM687.5,511.6c4.76-25.39,5.88-44.27-4.01-63.29-21.82-4.99-42.1-5.18-62.15.61-1.7,23.48-2.92,41.97,1.41,62.73,22.34,4.14,41.36,4.5,64.76-.05ZM778.71,510.92c2.8-25.05,3.31-42.83-1.68-62.89-22.41-4.78-42.55-4.27-66.19-1-5.4,22.15-4.5,42.87.04,65.31,23.85,2.6,43.91,4.15,67.83-1.42ZM868.07,514.47c1.64-19.8,11.42-50.33-5.81-63.56-12.5-9.6-53.11-12.12-61.54,1.17-8.59,13.53-3.81,45.82,1.8,57.71,17.85,9.85,42.63,3.3,65.55,4.68ZM484.34,490.75c-11.99-5.64-23.96-4.62-35.35-.48-7.77,2.82-6.4,16.11-4.04,21.13,4.02,8.58,40.46,6.24,43.13-.7,2.06-5.34,4.03-16.3-3.74-19.96ZM487.17,536.63c-8.74-8.23-25.29-5.92-37.14-2.47-8.74,2.55-7.46,16.73-4.89,21.81,4.77,9.43,41.39,8.29,42.93-.43.63-3.57,4.53-13.8-.9-18.91ZM207.27,542.26c-9.29-4.27-27.92-5.38-33.08-.31-5.58,9.58-5.42,21.32-4.5,27.04,1.52,9.41,15.19,6.77,24.66,8.16,12.91,1.9,23.74-4.49,23.05-13.7-.36-4.84.25-16.41-10.14-21.18ZM279.82,571.52c2.89-27.57-15.45-32.14-30.2-30.53-12.83,1.4-26.49,18.97-14.47,30.11,10.11,9.37,31.26,6.48,44.68.42ZM317.34,577.56c10.98-.24,21.56-2.39,24.73-10.37,2.39-6-.2-13.28-3.82-16.37-4.43-3.78-12.59-9.33-20.28-8.71-11.83.96-20.96,8.3-22.44,15.2-2.83,13.18,5.78,20.6,21.81,20.24ZM379.26,576.93c11.08-.02,22.71.27,24.98-6.89,2.4-7.57,1.7-17.74-5.68-21.52-19.76-10.11-36.96-3.74-40.29,8.17-3.7,13.22,3.67,20.27,20.99,20.24ZM598.52,600.77c2.6-26.09,3.44-41.95-.23-62.54-23.46-3.77-44.09-3.11-66.24,1.09-2.19,22.56-5.6,42.17,4.65,62.07,21.05,5.26,40.54,5.73,61.82-.62ZM687.54,600.55c4.36-25.68,3.56-42.21-1.41-62.57-21.53-4.46-40.46-2.45-63.04.91-4.76,21.26-4.24,39.86-.25,61.14,22.04,4.61,41.45,7.78,64.7.53ZM780.32,601.57c1.51-27.1,2.1-42.63-.89-64-23.72-4.03-45.1-1.96-69.32,1.3-3.38,21.96-3.75,39.93.31,62.38,24.6,2.92,45.55,4.78,69.9.32ZM868.51,600.57c3.61-25.92,3.3-42.2-.86-62.8-21.84-4.04-40.9-2.49-63.6.89-5.36,21.47-4.5,40.29,0,62.1,21.8,4.11,41.19,6.37,64.46-.19ZM486.17,581.21c-10.48-10.97-32.94-10.18-40.73,1.32-5.48,8.08-1.94,19.69,3.2,21.91,5.95,2.57,34.63,4.12,38.2-2.5,2.38-4.41,5.49-14.29-.66-20.73ZM256.59,652.41c16.74.4,22.59-5.11,22.44-16.76-.1-7.87-4.94-12.32-14.95-18.3-5.04-3.01-11.89-1.91-21.4,4.47-8.17,5.48-10.46,11.79-9.23,20.75.99,7.26,7.96,9.46,23.15,9.83ZM339.07,645.17c10.89-15.91-10.74-29.36-23.94-28.88-11.7.43-22.18,11.98-19.27,31.8,11.02,2.85,35.45,8.41,43.21-2.92ZM591.13,686.44c15.38-12.6,14.12-53.93-5.42-60-17.11-5.31-34.74.68-40.66-16.93-17.01,27.29-13.94,51.36-9.66,80.86,17.47-.4,40.15,8.84,55.73-3.93ZM208.19,623.44c-12.55-2.06-24.37-2.24-33.97,3.06-7.95,4.39-5.6,15.22-3.26,19.85,3.63,7.18,13.94,5.86,23.16,6.13,13.5.39,21.46.09,22.49-11.75.4-4.6,2.17-15.55-8.42-17.29ZM776.01,688.18c3.89-27.01-.79-42.68-4.2-61.75-59.51-14.83-36.66,26.55-61.16-2.29-2.45,23.38-3.5,41.13-1.07,64.1,21.8,6.31,42.37,7.35,66.43-.06ZM404.13,625.97c-14.08-6.08-28.69-6.96-41.37.34-7.3,4.2-5.48,15.78-2.65,19.77,5.46,7.7,36.98,7.05,41.62,1.69,3.11-3.6,4.13-8.59,2.4-21.8ZM480.48,623.45c-14.48-2.33-27.36-3.52-33.94,2.96-6.64,6.54-3.7,19.62,1.52,22.79,5.84,3.55,39.35,7.53,40.83-6.84.72-6.99,2.62-17.13-8.41-18.91ZM687.43,690.22c1.85-23.19,4.2-41.96-2.12-65.09-19.08-1-48.37-3.53-60.89,6.33-9.27,17.22-2.72,39.44-2.5,58.07,23.34,4.44,42.6,3.29,65.51.69ZM804.76,692.02c20.92-3.67,42.38,6.9,57.51-2.97,20.47-13.36,8.98-56.73-16.23-63.43-15.84-4.21-31.54,6.95-43.57,12.51-.54,20.43-4.4,33.65,2.3,53.9ZM211.94,663.22c-16.32-5.65-33.04-6.32-38.71,3.11-5.2,8.63-4.55,18.19-2.69,23.2,3.35,9,38.26,11.17,43.31,1.8,3.01-5.59,7.4-24.89-1.91-28.11ZM268.49,662.63c-16.18,1.28-27.47-3.78-33.16,7.7-4.93,9.93-6.07,24.68,9.85,26.41,13.73,1.49,28.29-1.39,32.21-10.65,3.48-8.23.65-24.2-8.89-23.45ZM462.8,697.32c9.31-.43,20.26,1.32,24.63-5.72,3.51-5.66,3.26-15.62-1.94-21.33-4.13-4.54-12.39-7.73-21.96-7.08-12.63.86-19.32,8.31-20.34,15.75-1.8,13.11,4.28,19.09,19.61,18.38ZM334.81,669.74c-13.77-4.83-29.42-5.51-36.22.81-7.13,6.63-2.44,17.37-.14,23.02,1.84,4.51,37.97,7.45,41.46-1.53,1.82-4.69,6.52-18.23-5.09-22.3Z"/>
</svg>